0
SECTION
2
HEADER
9
$INSUNITS
70
4
0
ENDSEC
0
SECTION
2
TABLES
0
TABLE
2
LTYPE
0
LTYPE
72
65
70
64
2
CONTINUOUS
3
______
73
0
40
0
0
ENDTAB
0
TABLE
2
LAYER
0
ENDTAB
0
ENDSEC
0
SECTION
2
ENTITIES
0
LINE
8
front_outsideCutPath
10
0
20
83.9
11
0
21
75.325
0
LINE
8
front_outsideCutPath
10
0
20
75.325
11
3
21
75.325
0
LINE
8
front_outsideCutPath
10
3
20
75.325
11
3
21
62.575
0
LINE
8
front_outsideCutPath
10
3
20
62.575
11
0
21
62.575
0
LINE
8
front_outsideCutPath
10
0
20
62.575
11
0
21
49.825
0
LINE
8
front_outsideCutPath
10
0
20
49.825
11
3
21
49.825
0
LINE
8
front_outsideCutPath
10
3
20
49.825
11
3
21
37.075
0
LINE
8
front_outsideCutPath
10
3
20
37.075
11
0
21
37.075
0
LINE
8
front_outsideCutPath
10
0
20
37.075
11
0
21
24.325
0
LINE
8
front_outsideCutPath
10
0
20
24.325
11
3
21
24.325
0
LINE
8
front_outsideCutPath
10
3
20
24.325
11
3
21
11.575
0
LINE
8
front_outsideCutPath
10
3
20
11.575
11
0
21
11.575
0
LINE
8
front_outsideCutPath
10
0
20
11.575
11
0
21
3
0
LINE
8
front_outsideCutPath
10
0
20
3
11
15.325
21
3
0
LINE
8
front_outsideCutPath
10
15.325
20
3
11
15.325
21
6
0
LINE
8
front_outsideCutPath
10
15.325
20
6
11
28.075
21
6
0
LINE
8
front_outsideCutPath
10
28.075
20
6
11
28.075
21
3
0
LINE
8
front_outsideCutPath
10
28.075
20
3
11
40.825
21
3
0
LINE
8
front_outsideCutPath
10
40.825
20
3
11
43.4
21
3
0
LINE
8
front_outsideCutPath
10
43.4
20
3
11
43.4
21
11.575
0
LINE
8
front_outsideCutPath
10
43.4
20
11.575
11
40.4
21
11.575
0
LINE
8
front_outsideCutPath
10
40.4
20
11.575
11
40.4
21
24.325
0
LINE
8
front_outsideCutPath
10
40.4
20
24.325
11
43.4
21
24.325
0
LINE
8
front_outsideCutPath
10
43.4
20
24.325
11
43.4
21
37.075
0
LINE
8
front_outsideCutPath
10
43.4
20
37.075
11
40.4
21
37.075
0
LINE
8
front_outsideCutPath
10
40.4
20
37.075
11
40.4
21
49.825
0
LINE
8
front_outsideCutPath
10
40.4
20
49.825
11
43.4
21
49.825
0
LINE
8
front_outsideCutPath
10
43.4
20
49.825
11
43.4
21
62.575
0
LINE
8
front_outsideCutPath
10
43.4
20
62.575
11
40.4
21
62.575
0
LINE
8
front_outsideCutPath
10
40.4
20
62.575
11
40.4
21
75.325
0
LINE
8
front_outsideCutPath
10
40.4
20
75.325
11
43.4
21
75.325
0
LINE
8
front_outsideCutPath
10
43.4
20
75.325
11
43.4
21
83.9
0
LINE
8
front_outsideCutPath
10
43.4
20
83.9
11
28.075
21
83.9
0
LINE
8
front_outsideCutPath
10
28.075
20
83.9
11
28.075
21
80.9
0
LINE
8
front_outsideCutPath
10
28.075
20
80.9
11
15.325
21
80.9
0
LINE
8
front_outsideCutPath
10
15.325
20
80.9
11
15.325
21
83.9
0
LINE
8
front_outsideCutPath
10
15.325
20
83.9
11
2.575
21
83.9
0
LINE
8
front_outsideCutPath
10
2.575
20
83.9
11
0
21
83.9
0
LINE
8
left_outsideCutPath
10
49.4
20
83.9
11
49.4
21
75.325
0
LINE
8
left_outsideCutPath
10
49.4
20
75.325
11
46.4
21
75.325
0
LINE
8
left_outsideCutPath
10
46.4
20
75.325
11
46.4
21
62.575
0
LINE
8
left_outsideCutPath
10
46.4
20
62.575
11
49.4
21
62.575
0
LINE
8
left_outsideCutPath
10
49.4
20
62.575
11
49.4
21
49.825
0
LINE
8
left_outsideCutPath
10
49.4
20
49.825
11
46.4
21
49.825
0
LINE
8
left_outsideCutPath
10
46.4
20
49.825
11
46.4
21
37.075
0
LINE
8
left_outsideCutPath
10
46.4
20
37.075
11
49.4
21
37.075
0
LINE
8
left_outsideCutPath
10
49.4
20
37.075
11
49.4
21
24.325
0
LINE
8
left_outsideCutPath
10
49.4
20
24.325
11
46.4
21
24.325
0
LINE
8
left_outsideCutPath
10
46.4
20
24.325
11
46.4
21
11.575
0
LINE
8
left_outsideCutPath
10
46.4
20
11.575
11
49.4
21
11.575
0
LINE
8
left_outsideCutPath
10
49.4
20
11.575
11
49.4
21
3
0
LINE
8
left_outsideCutPath
10
49.4
20
3
11
63.61
21
3
0
LINE
8
left_outsideCutPath
10
63.61
20
3
11
63.61
21
6
0
LINE
8
left_outsideCutPath
10
63.61
20
6
11
76.36
21
6
0
LINE
8
left_outsideCutPath
10
76.36
20
6
11
76.36
21
3
0
LINE
8
left_outsideCutPath
10
76.36
20
3
11
89.11
21
3
0
LINE
8
left_outsideCutPath
10
89.11
20
3
11
90.57
21
3
0
LINE
8
left_outsideCutPath
10
90.57
20
3
11
90.57
21
11.575
0
LINE
8
left_outsideCutPath
10
90.57
20
11.575
11
93.57
21
11.575
0
LINE
8
left_outsideCutPath
10
93.57
20
11.575
11
93.57
21
24.325
0
LINE
8
left_outsideCutPath
10
93.57
20
24.325
11
90.57
21
24.325
0
LINE
8
left_outsideCutPath
10
90.57
20
24.325
11
90.57
21
37.075
0
LINE
8
left_outsideCutPath
10
90.57
20
37.075
11
93.57
21
37.075
0
LINE
8
left_outsideCutPath
10
93.57
20
37.075
11
93.57
21
49.825
0
LINE
8
left_outsideCutPath
10
93.57
20
49.825
11
90.57
21
49.825
0
LINE
8
left_outsideCutPath
10
90.57
20
49.825
11
90.57
21
62.575
0
LINE
8
left_outsideCutPath
10
90.57
20
62.575
11
93.57
21
62.575
0
LINE
8
left_outsideCutPath
10
93.57
20
62.575
11
93.57
21
75.325
0
LINE
8
left_outsideCutPath
10
93.57
20
75.325
11
90.57
21
75.325
0
LINE
8
left_outsideCutPath
10
90.57
20
75.325
11
90.57
21
83.9
0
LINE
8
left_outsideCutPath
10
90.57
20
83.9
11
76.36
21
83.9
0
LINE
8
left_outsideCutPath
10
76.36
20
83.9
11
76.36
21
80.9
0
LINE
8
left_outsideCutPath
10
76.36
20
80.9
11
63.61
21
80.9
0
LINE
8
left_outsideCutPath
10
63.61
20
80.9
11
63.61
21
83.9
0
LINE
8
left_outsideCutPath
10
63.61
20
83.9
11
50.86
21
83.9
0
LINE
8
left_outsideCutPath
10
50.86
20
83.9
11
49.4
21
83.9
0
LINE
8
top_outsideCutPath
10
99.57
20
47.17
11
99.57
21
32.96
0
LINE
8
top_outsideCutPath
10
99.57
20
32.96
11
96.57
21
32.96
0
LINE
8
top_outsideCutPath
10
96.57
20
32.96
11
96.57
21
20.21
0
LINE
8
top_outsideCutPath
10
96.57
20
20.21
11
99.57
21
20.21
0
LINE
8
top_outsideCutPath
10
99.57
20
20.21
11
99.57
21
7.46
0
LINE
8
top_outsideCutPath
10
99.57
20
7.46
11
99.57
21
6
0
LINE
8
top_outsideCutPath
10
99.57
20
6
11
111.895
21
6
0
LINE
8
top_outsideCutPath
10
111.895
20
6
11
111.895
21
3
0
LINE
8
top_outsideCutPath
10
111.895
20
3
11
124.645
21
3
0
LINE
8
top_outsideCutPath
10
124.645
20
3
11
124.645
21
6
0
LINE
8
top_outsideCutPath
10
124.645
20
6
11
136.97
21
6
0
LINE
8
top_outsideCutPath
10
136.97
20
6
11
136.97
21
20.21
0
LINE
8
top_outsideCutPath
10
136.97
20
20.21
11
139.97
21
20.21
0
LINE
8
top_outsideCutPath
10
139.97
20
20.21
11
139.97
21
32.96
0
LINE
8
top_outsideCutPath
10
139.97
20
32.96
11
136.97
21
32.96
0
LINE
8
top_outsideCutPath
10
136.97
20
32.96
11
136.97
21
45.71
0
LINE
8
top_outsideCutPath
10
136.97
20
45.71
11
136.97
21
47.17
0
LINE
8
top_outsideCutPath
10
136.97
20
47.17
11
124.645
21
47.17
0
LINE
8
top_outsideCutPath
10
124.645
20
47.17
11
124.645
21
50.17
0
LINE
8
top_outsideCutPath
10
124.645
20
50.17
11
111.895
21
50.17
0
LINE
8
top_outsideCutPath
10
111.895
20
50.17
11
111.895
21
47.17
0
LINE
8
top_outsideCutPath
10
111.895
20
47.17
11
99.57
21
47.17
0
LINE
8
back_outsideCutPath
10
0
20
167.8
11
0
21
159.225
0
LINE
8
back_outsideCutPath
10
0
20
159.225
11
3
21
159.225
0
LINE
8
back_outsideCutPath
10
3
20
159.225
11
3
21
146.475
0
LINE
8
back_outsideCutPath
10
3
20
146.475
11
0
21
146.475
0
LINE
8
back_outsideCutPath
10
0
20
146.475
11
0
21
133.725
0
LINE
8
back_outsideCutPath
10
0
20
133.725
11
3
21
133.725
0
LINE
8
back_outsideCutPath
10
3
20
133.725
11
3
21
120.975
0
LINE
8
back_outsideCutPath
10
3
20
120.975
11
0
21
120.975
0
LINE
8
back_outsideCutPath
10
0
20
120.975
11
0
21
108.225
0
LINE
8
back_outsideCutPath
10
0
20
108.225
11
3
21
108.225
0
LINE
8
back_outsideCutPath
10
3
20
108.225
11
3
21
95.475
0
LINE
8
back_outsideCutPath
10
3
20
95.475
11
0
21
95.475
0
LINE
8
back_outsideCutPath
10
0
20
95.475
11
0
21
86.9
0
LINE
8
back_outsideCutPath
10
0
20
86.9
11
15.325
21
86.9
0
LINE
8
back_outsideCutPath
10
15.325
20
86.9
11
15.325
21
89.9
0
LINE
8
back_outsideCutPath
10
15.325
20
89.9
11
28.075
21
89.9
0
LINE
8
back_outsideCutPath
10
28.075
20
89.9
11
28.075
21
86.9
0
LINE
8
back_outsideCutPath
10
28.075
20
86.9
11
40.825
21
86.9
0
LINE
8
back_outsideCutPath
10
40.825
20
86.9
11
43.4
21
86.9
0
LINE
8
back_outsideCutPath
10
43.4
20
86.9
11
43.4
21
95.475
0
LINE
8
back_outsideCutPath
10
43.4
20
95.475
11
40.4
21
95.475
0
LINE
8
back_outsideCutPath
10
40.4
20
95.475
11
40.4
21
108.225
0
LINE
8
back_outsideCutPath
10
40.4
20
108.225
11
43.4
21
108.225
0
LINE
8
back_outsideCutPath
10
43.4
20
108.225
11
43.4
21
120.975
0
LINE
8
back_outsideCutPath
10
43.4
20
120.975
11
40.4
21
120.975
0
LINE
8
back_outsideCutPath
10
40.4
20
120.975
11
40.4
21
133.725
0
LINE
8
back_outsideCutPath
10
40.4
20
133.725
11
43.4
21
133.725
0
LINE
8
back_outsideCutPath
10
43.4
20
133.725
11
43.4
21
146.475
0
LINE
8
back_outsideCutPath
10
43.4
20
146.475
11
40.4
21
146.475
0
LINE
8
back_outsideCutPath
10
40.4
20
146.475
11
40.4
21
159.225
0
LINE
8
back_outsideCutPath
10
40.4
20
159.225
11
43.4
21
159.225
0
LINE
8
back_outsideCutPath
10
43.4
20
159.225
11
43.4
21
167.8
0
LINE
8
back_outsideCutPath
10
43.4
20
167.8
11
28.075
21
167.8
0
LINE
8
back_outsideCutPath
10
28.075
20
167.8
11
28.075
21
164.8
0
LINE
8
back_outsideCutPath
10
28.075
20
164.8
11
15.325
21
164.8
0
LINE
8
back_outsideCutPath
10
15.325
20
164.8
11
15.325
21
167.8
0
LINE
8
back_outsideCutPath
10
15.325
20
167.8
11
2.575
21
167.8
0
LINE
8
back_outsideCutPath
10
2.575
20
167.8
11
0
21
167.8
0
LINE
8
right_outsideCutPath
10
49.4
20
167.8
11
49.4
21
159.225
0
LINE
8
right_outsideCutPath
10
49.4
20
159.225
11
46.4
21
159.225
0
LINE
8
right_outsideCutPath
10
46.4
20
159.225
11
46.4
21
146.475
0
LINE
8
right_outsideCutPath
10
46.4
20
146.475
11
49.4
21
146.475
0
LINE
8
right_outsideCutPath
10
49.4
20
146.475
11
49.4
21
133.725
0
LINE
8
right_outsideCutPath
10
49.4
20
133.725
11
46.4
21
133.725
0
LINE
8
right_outsideCutPath
10
46.4
20
133.725
11
46.4
21
120.975
0
LINE
8
right_outsideCutPath
10
46.4
20
120.975
11
49.4
21
120.975
0
LINE
8
right_outsideCutPath
10
49.4
20
120.975
11
49.4
21
108.225
0
LINE
8
right_outsideCutPath
10
49.4
20
108.225
11
46.4
21
108.225
0
LINE
8
right_outsideCutPath
10
46.4
20
108.225
11
46.4
21
95.475
0
LINE
8
right_outsideCutPath
10
46.4
20
95.475
11
49.4
21
95.475
0
LINE
8
right_outsideCutPath
10
49.4
20
95.475
11
49.4
21
86.9
0
LINE
8
right_outsideCutPath
10
49.4
20
86.9
11
63.61
21
86.9
0
LINE
8
right_outsideCutPath
10
63.61
20
86.9
11
63.61
21
89.9
0
LINE
8
right_outsideCutPath
10
63.61
20
89.9
11
76.36
21
89.9
0
LINE
8
right_outsideCutPath
10
76.36
20
89.9
11
76.36
21
86.9
0
LINE
8
right_outsideCutPath
10
76.36
20
86.9
11
89.11
21
86.9
0
LINE
8
right_outsideCutPath
10
89.11
20
86.9
11
90.57
21
86.9
0
LINE
8
right_outsideCutPath
10
90.57
20
86.9
11
90.57
21
95.475
0
LINE
8
right_outsideCutPath
10
90.57
20
95.475
11
93.57
21
95.475
0
LINE
8
right_outsideCutPath
10
93.57
20
95.475
11
93.57
21
108.225
0
LINE
8
right_outsideCutPath
10
93.57
20
108.225
11
90.57
21
108.225
0
LINE
8
right_outsideCutPath
10
90.57
20
108.225
11
90.57
21
120.975
0
LINE
8
right_outsideCutPath
10
90.57
20
120.975
11
93.57
21
120.975
0
LINE
8
right_outsideCutPath
10
93.57
20
120.975
11
93.57
21
133.725
0
LINE
8
right_outsideCutPath
10
93.57
20
133.725
11
90.57
21
133.725
0
LINE
8
right_outsideCutPath
10
90.57
20
133.725
11
90.57
21
146.475
0
LINE
8
right_outsideCutPath
10
90.57
20
146.475
11
93.57
21
146.475
0
LINE
8
right_outsideCutPath
10
93.57
20
146.475
11
93.57
21
159.225
0
LINE
8
right_outsideCutPath
10
93.57
20
159.225
11
90.57
21
159.225
0
LINE
8
right_outsideCutPath
10
90.57
20
159.225
11
90.57
21
167.8
0
LINE
8
right_outsideCutPath
10
90.57
20
167.8
11
76.36
21
167.8
0
LINE
8
right_outsideCutPath
10
76.36
20
167.8
11
76.36
21
164.8
0
LINE
8
right_outsideCutPath
10
76.36
20
164.8
11
63.61
21
164.8
0
LINE
8
right_outsideCutPath
10
63.61
20
164.8
11
63.61
21
167.8
0
LINE
8
right_outsideCutPath
10
63.61
20
167.8
11
50.86
21
167.8
0
LINE
8
right_outsideCutPath
10
50.86
20
167.8
11
49.4
21
167.8
0
LINE
8
bottom_outsideCutPath
10
99.57
20
97.34
11
99.57
21
83.13
0
LINE
8
bottom_outsideCutPath
10
99.57
20
83.13
11
96.57
21
83.13
0
LINE
8
bottom_outsideCutPath
10
96.57
20
83.13
11
96.57
21
70.38
0
LINE
8
bottom_outsideCutPath
10
96.57
20
70.38
11
99.57
21
70.38
0
LINE
8
bottom_outsideCutPath
10
99.57
20
70.38
11
99.57
21
57.63
0
LINE
8
bottom_outsideCutPath
10
99.57
20
57.63
11
99.57
21
56.17
0
LINE
8
bottom_outsideCutPath
10
99.57
20
56.17
11
111.895
21
56.17
0
LINE
8
bottom_outsideCutPath
10
111.895
20
56.17
11
111.895
21
53.17
0
LINE
8
bottom_outsideCutPath
10
111.895
20
53.17
11
124.645
21
53.17
0
LINE
8
bottom_outsideCutPath
10
124.645
20
53.17
11
124.645
21
56.17
0
LINE
8
bottom_outsideCutPath
10
124.645
20
56.17
11
136.97
21
56.17
0
LINE
8
bottom_outsideCutPath
10
136.97
20
56.17
11
136.97
21
70.38
0
LINE
8
bottom_outsideCutPath
10
136.97
20
70.38
11
139.97
21
70.38
0
LINE
8
bottom_outsideCutPath
10
139.97
20
70.38
11
139.97
21
83.13
0
LINE
8
bottom_outsideCutPath
10
139.97
20
83.13
11
136.97
21
83.13
0
LINE
8
bottom_outsideCutPath
10
136.97
20
83.13
11
136.97
21
95.88
0
LINE
8
bottom_outsideCutPath
10
136.97
20
95.88
11
136.97
21
97.34
0
LINE
8
bottom_outsideCutPath
10
136.97
20
97.34
11
124.645
21
97.34
0
LINE
8
bottom_outsideCutPath
10
124.645
20
97.34
11
124.645
21
100.34
0
LINE
8
bottom_outsideCutPath
10
124.645
20
100.34
11
111.895
21
100.34
0
LINE
8
bottom_outsideCutPath
10
111.895
20
100.34
11
111.895
21
97.34
0
LINE
8
bottom_outsideCutPath
10
111.895
20
97.34
11
99.57
21
97.34
0
ENDSEC
0
EOF