0
SECTION
2
HEADER
9
$INSUNITS
70
4
0
ENDSEC
0
SECTION
2
TABLES
0
TABLE
2
LTYPE
0
LTYPE
72
65
70
64
2
CONTINUOUS
3
______
73
0
40
0
0
ENDTAB
0
TABLE
2
LAYER
0
ENDTAB
0
ENDSEC
0
SECTION
2
ENTITIES
0
LINE
8
front_outsideCutPath
10
0
20
60.1
11
0
21
45.8
0
LINE
8
front_outsideCutPath
10
0
20
45.8
11
2
21
45.8
0
LINE
8
front_outsideCutPath
10
2
20
45.8
11
2
21
36.3
0
LINE
8
front_outsideCutPath
10
2
20
36.3
11
0
21
36.3
0
LINE
8
front_outsideCutPath
10
0
20
36.3
11
0
21
26.8
0
LINE
8
front_outsideCutPath
10
0
20
26.8
11
2
21
26.8
0
LINE
8
front_outsideCutPath
10
2
20
26.8
11
2
21
17.3
0
LINE
8
front_outsideCutPath
10
2
20
17.3
11
0
21
17.3
0
LINE
8
front_outsideCutPath
10
0
20
17.3
11
0
21
7.8
0
LINE
8
front_outsideCutPath
10
0
20
7.8
11
0
21
3
0
LINE
8
front_outsideCutPath
10
0
20
3
11
5.6
21
3
0
LINE
8
front_outsideCutPath
10
5.6
20
3
11
5.6
21
5
0
LINE
8
front_outsideCutPath
10
5.6
20
5
11
15.1
21
5
0
LINE
8
front_outsideCutPath
10
15.1
20
5
11
15.1
21
3
0
LINE
8
front_outsideCutPath
10
15.1
20
3
11
24.6
21
3
0
LINE
8
front_outsideCutPath
10
24.6
20
3
11
24.6
21
5
0
LINE
8
front_outsideCutPath
10
24.6
20
5
11
34.1
21
5
0
LINE
8
front_outsideCutPath
10
34.1
20
5
11
34.1
21
3
0
LINE
8
front_outsideCutPath
10
34.1
20
3
11
39.7
21
3
0
LINE
8
front_outsideCutPath
10
39.7
20
3
11
39.7
21
17.3
0
LINE
8
front_outsideCutPath
10
39.7
20
17.3
11
37.7
21
17.3
0
LINE
8
front_outsideCutPath
10
37.7
20
17.3
11
37.7
21
26.8
0
LINE
8
front_outsideCutPath
10
37.7
20
26.8
11
39.7
21
26.8
0
LINE
8
front_outsideCutPath
10
39.7
20
26.8
11
39.7
21
36.3
0
LINE
8
front_outsideCutPath
10
39.7
20
36.3
11
37.7
21
36.3
0
LINE
8
front_outsideCutPath
10
37.7
20
36.3
11
37.7
21
45.8
0
LINE
8
front_outsideCutPath
10
37.7
20
45.8
11
39.7
21
45.8
0
LINE
8
front_outsideCutPath
10
39.7
20
45.8
11
39.7
21
55.3
0
LINE
8
front_outsideCutPath
10
39.7
20
55.3
11
39.7
21
60.1
0
LINE
8
front_outsideCutPath
10
39.7
20
60.1
11
34.1
21
60.1
0
LINE
8
front_outsideCutPath
10
34.1
20
60.1
11
34.1
21
58.1
0
LINE
8
front_outsideCutPath
10
34.1
20
58.1
11
24.6
21
58.1
0
LINE
8
front_outsideCutPath
10
24.6
20
58.1
11
24.6
21
60.1
0
LINE
8
front_outsideCutPath
10
24.6
20
60.1
11
15.1
21
60.1
0
LINE
8
front_outsideCutPath
10
15.1
20
60.1
11
15.1
21
58.1
0
LINE
8
front_outsideCutPath
10
15.1
20
58.1
11
5.6
21
58.1
0
LINE
8
front_outsideCutPath
10
5.6
20
58.1
11
5.6
21
60.1
0
LINE
8
front_outsideCutPath
10
5.6
20
60.1
11
0
21
60.1
0
LINE
8
front_labelLayer
10
13.272749
20
32.8004014
11
13.272749
21
32.3002745
0
LINE
8
front_labelLayer
10
13.272749
20
32.3002745
11
12.1910791
21
32.3002745
0
LINE
8
front_labelLayer
10
12.1910791
20
32.3002745
11
12.1910791
21
28.5512608
0
LINE
8
front_labelLayer
10
12.1910791
20
28.5512608
11
11.5475049
21
28.5512608
0
LINE
8
front_labelLayer
10
11.5475049
20
28.5512608
11
11.5475049
21
32.3002745
0
LINE
8
front_labelLayer
10
11.5475049
20
32.3002745
11
10.7876221
21
32.3002745
0
LINE
8
front_labelLayer
10
10.7876221
20
32.3002745
11
10.7876221
21
32.591046
0
LINE
8
front_labelLayer
10
10.7876221
20
32.591046
11
11.5475049
21
32.8236632
0
LINE
8
front_labelLayer
10
11.5475049
20
32.8236632
11
11.5475049
21
33.0601573
0
LINE
8
front_labelLayer
10
13.7069678
20
34.490753
11
13.5402588
21
33.9751182
0
LINE
8
front_labelLayer
10
12.1910791
20
33.0756651
11
12.1910791
21
32.8004014
0
LINE
8
front_labelLayer
10
12.1910791
20
32.8004014
11
13.272749
21
32.8004014
0
ARC
8
front_labelLayer
10
14.1556797
20
33.090143
40
2.6083472
50
167.5775812
51
180.6586902
0
ARC
8
front_labelLayer
10
12.9291524
20
33.3760987
40
1.3491092
50
141.7433704
51
168.2321979
0
ARC
8
front_labelLayer
10
12.7294487
20
33.4803292
40
1.1285296
50
98.255167
51
139.6203309
0
ARC
8
front_labelLayer
10
12.9047911
20
32.670321
40
1.9561579
50
89.6696582
51
99.9314672
0
ARC
8
front_labelLayer
10
12.9052828
20
32.554029
40
2.0724455
50
81.5640861
51
89.7017885
0
ARC
8
front_labelLayer
10
12.7595809
20
31.5375464
40
3.0993091
50
75.9739563
51
81.6564393
0
ARC
8
front_labelLayer
10
12.5095572
20
30.5004927
40
4.1660496
50
73.2963762
51
76.0946249
0
ARC
8
front_labelLayer
10
12.57252
20
31.0035524
40
3.1251755
50
71.9613166
51
76.5918144
0
ARC
8
front_labelLayer
10
12.8149768
20
32.0320767
40
2.068465
50
76.5183228
51
83.0216948
0
ARC
8
front_labelLayer
10
12.8994305
20
32.7112394
40
1.3840734
50
83.0760983
51
89.7926862
0
ARC
8
front_labelLayer
10
12.8966518
20
33.2274015
40
0.8679372
50
89.4859643
51
103.4196706
0
ARC
8
front_labelLayer
10
12.8184011
20
33.5280375
40
0.5573852
50
102.7677405
51
144.3380305
0
ARC
8
front_labelLayer
10
12.9760407
20
33.4266109
40
0.7446552
50
145.0688607
51
162.1802263
0
ARC
8
front_labelLayer
10
13.5165277
20
33.2447619
40
1.3148846
50
161.8437111
51
171.7847529
0
ARC
8
front_labelLayer
10
14.3981107
20
33.1123487
40
2.2063478
50
171.6527538
51
178.4383061
0
ARC
8
front_labelLayer
10
15.2295442
20
33.0769
40
3.0384652
50
178.1973884
51
180.023287
0
LINE
8
front_labelLayer
10
16.4944971
20
32.8314171
11
16.4053271
21
32.2343663
0
LINE
8
front_labelLayer
10
14.6917139
20
30.8309092
11
14.6917139
21
28.5512608
0
LINE
8
front_labelLayer
10
14.6917139
20
28.5512608
11
14.0481396
21
28.5512608
0
LINE
8
front_labelLayer
10
14.0481396
20
28.5512608
11
14.0481396
21
32.8004014
0
LINE
8
front_labelLayer
10
14.0481396
20
32.8004014
11
14.5792822
21
32.8004014
0
LINE
8
front_labelLayer
10
14.5792822
20
32.8004014
11
14.6529443
21
32.01338
0
LINE
8
front_labelLayer
10
14.6529443
20
32.01338
11
14.6839599
21
32.01338
0
ARC
8
front_labelLayer
10
15.9932199
20
29.9233431
40
2.9546048
50
84.9923473
51
90.1280599
0
ARC
8
front_labelLayer
10
16.0641692
20
30.7183154
40
2.1564741
50
78.4892617
51
85.0265234
0
ARC
8
front_labelLayer
10
15.7887948
20
29.4658756
40
2.8363097
50
77.4453169
51
81.6361107
0
ARC
8
front_labelLayer
10
15.9123557
20
30.3176024
40
1.9756693
50
81.5884035
51
87.191648
0
ARC
8
front_labelLayer
10
15.9391966
20
30.782929
40
1.5095918
50
87.3438388
51
89.9659876
0
ARC
8
front_labelLayer
10
15.9329607
20
31.1774195
40
1.1151239
50
89.6335477
51
137.0880767
0
ARC
8
front_labelLayer
10
16.2067025
20
30.8696015
40
1.525698
50
135.6209597
51
138.8375721
0
ARC
8
front_labelLayer
10
16.166532
20
30.9088107
40
1.4696516
50
138.9575869
51
174.5422037
0
ARC
8
front_labelLayer
10
16.6451746
20
30.8339172
40
1.9534632
50
173.6907404
51
180.0882243
0
ARC
8
front_labelLayer
10
16.5774903
20
30.9465736
40
2.173369
50
139.4139205
51
150.6032889
0
ARC
8
front_labelLayer
10
16.1878068
20
31.2804929
40
1.6601875
50
124.2321789
51
139.4161288
0
ARC
8
front_labelLayer
10
15.9794433
20
31.5950146
40
1.2829459
50
89.6796594
51
124.4405577
0
ARC
8
front_labelLayer
10
17.6326162
20
30.657297
40
3.3243295
50
349.1762094
51
0.3862645
0
ARC
8
front_labelLayer
10
18.7518402
20
30.434179
40
2.1831363
50
330.2507192
51
349.4116369
0
ARC
8
front_labelLayer
10
19.0962845
20
30.2551513
40
1.7953202
50
318.1439472
51
329.7566076
0
ARC
8
front_labelLayer
10
19.1584491
20
30.2053317
40
1.7157816
50
278.8959141
51
317.9979091
0
ARC
8
front_labelLayer
10
18.9982707
20
30.9727638
40
2.4990656
50
269.750261
51
279.8033044
0
ARC
8
front_labelLayer
10
18.972291
20
30.5403608
40
2.0666941
50
253.5436848
51
270.4182638
0
ARC
8
front_labelLayer
10
18.9034956
20
30.2742452
40
1.7920157
50
238.8115851
51
253.242848
0
ARC
8
front_labelLayer
10
18.8812922
20
30.2295925
40
1.7423232
50
207.7946947
51
238.6757978
0
ARC
8
front_labelLayer
10
19.1998582
20
30.4247042
40
2.1152528
50
205.6560429
51
208.4461959
0
ARC
8
front_labelLayer
10
19.4452898
20
30.5269681
40
2.3808057
50
188.9102659
51
205.3171383
0
ARC
8
front_labelLayer
10
20.2722927
20
30.6670339
40
3.2195391
50
179.7744471
51
189.09327
0
ARC
8
front_labelLayer
10
20.3942766
20
30.7023423
40
3.3415749
50
169.2442696
51
180.388097
0
ARC
8
front_labelLayer
10
19.2595156
20
30.9266447
40
2.1849068
50
150.7111605
51
169.4695329
0
ARC
8
front_labelLayer
10
18.8972538
20
31.1126805
40
1.7780069
50
138.1759495
51
150.228776
0
ARC
8
front_labelLayer
10
18.836998
20
31.1589196
40
1.7022796
50
99.1759265
51
137.9832862
0
ARC
8
front_labelLayer
10
19.0028526
20
30.3783933
40
2.4995744
50
89.7326357
51
100.0759938
0
ARC
8
front_labelLayer
10
19.0360017
20
30.7154752
40
2.1625721
50
73.5222864
51
90.5692428
0
ARC
8
front_labelLayer
10
19.1628248
20
31.1762552
40
1.6847681
50
41.1445414
51
73.2134123
0
ARC
8
front_labelLayer
10
18.9207279
20
30.9681759
40
2.0039894
50
13.5014547
51
41.0703275
0
ARC
8
front_labelLayer
10
17.9853935
20
30.7234137
40
2.9706843
50
1.127746
51
13.8799737
0
ARC
8
front_labelLayer
10
17.1793887
20
30.6802347
40
3.7774815
50
359.9920127
51
1.5419375
0
ARC
8
front_labelLayer
10
20.9786028
20
30.6629818
40
3.2590315
50
179.7059402
51
187.9160953
0
ARC
8
front_labelLayer
10
19.7833038
20
30.4912777
40
2.0514823
50
187.763939
51
200.0976861
0
ARC
8
front_labelLayer
10
19.1248054
20
30.2500026
40
1.3501738
50
200.0845732
51
216.913156
0
ARC
8
front_labelLayer
10
18.8843466
20
30.0783039
40
1.054817
50
217.300955
51
261.7099161
0
ARC
8
front_labelLayer
10
18.9959752
20
30.6109819
40
1.5983786
50
260.5033157
51
270.2477166
0
ARC
8
front_labelLayer
10
19.0172824
20
30.5074095
40
1.4948606
50
269.4481897
51
284.7255649
0
ARC
8
front_labelLayer
10
19.1356228
20
30.068524
40
1.0403138
50
284.5662112
51
322.6334124
0
ARC
8
front_labelLayer
10
18.858942
20
30.2684145
40
1.3815567
50
323.0089143
51
342.6390827
0
ARC
8
front_labelLayer
10
18.0675623
20
30.52706
40
2.2140877
50
342.3615931
51
353.7537562
0
ARC
8
front_labelLayer
10
16.9000133
20
30.6677908
40
3.3900417
50
353.5363392
51
0.2014174
0
ARC
8
front_labelLayer
10
17.0789123
20
30.6960977
40
3.2111637
50
359.7075636
51
7.8972673
0
ARC
8
front_labelLayer
10
18.2549295
20
30.8646909
40
2.0231428
50
7.7439786
51
20.0689996
0
ARC
8
front_labelLayer
10
18.9102576
20
31.1051717
40
1.3250851
50
20.0256761
51
37.4350775
0
ARC
8
front_labelLayer
10
19.1276847
20
31.2594551
40
1.0586997
50
37.9577712
51
80.4006084
0
ARC
8
front_labelLayer
10
19.004127
20
30.708158
40
1.623157
50
79.3453106
51
90.3175213
0
ARC
8
front_labelLayer
10
18.9812466
20
30.7997233
40
1.5316298
50
89.4805693
51
103.8804983
0
ARC
8
front_labelLayer
10
18.8525505
20
31.2897982
40
1.0250184
50
103.4685266
51
142.3119154
0
ARC
8
front_labelLayer
10
19.1027498
20
31.1138401
40
1.3306588
50
142.9025932
51
162.3749367
0
ARC
8
front_labelLayer
10
19.8911126
20
30.8511197
40
2.1615944
50
162.0652884
51
173.1674814
0
ARC
8
front_labelLayer
10
21.1203679
20
30.6943337
40
3.4007851
50
173.0085891
51
180.2464113
0
LINE
8
front_labelLayer
10
25.6363525
20
28.5512608
11
24.9927783
21
28.5512608
0
LINE
8
front_labelLayer
10
24.9927783
20
28.5512608
11
24.9927783
21
31.3000206
0
LINE
8
front_labelLayer
10
22.7286377
20
30.7805089
11
22.7286377
21
28.5512608
0
LINE
8
front_labelLayer
10
22.7286377
20
28.5512608
11
22.0850635
21
28.5512608
0
LINE
8
front_labelLayer
10
22.0850635
20
28.5512608
11
22.0850635
21
32.8004014
0
LINE
8
front_labelLayer
10
22.0850635
20
32.8004014
11
22.6084521
21
32.8004014
0
LINE
8
front_labelLayer
10
22.6084521
20
32.8004014
11
22.7131299
21
32.2188585
0
LINE
8
front_labelLayer
10
22.7131299
20
32.2188585
11
22.7441455
21
32.2188585
0
LINE
8
front_labelLayer
10
25.6363525
20
31.3232823
11
25.6363525
21
28.5512608
0
ARC
8
front_labelLayer
10
23.1736072
20
31.3104549
40
1.819201
50
359.6713702
51
8.6877889
0
ARC
8
front_labelLayer
10
23.847847
20
31.4173877
40
1.1365517
50
8.4931021
51
22.6580261
0
ARC
8
front_labelLayer
10
24.1904106
20
31.5597472
40
0.7655861
50
22.7024459
51
42.3419951
0
ARC
8
front_labelLayer
10
24.2289169
20
31.5770695
40
0.7255761
50
43.3790767
51
71.5386528
0
ARC
8
front_labelLayer
10
24.0849226
20
31.174713
40
1.1528608
50
71.0828184
51
84.369151
0
ARC
8
front_labelLayer
10
24.0202827
20
30.6251002
40
1.7061957
50
84.0198818
51
90.151
0
ARC
8
front_labelLayer
10
24.0019605
20
30.3835379
40
1.9478013
50
89.5933084
51
100.3717972
0
ARC
8
front_labelLayer
10
23.8643116
20
31.1057363
40
1.2126338
50
100.1176528
51
118.1602297
0
ARC
8
front_labelLayer
10
23.725594
20
31.3777507
40
0.9073714
50
118.5439273
51
139.1926943
0
ARC
8
front_labelLayer
10
23.8465502
20
31.2965877
40
1.0521134
50
140.1519431
51
160.3146164
0
ARC
8
front_labelLayer
10
24.5769231
20
31.0230194
40
1.8319901
50
159.9533786
51
171.3801644
0
ARC
8
front_labelLayer
10
25.770053
20
30.8312272
40
3.0404076
50
171.1765965
51
178.3217727
0
ARC
8
front_labelLayer
10
26.851891
20
30.7822053
40
4.1232537
50
178.0811297
51
180.0235738
0
ARC
8
front_labelLayer
10
23.8450772
20
31.521602
40
1.3031566
50
116.9442875
51
147.6525659
0
ARC
8
front_labelLayer
10
23.980775
20
31.2946278
40
1.5670849
50
115.8073582
51
117.6068097
0
ARC
8
front_labelLayer
10
24.0500638
20
31.1330451
40
1.7427346
50
94.3226763
51
115.5454471
0
ARC
8
front_labelLayer
10
24.0917761
20
30.7706658
40
2.1072753
50
89.9578818
51
94.710943
0
ARC
8
front_labelLayer
10
24.1090165
20
30.3370573
40
2.5409317
50
80.5585031
51
90.3538287
0
ARC
8
front_labelLayer
10
24.2678103
20
31.2568395
40
1.607571
50
65.1094195
51
80.7638397
0
ARC
8
front_labelLayer
10
24.4534308
20
31.6679829
40
1.1565016
50
46.5584786
51
64.8782536
0
ARC
8
front_labelLayer
10
24.468288
20
31.7108123
40
1.1153441
50
19.3848707
51
45.5997255
0
ARC
8
front_labelLayer
10
23.8230318
20
31.4686997
40
1.804437
50
6.9633413
51
19.8363691
0
ARC
8
front_labelLayer
10
22.8278106
20
31.334891
40
2.8085659
50
359.7631783
51
7.2115493
0
LINE
8
front_labelLayer
10
28.9123779
20
29.0824034
11
28.9123779
21
28.5900303
0
LINE
8
front_labelLayer
10
27.004917
20
29.772501
11
27.004917
21
32.3002745
0
LINE
8
front_labelLayer
10
27.004917
20
32.3002745
11
26.3962353
21
32.3002745
0
LINE
8
front_labelLayer
10
26.3962353
20
32.3002745
11
26.3962353
21
32.6104307
0
LINE
8
front_labelLayer
10
26.3962353
20
32.6104307
11
27.004917
21
32.8779405
0
LINE
8
front_labelLayer
10
27.004917
20
32.8779405
11
27.2763037
21
33.7851475
0
LINE
8
front_labelLayer
10
27.2763037
20
33.7851475
11
27.6484912
21
33.7851475
0
LINE
8
front_labelLayer
10
27.6484912
20
33.7851475
11
27.6484912
21
32.8004014
0
LINE
8
front_labelLayer
10
27.6484912
20
32.8004014
11
28.8813623
21
32.8004014
0
LINE
8
front_labelLayer
10
28.8813623
20
32.8004014
11
28.8813623
21
32.3002745
0
LINE
8
front_labelLayer
10
28.8813623
20
32.3002745
11
27.6484912
21
32.3002745
0
LINE
8
front_labelLayer
10
27.6484912
20
32.3002745
11
27.6484912
21
29.7996397
0
ARC
8
front_labelLayer
10
28.3352473
20
31.118464
40
2.1136043
50
269.8803892
51
278.3027929
0
ARC
8
front_labelLayer
10
28.3553238
20
30.9543327
40
1.9482979
50
278.4155802
51
279.008076
0
ARC
8
front_labelLayer
10
28.1181731
20
32.4693168
40
3.4817295
50
278.9590226
51
280.5103547
0
ARC
8
front_labelLayer
10
28.3441824
20
31.2565717
40
2.248105
50
280.4849544
51
282.6268172
0
ARC
8
front_labelLayer
10
28.5424405
20
30.3757676
40
1.3452647
50
282.5876633
51
285.5794724
0
ARC
8
front_labelLayer
10
28.6412851
20
30.0121226
40
0.9684364
50
285.7245946
51
286.2559307
0
ARC
8
front_labelLayer
10
28.641794
20
29.1623313
40
0.6330434
50
287.9890204
51
295.3047835
0
ARC
8
front_labelLayer
10
28.4891258
20
29.624234
40
1.1195184
50
283.3068336
51
288.1197116
0
ARC
8
front_labelLayer
10
28.3278707
20
30.2968453
40
1.8111878
50
280.0068192
51
283.3736918
0
ARC
8
front_labelLayer
10
28.2195521
20
30.8848373
40
2.409061
50
279.1866154
51
280.1137987
0
ARC
8
front_labelLayer
10
28.1536665
20
31.2595046
40
2.7894463
50
275.5260609
51
279.293932
0
ARC
8
front_labelLayer
10
28.2283199
20
30.4797551
40
2.0061318
50
270.8932274
51
275.5484034
0
ARC
8
front_labelLayer
10
28.2376822
20
30.1247532
40
1.6510316
50
270.0036727
51
270.7604166
0
ARC
8
front_labelLayer
10
28.2118179
20
30.15444
40
1.6809188
50
253.7847684
51
270.8852554
0
ARC
8
front_labelLayer
10
28.0126733
20
29.4752842
40
0.9731713
50
190.3817662
51
253.8772455
0
ARC
8
front_labelLayer
10
29.0277045
20
29.7497314
40
2.0229156
50
179.3550723
51
192.847773
0
ARC
8
front_labelLayer
10
28.9444033
20
29.7915335
40
1.2959374
50
179.6416079
51
189.7506015
0
ARC
8
front_labelLayer
10
28.4869206
20
29.7099357
40
0.8312492
50
189.5479628
51
205.7873068
0
ARC
8
front_labelLayer
10
28.2989096
20
29.6232392
40
0.6242566
50
206.1294653
51
221.4083395
0
ARC
8
front_labelLayer
10
28.277825
20
29.6072405
40
0.5978641
50
221.5948838
51
262.3505622
0
ARC
8
front_labelLayer
10
28.3279639
20
29.86507
40
0.8602106
50
261.3265893
51
270.1912295
0
LINE
8
left_outsideCutPath
10
44.7
20
60.1
11
44.7
21
45.8
0
LINE
8
left_outsideCutPath
10
44.7
20
45.8
11
42.7
21
45.8
0
LINE
8
left_outsideCutPath
10
42.7
20
45.8
11
42.7
21
36.3
0
LINE
8
left_outsideCutPath
10
42.7
20
36.3
11
44.7
21
36.3
0
LINE
8
left_outsideCutPath
10
44.7
20
36.3
11
44.7
21
26.8
0
LINE
8
left_outsideCutPath
10
44.7
20
26.8
11
42.7
21
26.8
0
LINE
8
left_outsideCutPath
10
42.7
20
26.8
11
42.7
21
17.3
0
LINE
8
left_outsideCutPath
10
42.7
20
17.3
11
44.7
21
17.3
0
LINE
8
left_outsideCutPath
10
44.7
20
17.3
11
44.7
21
7.8
0
LINE
8
left_outsideCutPath
10
44.7
20
7.8
11
44.7
21
3
0
LINE
8
left_outsideCutPath
10
44.7
20
3
11
57.61
21
3
0
LINE
8
left_outsideCutPath
10
57.61
20
3
11
57.61
21
5
0
LINE
8
left_outsideCutPath
10
57.61
20
5
11
67.11
21
5
0
LINE
8
left_outsideCutPath
10
67.11
20
5
11
67.11
21
3
0
LINE
8
left_outsideCutPath
10
67.11
20
3
11
76.61
21
3
0
LINE
8
left_outsideCutPath
10
76.61
20
3
11
80.02
21
3
0
LINE
8
left_outsideCutPath
10
80.02
20
3
11
80.02
21
17.3
0
LINE
8
left_outsideCutPath
10
80.02
20
17.3
11
82.02
21
17.3
0
LINE
8
left_outsideCutPath
10
82.02
20
17.3
11
82.02
21
26.8
0
LINE
8
left_outsideCutPath
10
82.02
20
26.8
11
80.02
21
26.8
0
LINE
8
left_outsideCutPath
10
80.02
20
26.8
11
80.02
21
36.3
0
LINE
8
left_outsideCutPath
10
80.02
20
36.3
11
82.02
21
36.3
0
LINE
8
left_outsideCutPath
10
82.02
20
36.3
11
82.02
21
45.8
0
LINE
8
left_outsideCutPath
10
82.02
20
45.8
11
80.02
21
45.8
0
LINE
8
left_outsideCutPath
10
80.02
20
45.8
11
80.02
21
55.3
0
LINE
8
left_outsideCutPath
10
80.02
20
55.3
11
80.02
21
60.1
0
LINE
8
left_outsideCutPath
10
80.02
20
60.1
11
67.11
21
60.1
0
LINE
8
left_outsideCutPath
10
67.11
20
60.1
11
67.11
21
58.1
0
LINE
8
left_outsideCutPath
10
67.11
20
58.1
11
57.61
21
58.1
0
LINE
8
left_outsideCutPath
10
57.61
20
58.1
11
57.61
21
60.1
0
LINE
8
left_outsideCutPath
10
57.61
20
60.1
11
48.11
21
60.1
0
LINE
8
left_outsideCutPath
10
48.11
20
60.1
11
44.7
21
60.1
0
LINE
8
left_labelLayer
10
57.4968379
20
34.554761
11
57.4968379
21
28.5799641
0
LINE
8
left_labelLayer
10
57.4968379
20
28.5799641
11
56.8594238
21
28.5799641
0
LINE
8
left_labelLayer
10
56.8594238
20
28.5799641
11
56.8594238
21
34.554761
0
LINE
8
left_labelLayer
10
56.8594238
20
34.554761
11
57.4968379
21
34.554761
0
LINE
8
left_labelLayer
10
62.1737676
20
30.9721867
11
62.1737676
21
30.5690031
0
LINE
8
left_labelLayer
10
62.1737676
20
30.5690031
11
59.2746855
21
30.5690031
0
LINE
8
left_labelLayer
10
61.9932949
20
29.344093
11
61.9932949
21
28.7757961
0
LINE
8
left_labelLayer
10
59.2900449
20
31.0873821
11
61.4902754
21
31.0873821
0
ARC
8
left_labelLayer
10
60.6053525
20
30.9800451
40
2.4769665
50
256.008803
51
270.4847944
0
ARC
8
left_labelLayer
10
60.42498
20
30.2798004
40
1.7538962
50
223.546576
51
256.1957049
0
ARC
8
left_labelLayer
10
60.5244806
20
30.3521192
40
1.8759087
50
194.0877041
51
223.0538319
0
ARC
8
left_labelLayer
10
61.4362009
20
30.6014408
40
2.8209652
50
181.3574481
51
194.4919732
0
ARC
8
left_labelLayer
10
62.2551495
20
30.6489163
40
3.6409169
50
179.9886143
51
181.7990477
0
ARC
8
left_labelLayer
10
61.9612046
20
30.6720909
40
3.3470475
50
168.9539109
51
180.384327
0
ARC
8
left_labelLayer
10
60.8680714
20
30.8946732
40
2.2315383
50
149.4070902
51
169.1853962
0
ARC
8
left_labelLayer
10
60.5635087
20
31.0555913
40
1.8875442
50
140.1056097
51
148.9067359
0
ARC
8
left_labelLayer
10
60.3763958
20
31.2281005
40
1.6333896
50
92.4762705
51
140.5386307
0
ARC
8
left_labelLayer
10
60.4597743
20
30.6119333
40
2.2532969
50
89.9638168
51
93.917622
0
ARC
8
left_labelLayer
10
60.4796686
20
30.9233556
40
1.941962
50
74.2126158
51
90.5449873
0
ARC
8
left_labelLayer
10
60.6013008
20
31.3715024
40
1.4776359
50
41.2064565
51
74.0232898
0
ARC
8
left_labelLayer
10
60.3709545
20
31.1721542
40
1.7822611
50
11.5994353
51
41.1496074
0
ARC
8
left_labelLayer
10
59.5794969
20
30.9896283
40
2.5943295
50
359.6148011
51
12.0336581
0
ARC
8
left_labelLayer
10
61.8325178
20
30.6201132
40
2.5583428
50
181.1447191
51
190.8007282
0
ARC
8
left_labelLayer
10
60.9299658
20
30.4421044
40
1.638432
50
190.6006059
51
206.027537
0
ARC
8
left_labelLayer
10
60.5306399
20
30.2533197
40
1.1967784
50
206.2950009
51
222.5558081
0
ARC
8
left_labelLayer
10
60.4952586
20
30.2347951
40
1.1582332
50
223.0645
51
258.1401356
0
ARC
8
left_labelLayer
10
60.6361208
20
30.8148088
40
1.7549143
50
257.5311734
51
270.4319074
0
ARC
8
left_labelLayer
10
60.6376917
20
32.4264621
40
3.3665377
50
270.1984078
51
292.2090314
0
ARC
8
left_labelLayer
10
60.476056
20
32.8906829
40
3.857501
50
291.8254456
51
293.1613453
0
ARC
8
left_labelLayer
10
60.4683051
20
32.2853413
40
3.8265522
50
287.9022577
51
293.486215
0
ARC
8
left_labelLayer
10
60.7458685
20
31.4289463
40
2.9263005
50
281.9936021
51
287.8851534
0
ARC
8
left_labelLayer
10
60.8131432
20
31.1871632
40
2.6758606
50
275.9054506
51
281.6603643
0
ARC
8
left_labelLayer
10
60.6784744
20
32.4441279
40
3.9400132
50
271.9119284
51
275.9727594
0
ARC
8
left_labelLayer
10
60.6293143
20
33.6960074
40
5.1928411
50
269.9668577
51
271.9932011
0
ARC
8
left_labelLayer
10
60.4412853
20
31.0750598
40
1.2564912
50
89.4422031
51
106.2089375
0
ARC
8
left_labelLayer
10
60.3656937
20
31.3506797
40
0.970736
50
106.4656842
51
137.9176645
0
ARC
8
left_labelLayer
10
60.5824162
20
31.1603599
40
1.2591418
50
138.0994472
51
160.5866521
0
ARC
8
left_labelLayer
10
61.1395183
20
30.9554123
40
1.8527086
50
160.3353738
51
172.5314818
0
ARC
8
left_labelLayer
10
61.6878192
20
30.8675513
40
2.4078304
50
172.1543983
51
174.7617008
0
ARC
8
left_labelLayer
10
59.3182156
20
31.0997209
40
2.1720949
50
359.6745224
51
8.9223967
0
ARC
8
left_labelLayer
10
60.0943566
20
31.2261779
40
1.3857399
50
8.7342693
51
23.2771571
0
ARC
8
left_labelLayer
10
60.4628322
20
31.3808548
40
0.986138
50
23.482087
51
39.7072802
0
ARC
8
left_labelLayer
10
60.553332
20
31.4485788
40
0.873267
50
40.0823092
51
80.6243108
0
ARC
8
left_labelLayer
10
60.460171
20
31.0215301
40
1.3099783
50
79.646844
51
90.2910087
0
LINE
8
left_labelLayer
10
65.1573262
20
32.7884328
11
65.1573262
21
32.293093
0
LINE
8
left_labelLayer
10
65.1573262
20
32.293093
11
64.0860098
21
32.293093
0
LINE
8
left_labelLayer
10
64.0860098
20
32.293093
11
64.0860098
21
28.5799641
0
LINE
8
left_labelLayer
10
64.0860098
20
28.5799641
11
63.4485957
21
28.5799641
0
LINE
8
left_labelLayer
10
63.4485957
20
28.5799641
11
63.4485957
21
32.293093
0
LINE
8
left_labelLayer
10
63.4485957
20
32.293093
11
62.6959863
21
32.293093
0
LINE
8
left_labelLayer
10
62.6959863
20
32.293093
11
62.6959863
21
32.5810813
0
LINE
8
left_labelLayer
10
62.6959863
20
32.5810813
11
63.4485957
21
32.8114719
0
LINE
8
left_labelLayer
10
63.4485957
20
32.8114719
11
63.4485957
21
33.0457024
0
LINE
8
left_labelLayer
10
65.5873887
20
34.4626047
11
65.4222754
21
33.9519055
0
LINE
8
left_labelLayer
10
64.0860098
20
33.0610617
11
64.0860098
21
32.7884328
0
LINE
8
left_labelLayer
10
64.0860098
20
32.7884328
11
65.1573262
21
32.7884328
0
ARC
8
left_labelLayer
10
66.0318168
20
33.0753996
40
2.5833918
50
167.5776023
51
180.6586545
0
ARC
8
left_labelLayer
10
64.8170168
20
33.358621
40
1.3361939
50
141.7433716
51
168.2322391
0
ARC
8
left_labelLayer
10
64.6192253
20
33.4618539
40
1.117726
50
98.2551319
51
139.6203541
0
ARC
8
left_labelLayer
10
64.7928912
20
32.65959
40
1.9374415
50
89.6696893
51
99.9314583
0
ARC
8
left_labelLayer
10
64.7933772
20
32.5444144
40
2.0526126
50
81.5641018
51
89.7017879
0
ARC
8
left_labelLayer
10
64.6490732
20
31.537674
40
3.0696344
50
75.973976
51
81.6564754
0
ARC
8
left_labelLayer
10
64.4014559
20
30.5106117
40
4.1260979
50
73.2963018
51
76.0946014
0
ARC
8
left_labelLayer
10
64.4638187
20
31.0088482
40
3.0951939
50
71.9612782
51
76.5918778
0
ARC
8
left_labelLayer
10
64.7039289
20
32.0274203
40
2.0487085
50
76.5184138
51
83.0216509
0
ARC
8
left_labelLayer
10
64.7875829
20
32.7001462
40
1.3708033
50
83.0760701
51
89.7927659
0
ARC
8
left_labelLayer
10
64.784829
20
33.2113475
40
0.8596278
50
89.485973
51
103.4197071
0
ARC
8
left_labelLayer
10
64.707327
20
33.5091042
40
0.5520499
50
102.7677198
51
144.3380226
0
ARC
8
left_labelLayer
10
64.8634605
20
33.4086472
40
0.7375303
50
145.0688991
51
162.1801995
0
ARC
8
left_labelLayer
10
65.3987945
20
33.2285342
40
1.3023225
50
161.8437825
51
171.7846433
0
ARC
8
left_labelLayer
10
66.2719276
20
33.0973943
40
2.1852403
50
171.6527995
51
178.4383167
0
ARC
8
left_labelLayer
10
67.0954178
20
33.0622848
40
3.0094081
50
178.1974036
51
180.0232862
0
LINE
8
left_labelLayer
10
67.8605762
20
29.1060227
11
67.8605762
21
28.6183625
0
LINE
8
left_labelLayer
10
65.971373
20
29.7895149
11
65.971373
21
32.293093
0
LINE
8
left_labelLayer
10
65.971373
20
32.293093
11
65.3685176
21
32.293093
0
LINE
8
left_labelLayer
10
65.3685176
20
32.293093
11
65.3685176
21
32.6002805
0
LINE
8
left_labelLayer
10
65.3685176
20
32.6002805
11
65.971373
21
32.8652297
0
LINE
8
left_labelLayer
10
65.971373
20
32.8652297
11
66.2401621
21
33.7637531
0
LINE
8
left_labelLayer
10
66.2401621
20
33.7637531
11
66.6087871
21
33.7637531
0
LINE
8
left_labelLayer
10
66.6087871
20
33.7637531
11
66.6087871
21
32.7884328
0
LINE
8
left_labelLayer
10
66.6087871
20
32.7884328
11
67.8298574
21
32.7884328
0
LINE
8
left_labelLayer
10
67.8298574
20
32.7884328
11
67.8298574
21
32.293093
0
LINE
8
left_labelLayer
10
67.8298574
20
32.293093
11
66.6087871
21
32.293093
0
LINE
8
left_labelLayer
10
66.6087871
20
32.293093
11
66.6087871
21
29.8163938
0
ARC
8
left_labelLayer
10
67.2889695
20
31.1225988
40
2.0933775
50
269.8803951
51
278.3027819
0
ARC
8
left_labelLayer
10
67.3092655
20
30.9573454
40
1.926929
50
278.4151796
51
279.0085117
0
ARC
8
left_labelLayer
10
67.0740682
20
32.4599323
40
3.4478105
50
278.9589786
51
280.5105774
0
ARC
8
left_labelLayer
10
67.2979062
20
31.2589659
40
2.2261632
50
280.484697
51
282.6269672
0
ARC
8
left_labelLayer
10
67.4942326
20
30.3867944
40
1.332169
50
282.5874349
51
285.5797363
0
ARC
8
left_labelLayer
10
67.5925107
20
30.025307
40
0.9575712
50
285.724586
51
286.2568074
0
ARC
8
left_labelLayer
10
67.5925953
20
29.1851529
40
0.626949
50
287.9888109
51
295.3049834
0
ARC
8
left_labelLayer
10
67.4413684
20
29.642685
40
1.1088219
50
283.3069648
51
288.1197593
0
ARC
8
left_labelLayer
10
67.2816237
20
30.3090357
40
1.794051
50
280.0069933
51
283.3734914
0
ARC
8
left_labelLayer
10
67.1748455
20
30.8884875
40
2.3832463
50
279.1860417
51
280.1142971
0
ARC
8
left_labelLayer
10
67.1091337
20
31.2622542
40
2.7627147
50
275.5259837
51
279.2938977
0
ARC
8
left_labelLayer
10
67.1830682
20
30.4899513
40
1.9868816
50
270.893178
51
275.5484664
0
ARC
8
left_labelLayer
10
67.1923535
20
30.1362692
40
1.6331021
50
270.0031538
51
270.760883
0
ARC
8
left_labelLayer
10
67.1667211
20
30.1677945
40
1.664826
50
253.7847569
51
270.8852794
0
ARC
8
left_labelLayer
10
66.9694834
20
29.4951429
40
0.9638562
50
190.3817634
51
253.8772424
0
ARC
8
left_labelLayer
10
67.9747984
20
29.7669638
40
2.0035524
50
179.3550921
51
192.8477951
0
ARC
8
left_labelLayer
10
67.8923106
20
29.8083673
40
1.2835486
50
179.6417067
51
189.7505766
0
ARC
8
left_labelLayer
10
67.4391886
20
29.7275473
40
0.8232899
50
189.5479198
51
205.7873196
0
ARC
8
left_labelLayer
10
67.2529738
20
29.6416778
40
0.6182742
50
206.1293842
51
221.4084358
0
ARC
8
left_labelLayer
10
67.2320972
20
29.6258361
40
0.5921415
50
221.5948719
51
262.3505528
0
ARC
8
left_labelLayer
10
67.2817549
20
29.8811898
40
0.8519688
50
261.3265848
51
270.1913079
0
LINE
8
top_outsideCutPath
10
87.02
20
40.32
11
87.02
21
27.41
0
LINE
8
top_outsideCutPath
10
87.02
20
27.41
11
85.02
21
27.41
0
LINE
8
top_outsideCutPath
10
85.02
20
27.41
11
85.02
21
17.91
0
LINE
8
top_outsideCutPath
10
85.02
20
17.91
11
87.02
21
17.91
0
LINE
8
top_outsideCutPath
10
87.02
20
17.91
11
87.02
21
8.41
0
LINE
8
top_outsideCutPath
10
87.02
20
8.41
11
87.02
21
5
0
LINE
8
top_outsideCutPath
10
87.02
20
5
11
90.62
21
5
0
LINE
8
top_outsideCutPath
10
90.62
20
5
11
90.62
21
3
0
LINE
8
top_outsideCutPath
10
90.62
20
3
11
100.12
21
3
0
LINE
8
top_outsideCutPath
10
100.12
20
3
11
100.12
21
5
0
LINE
8
top_outsideCutPath
10
100.12
20
5
11
109.62
21
5
0
LINE
8
top_outsideCutPath
10
109.62
20
5
11
109.62
21
3
0
LINE
8
top_outsideCutPath
10
109.62
20
3
11
119.12
21
3
0
LINE
8
top_outsideCutPath
10
119.12
20
3
11
119.12
21
5
0
LINE
8
top_outsideCutPath
10
119.12
20
5
11
122.72
21
5
0
LINE
8
top_outsideCutPath
10
122.72
20
5
11
122.72
21
17.91
0
LINE
8
top_outsideCutPath
10
122.72
20
17.91
11
124.72
21
17.91
0
LINE
8
top_outsideCutPath
10
124.72
20
17.91
11
124.72
21
27.41
0
LINE
8
top_outsideCutPath
10
124.72
20
27.41
11
122.72
21
27.41
0
LINE
8
top_outsideCutPath
10
122.72
20
27.41
11
122.72
21
36.91
0
LINE
8
top_outsideCutPath
10
122.72
20
36.91
11
122.72
21
40.32
0
LINE
8
top_outsideCutPath
10
122.72
20
40.32
11
119.12
21
40.32
0
LINE
8
top_outsideCutPath
10
119.12
20
40.32
11
119.12
21
42.32
0
LINE
8
top_outsideCutPath
10
119.12
20
42.32
11
109.62
21
42.32
0
LINE
8
top_outsideCutPath
10
109.62
20
42.32
11
109.62
21
40.32
0
LINE
8
top_outsideCutPath
10
109.62
20
40.32
11
100.12
21
40.32
0
LINE
8
top_outsideCutPath
10
100.12
20
40.32
11
100.12
21
42.32
0
LINE
8
top_outsideCutPath
10
100.12
20
42.32
11
90.62
21
42.32
0
LINE
8
top_outsideCutPath
10
90.62
20
42.32
11
90.62
21
40.32
0
LINE
8
top_outsideCutPath
10
90.62
20
40.32
11
87.02
21
40.32
0
LINE
8
top_labelLayer
10
101.4678659
20
21.5387656
11
101.4678659
21
21.0511055
0
LINE
8
top_labelLayer
10
99.5786628
20
22.2222578
11
99.5786628
21
24.7258359
0
LINE
8
top_labelLayer
10
99.5786628
20
24.7258359
11
98.9758073
21
24.7258359
0
LINE
8
top_labelLayer
10
98.9758073
20
24.7258359
11
98.9758073
21
25.0330234
0
LINE
8
top_labelLayer
10
98.9758073
20
25.0330234
11
99.5786628
21
25.2979727
0
LINE
8
top_labelLayer
10
99.5786628
20
25.2979727
11
99.8474519
21
26.1964961
0
LINE
8
top_labelLayer
10
99.8474519
20
26.1964961
11
100.2160769
21
26.1964961
0
LINE
8
top_labelLayer
10
100.2160769
20
26.1964961
11
100.2160769
21
25.2211758
0
LINE
8
top_labelLayer
10
100.2160769
20
25.2211758
11
101.4371472
21
25.2211758
0
LINE
8
top_labelLayer
10
101.4371472
20
25.2211758
11
101.4371472
21
24.7258359
0
LINE
8
top_labelLayer
10
101.4371472
20
24.7258359
11
100.2160769
21
24.7258359
0
LINE
8
top_labelLayer
10
100.2160769
20
24.7258359
11
100.2160769
21
22.2491367
0
ARC
8
top_labelLayer
10
100.8962593
20
23.5553417
40
2.0933775
50
269.8803951
51
278.3027819
0
ARC
8
top_labelLayer
10
100.9165552
20
23.3900883
40
1.926929
50
278.4151796
51
279.0085117
0
ARC
8
top_labelLayer
10
100.6813579
20
24.8926752
40
3.4478105
50
278.9589786
51
280.5105774
0
ARC
8
top_labelLayer
10
100.9051959
20
23.6917088
40
2.2261632
50
280.484697
51
282.6269672
0
ARC
8
top_labelLayer
10
101.1015224
20
22.8195373
40
1.332169
50
282.5874349
51
285.5797363
0
ARC
8
top_labelLayer
10
101.1998005
20
22.45805
40
0.9575712
50
285.724586
51
286.2568074
0
ARC
8
top_labelLayer
10
101.199885
20
21.6178958
40
0.626949
50
287.9888109
51
295.3049834
0
ARC
8
top_labelLayer
10
101.0486582
20
22.075428
40
1.1088219
50
283.3069648
51
288.1197593
0
ARC
8
top_labelLayer
10
100.8889134
20
22.7417787
40
1.794051
50
280.0069933
51
283.3734914
0
ARC
8
top_labelLayer
10
100.7821352
20
23.3212305
40
2.3832463
50
279.1860417
51
280.1142971
0
ARC
8
top_labelLayer
10
100.7164235
20
23.6949972
40
2.7627147
50
275.5259837
51
279.2938977
0
ARC
8
top_labelLayer
10
100.790358
20
22.9226942
40
1.9868816
50
270.893178
51
275.5484664
0
ARC
8
top_labelLayer
10
100.7996432
20
22.5690122
40
1.6331021
50
270.0031538
51
270.760883
0
ARC
8
top_labelLayer
10
100.7740108
20
22.6005375
40
1.664826
50
253.7847569
51
270.8852794
0
ARC
8
top_labelLayer
10
100.5767731
20
21.9278859
40
0.9638562
50
190.3817634
51
253.8772424
0
ARC
8
top_labelLayer
10
101.5820882
20
22.1997068
40
2.0035524
50
179.3550921
51
192.8477951
0
ARC
8
top_labelLayer
10
101.4996003
20
22.2411102
40
1.2835486
50
179.6417067
51
189.7505766
0
ARC
8
top_labelLayer
10
101.0464784
20
22.1602903
40
0.8232899
50
189.5479198
51
205.7873196
0
ARC
8
top_labelLayer
10
100.8602636
20
22.0744208
40
0.6182742
50
206.1293842
51
221.4084358
0
ARC
8
top_labelLayer
10
100.8393869
20
22.0585791
40
0.5921415
50
221.5948719
51
262.3505528
0
ARC
8
top_labelLayer
10
100.8890447
20
22.3139328
40
0.8519688
50
261.3265848
51
270.1913079
0
ARC
8
top_labelLayer
10
102.6488586
20
23.0985837
40
3.2925001
50
349.1761948
51
0.3862826
0
ARC
8
top_labelLayer
10
103.7573611
20
22.8776014
40
2.1622386
50
330.2507254
51
349.4116545
0
ARC
8
top_labelLayer
10
104.0985135
20
22.700283
40
1.7781279
50
318.1439419
51
329.7566546
0
ARC
8
top_labelLayer
10
104.160077
20
22.6509458
40
1.6993587
50
278.895911
51
317.9979013
0
ARC
8
top_labelLayer
10
104.0014308
20
23.4110409
40
2.4751541
50
269.7502861
51
279.8032925
0
ARC
8
top_labelLayer
10
103.9757014
20
22.9827711
40
2.0469155
50
253.5436954
51
270.4182464
0
ARC
8
top_labelLayer
10
103.9075593
20
22.7191881
40
1.7748507
50
238.8115225
51
253.2428845
0
ARC
8
top_labelLayer
10
103.8855734
20
22.6749746
40
1.7256468
50
207.7947026
51
238.6757933
0
ARC
8
top_labelLayer
10
104.2012574
20
22.8683008
40
2.0951928
50
205.6560939
51
208.4459981
0
ARC
8
top_labelLayer
10
104.4441671
20
22.9695015
40
2.3580118
50
188.9102434
51
205.3171528
0
ARC
8
top_labelLayer
10
105.2632724
20
23.1082309
40
3.1887359
50
179.7744931
51
189.0932767
0
ARC
8
top_labelLayer
10
105.3840974
20
23.1431969
40
3.3096121
50
169.2443078
51
180.3880609
0
ARC
8
top_labelLayer
10
104.2601774
20
23.3653535
40
2.1639948
50
150.7111582
51
169.469518
0
ARC
8
top_labelLayer
10
103.9013806
20
23.5496092
40
1.7609872
50
138.17592
51
150.2287528
0
ARC
8
top_labelLayer
10
103.8417031
20
23.5954049
40
1.6859866
50
99.1759319
51
137.9832695
0
ARC
8
top_labelLayer
10
104.0059698
20
22.8223476
40
2.475652
50
89.7326351
51
100.0759806
0
ARC
8
top_labelLayer
10
104.0388011
20
23.1562046
40
2.1418738
50
73.5222819
51
90.5692263
0
ARC
8
top_labelLayer
10
104.16441
20
23.6125741
40
1.6686435
50
41.14456
51
73.2134002
0
ARC
8
top_labelLayer
10
103.924633
20
23.4064887
40
1.9848058
50
13.5014448
51
41.0703442
0
ARC
8
top_labelLayer
10
102.9982624
20
23.1640694
40
2.9422369
50
1.1277344
51
13.8800174
0
ARC
8
top_labelLayer
10
102.2007518
20
23.1213174
40
3.7405321
50
359.9917878
51
1.5420409
0
ARC
8
top_labelLayer
10
105.9628029
20
23.104215
40
3.2278311
50
179.7059384
51
187.916108
0
ARC
8
top_labelLayer
10
104.778958
20
22.9341559
40
2.0318534
50
187.7639495
51
200.0976513
0
ARC
8
top_labelLayer
10
104.1267585
20
22.6951909
40
1.337254
50
200.0846095
51
216.9131444
0
ARC
8
top_labelLayer
10
103.8885981
20
22.5251336
40
1.0447205
50
217.3009584
51
261.7099215
0
ARC
8
top_labelLayer
10
103.9991582
20
23.0527172
40
1.5830834
50
260.5033425
51
270.2477173
0
ARC
8
top_labelLayer
10
104.020262
20
22.9501307
40
1.4805509
50
269.4481672
51
284.7255549
0
ARC
8
top_labelLayer
10
104.1374682
20
22.5154485
40
1.0303575
50
284.5662468
51
322.633392
0
ARC
8
top_labelLayer
10
103.8634273
20
22.7134297
40
1.3683435
50
323.0089777
51
342.6389916
0
ARC
8
top_labelLayer
10
103.0796239
20
22.9695966
40
2.1929032
50
342.3616003
51
353.7537206
0
ARC
8
top_labelLayer
10
101.9232663
20
23.1089797
40
3.3575853
50
353.5362961
51
0.2013896
0
ARC
8
top_labelLayer
10
102.1004339
20
23.137014
40
3.1804383
50
359.7075656
51
7.8972407
0
ARC
8
top_labelLayer
10
103.2652123
20
23.303994
40
2.003771
50
7.7439904
51
20.0690519
0
ARC
8
top_labelLayer
10
103.9142605
20
23.5421715
40
1.3124026
50
20.0257053
51
37.435093
0
ARC
8
top_labelLayer
10
104.1296072
20
23.6949791
40
1.0485659
50
37.9577738
51
80.4006157
0
ARC
8
top_labelLayer
10
104.00723
20
23.1489372
40
1.6076422
50
79.3453825
51
90.3174446
0
ARC
8
top_labelLayer
10
103.9845714
20
23.2396448
40
1.5169722
50
89.4805976
51
103.8804987
0
ARC
8
top_labelLayer
10
103.8571059
20
23.7250318
40
1.015207
50
103.4684986
51
142.3119014
0
ARC
8
top_labelLayer
10
104.1049089
20
23.5507594
40
1.3179196
50
142.9025961
51
162.3749746
0
ARC
8
top_labelLayer
10
104.8857443
20
23.2905494
40
2.1409208
50
162.0653575
51
173.1674631
0
ARC
8
top_labelLayer
10
106.1032509
20
23.1352654
40
3.3682676
50
173.0086343
51
180.2463829
0
LINE
8
top_labelLayer
10
107.6960925
20
21.554125
11
107.6500144
21
21.554125
0
LINE
8
top_labelLayer
10
107.6960925
20
20.8552734
11
107.6960925
21
19.1235039
0
LINE
8
top_labelLayer
10
107.6960925
20
19.1235039
11
107.0586784
21
19.1235039
0
LINE
8
top_labelLayer
10
107.0586784
20
19.1235039
11
107.0586784
21
25.2211758
0
LINE
8
top_labelLayer
10
107.0586784
20
25.2211758
11
107.5770573
21
25.2211758
0
LINE
8
top_labelLayer
10
107.5770573
20
25.2211758
11
107.6653737
21
24.6451992
0
LINE
8
top_labelLayer
10
107.6653737
20
24.6451992
11
107.6960925
21
24.6451992
0
LINE
8
top_labelLayer
10
107.6960925
20
23.2628555
11
107.6960925
21
23.1207813
0
ARC
8
top_labelLayer
10
109.0062488
20
22.8692938
40
1.9334135
50
255.7755533
51
270.318572
0
ARC
8
top_labelLayer
10
108.9510735
20
22.624157
40
1.6822481
50
245.9801534
51
255.545598
0
ARC
8
top_labelLayer
10
108.8442096
20
22.375643
40
1.4117594
50
215.5850468
51
245.8361432
0
ARC
8
top_labelLayer
10
101.6652942
20
20.797858
40
6.0323142
50
2.9503358
51
7.2020828
0
ARC
8
top_labelLayer
10
102.6412029
20
20.8524618
40
5.0548904
50
0.0318689
51
2.9015838
0
ARC
8
top_labelLayer
10
109.100185
20
23.6591041
40
1.7157679
50
132.3564904
51
144.9196068
0
ARC
8
top_labelLayer
10
108.8373493
20
23.9458493
40
1.3267897
50
115.4006418
51
132.3118033
0
ARC
8
top_labelLayer
10
108.9398733
20
23.6962621
40
1.596292
50
97.7066362
51
114.8821157
0
ARC
8
top_labelLayer
10
109.0114757
20
23.2319024
40
2.0660778
50
89.846836
51
97.9474731
0
ARC
8
top_labelLayer
10
109.0367265
20
23.3442317
40
1.9538406
50
74.1923775
51
90.5785202
0
ARC
8
top_labelLayer
10
109.1719215
20
23.835696
40
1.4441392
50
38.0523344
51
74.0417432
0
ARC
8
top_labelLayer
10
108.7990301
20
23.5498908
40
1.9139427
50
16.3355925
51
37.9090481
0
ARC
8
top_labelLayer
10
107.819423
20
23.2481672
40
2.938901
50
4.5766849
51
16.6088472
0
ARC
8
top_labelLayer
10
106.6134033
20
23.128001
40
4.1507305
50
359.9003399
51
4.9017754
0
ARC
8
top_labelLayer
10
107.0268935
20
23.0987309
40
3.7372992
50
350.6562792
51
0.3380508
0
ARC
8
top_labelLayer
10
108.329774
20
22.8771253
40
2.4157364
50
335.8305776
51
350.8254793
0
ARC
8
top_labelLayer
10
108.9028834
20
22.6297631
40
1.7916101
50
321.3161715
51
335.5435985
0
ARC
8
top_labelLayer
10
109.1219937
20
22.4512231
40
1.5089815
50
274.064023
51
321.4080841
0
ARC
8
top_labelLayer
10
109.0199222
20
23.0977704
40
2.1618621
50
269.9225191
51
275.5481792
0
ARC
8
top_labelLayer
10
108.9117126
20
22.9199688
40
1.8366329
50
89.5903962
51
100.3501727
0
ARC
8
top_labelLayer
10
108.7807457
20
23.6079872
40
1.1362917
50
100.0867656
51
118.1918522
0
ARC
8
top_labelLayer
10
108.6465862
20
23.8696415
40
0.8423141
50
118.5569864
51
141.0243003
0
ARC
8
top_labelLayer
10
108.8510299
20
23.7254323
40
1.0920819
50
141.889118
51
160.5972592
0
ARC
8
top_labelLayer
10
109.5694934
20
23.4618061
40
1.8573466
50
160.2895163
51
171.2453073
0
ARC
8
top_labelLayer
10
110.7508308
20
23.2713379
40
3.0539219
50
171.0868792
51
178.3247564
0
ARC
8
top_labelLayer
10
111.7520405
20
23.2237385
40
4.0561367
50
178.0661234
51
179.447437
0
ARC
8
top_labelLayer
10
111.9106132
20
23.1043259
40
4.2145529
50
179.7762935
51
185.7075188
0
ARC
8
top_labelLayer
10
110.2489759
20
22.9331204
40
2.5441318
50
185.5925176
51
194.2050184
0
ARC
8
top_labelLayer
10
109.1845159
20
22.6568581
40
1.4444413
50
193.9430248
51
208.0218882
0
ARC
8
top_labelLayer
10
108.7538669
20
22.4377754
40
0.9613926
50
208.553703
51
217.5604101
0
ARC
8
top_labelLayer
10
108.7187636
20
22.4231727
40
0.9247161
50
218.1690692
51
253.8046944
0
ARC
8
top_labelLayer
10
108.8902802
20
22.9519759
40
1.4804728
50
253.1382299
51
266.8482922
0
ARC
8
top_labelLayer
10
108.9383788
20
23.5191792
40
2.0495318
50
266.3774866
51
270.0509644
0
ARC
8
top_labelLayer
10
108.9547159
20
22.5435671
40
1.0740167
50
269.2256911
51
292.0430706
0
ARC
8
top_labelLayer
10
108.9692069
20
22.457208
40
0.9887141
50
293.1429787
51
324.1353892
0
ARC
8
top_labelLayer
10
108.7536458
20
22.6396811
40
1.2704949
50
323.1618883
51
325.0151586
0
ARC
8
top_labelLayer
10
108.5233521
20
22.7824517
40
1.541108
50
325.5753905
51
344.1504875
0
ARC
8
top_labelLayer
10
107.7258556
20
23.018199
40
2.3726881
50
343.9336581
51
355.1137443
0
ARC
8
top_labelLayer
10
106.7078341
20
23.1214988
40
3.3958476
50
354.8402206
51
0.1174682
0
ARC
8
top_labelLayer
10
106.8871426
20
23.1446943
40
3.2165728
50
359.7108387
51
7.8610704
0
ARC
8
top_labelLayer
10
108.056689
20
23.3114124
40
2.0352216
50
7.7149395
51
19.8859879
0
ARC
8
top_labelLayer
10
108.6999056
20
23.5437462
40
1.351331
50
19.8991255
51
35.8980368
0
ARC
8
top_labelLayer
10
108.9868088
20
23.7610253
40
0.9915518
50
35.4481657
51
85.2266575
0
ARC
8
top_labelLayer
10
108.9268708
20
23.385127
40
1.3714291
50
84.0379802
51
90.084738
0
LINE
8
back_outsideCutPath
10
0
20
120.2
11
0
21
105.9
0
LINE
8
back_outsideCutPath
10
0
20
105.9
11
2
21
105.9
0
LINE
8
back_outsideCutPath
10
2
20
105.9
11
2
21
96.4
0
LINE
8
back_outsideCutPath
10
2
20
96.4
11
0
21
96.4
0
LINE
8
back_outsideCutPath
10
0
20
96.4
11
0
21
86.9
0
LINE
8
back_outsideCutPath
10
0
20
86.9
11
2
21
86.9
0
LINE
8
back_outsideCutPath
10
2
20
86.9
11
2
21
77.4
0
LINE
8
back_outsideCutPath
10
2
20
77.4
11
0
21
77.4
0
LINE
8
back_outsideCutPath
10
0
20
77.4
11
0
21
67.9
0
LINE
8
back_outsideCutPath
10
0
20
67.9
11
0
21
63.1
0
LINE
8
back_outsideCutPath
10
0
20
63.1
11
5.6
21
63.1
0
LINE
8
back_outsideCutPath
10
5.6
20
63.1
11
5.6
21
65.1
0
LINE
8
back_outsideCutPath
10
5.6
20
65.1
11
15.1
21
65.1
0
LINE
8
back_outsideCutPath
10
15.1
20
65.1
11
15.1
21
63.1
0
LINE
8
back_outsideCutPath
10
15.1
20
63.1
11
24.6
21
63.1
0
LINE
8
back_outsideCutPath
10
24.6
20
63.1
11
24.6
21
65.1
0
LINE
8
back_outsideCutPath
10
24.6
20
65.1
11
34.1
21
65.1
0
LINE
8
back_outsideCutPath
10
34.1
20
65.1
11
34.1
21
63.1
0
LINE
8
back_outsideCutPath
10
34.1
20
63.1
11
39.7
21
63.1
0
LINE
8
back_outsideCutPath
10
39.7
20
63.1
11
39.7
21
77.4
0
LINE
8
back_outsideCutPath
10
39.7
20
77.4
11
37.7
21
77.4
0
LINE
8
back_outsideCutPath
10
37.7
20
77.4
11
37.7
21
86.9
0
LINE
8
back_outsideCutPath
10
37.7
20
86.9
11
39.7
21
86.9
0
LINE
8
back_outsideCutPath
10
39.7
20
86.9
11
39.7
21
96.4
0
LINE
8
back_outsideCutPath
10
39.7
20
96.4
11
37.7
21
96.4
0
LINE
8
back_outsideCutPath
10
37.7
20
96.4
11
37.7
21
105.9
0
LINE
8
back_outsideCutPath
10
37.7
20
105.9
11
39.7
21
105.9
0
LINE
8
back_outsideCutPath
10
39.7
20
105.9
11
39.7
21
115.4
0
LINE
8
back_outsideCutPath
10
39.7
20
115.4
11
39.7
21
120.2
0
LINE
8
back_outsideCutPath
10
39.7
20
120.2
11
34.1
21
120.2
0
LINE
8
back_outsideCutPath
10
34.1
20
120.2
11
34.1
21
118.2
0
LINE
8
back_outsideCutPath
10
34.1
20
118.2
11
24.6
21
118.2
0
LINE
8
back_outsideCutPath
10
24.6
20
118.2
11
24.6
21
120.2
0
LINE
8
back_outsideCutPath
10
24.6
20
120.2
11
15.1
21
120.2
0
LINE
8
back_outsideCutPath
10
15.1
20
120.2
11
15.1
21
118.2
0
LINE
8
back_outsideCutPath
10
15.1
20
118.2
11
5.6
21
118.2
0
LINE
8
back_outsideCutPath
10
5.6
20
118.2
11
5.6
21
120.2
0
LINE
8
back_outsideCutPath
10
5.6
20
120.2
11
0
21
120.2
0
LINE
8
back_labelLayer
10
12.2628027
20
89.2191942
11
12.2162793
21
89.2191942
0
LINE
8
back_labelLayer
10
12.2162793
20
89.2191942
11
12.0805859
21
88.6725438
0
LINE
8
back_labelLayer
10
12.0805859
20
88.6725438
11
11.6192285
21
88.6725438
0
LINE
8
back_labelLayer
10
11.6192285
20
88.6725438
11
11.6192285
21
94.7050829
0
LINE
8
back_labelLayer
10
11.6192285
20
94.7050829
11
12.2628027
21
94.7050829
0
LINE
8
back_labelLayer
10
12.2628027
20
94.7050829
11
12.2628027
21
93.2395946
0
LINE
8
back_labelLayer
10
12.2317871
20
92.3556493
11
12.2628027
21
92.3556493
0
ARC
8
back_labelLayer
10
13.6157816
20
91.0245795
40
1.9669849
50
74.2393385
51
90.5623966
0
ARC
8
back_labelLayer
10
13.7458449
20
91.501723
40
1.4724585
50
38.5631245
51
74.0670391
0
ARC
8
back_labelLayer
10
13.4111324
20
91.2414639
40
1.896424
50
16.4709408
51
38.4075403
0
ARC
8
back_labelLayer
10
12.44688
20
90.9391017
40
2.9068824
50
5.1338492
51
16.7973619
0
ARC
8
back_labelLayer
10
11.2296371
20
90.809794
40
4.1308606
50
359.8779011
51
5.4094057
0
ARC
8
back_labelLayer
10
11.5871231
20
90.7787299
40
3.7734308
50
350.6562778
51
0.3380151
0
ARC
8
back_labelLayer
10
12.9026064
20
90.5549806
40
2.4390848
50
335.8305907
51
350.8254802
0
ARC
8
back_labelLayer
10
13.4812648
20
90.3052228
40
1.8089151
50
321.3161233
51
335.5436257
0
ARC
8
back_labelLayer
10
13.7024851
20
90.124961
40
1.5235633
50
274.063996
51
321.4081003
0
ARC
8
back_labelLayer
10
13.5994224
20
90.7778106
40
2.1828079
50
269.9226255
51
275.5481491
0
ARC
8
back_labelLayer
10
13.5856208
20
90.547067
40
1.9520924
50
255.7755068
51
270.3185707
0
ARC
8
back_labelLayer
10
13.5299173
20
90.2995795
40
1.698519
50
245.9801676
51
255.5455378
0
ARC
8
back_labelLayer
10
13.4220129
20
90.048648
40
1.4253988
50
215.5849934
51
245.8361821
0
ARC
8
back_labelLayer
10
-1.1553241
20
93.228251
40
13.4181316
50
358.1123367
51
0.0484375
0
ARC
8
back_labelLayer
10
2.5792581
20
93.102871
40
9.6814463
50
355.7238784
51
358.1259179
0
ARC
8
back_labelLayer
10
4.1830784
20
92.9930399
40
8.0739073
50
355.4721015
51
355.652485
0
ARC
8
back_labelLayer
10
13.4630409
20
91.5186907
40
1.46324
50
95.1835247
51
145.1108919
0
ARC
8
back_labelLayer
10
13.5916553
20
90.7934118
40
2.1980631
50
89.8743776
51
96.8145216
0
ARC
8
back_labelLayer
10
13.4899541
20
90.644125
40
1.8084983
50
89.573132
51
100.7324187
0
ARC
8
back_labelLayer
10
13.356074
20
91.3205307
40
1.1190069
50
100.4469052
51
119.670053
0
ARC
8
back_labelLayer
10
13.2319279
20
91.5526368
40
0.8559079
50
120.1402682
51
142.4248887
0
ARC
8
back_labelLayer
10
13.4373204
20
91.4167631
40
1.1016885
50
143.33824
51
161.2559619
0
ARC
8
back_labelLayer
10
14.2962277
20
91.1118226
40
2.0130727
50
160.8926294
51
171.2333869
0
ARC
8
back_labelLayer
10
15.7300681
20
90.8805127
40
3.4654304
50
171.0667954
51
177.8456862
0
ARC
8
back_labelLayer
10
17.2210293
20
90.8046766
40
4.9582279
50
177.6176251
51
180.0425895
0
ARC
8
back_labelLayer
10
16.5180574
20
90.7843768
40
4.2552871
50
179.7762947
51
185.7075151
0
ARC
8
back_labelLayer
10
14.8403506
20
90.6115156
40
2.5687116
50
185.5925125
51
194.2050382
0
ARC
8
back_labelLayer
10
13.7656202
20
90.3325874
40
1.4584107
50
193.9430455
51
208.0218136
0
ARC
8
back_labelLayer
10
13.33081
20
90.1113922
40
0.9706964
50
208.5538145
51
217.560403
0
ARC
8
back_labelLayer
10
13.2953564
20
90.0966394
40
0.9336514
50
218.1690409
51
253.8047248
0
ARC
8
back_labelLayer
10
13.4685297
20
90.6305462
40
1.4947723
50
253.1382045
51
266.8483428
0
ARC
8
back_labelLayer
10
13.5170917
20
91.2032199
40
2.0693195
50
266.3775396
51
270.0510518
0
ARC
8
back_labelLayer
10
13.5326634
20
90.4167895
40
1.2829617
50
269.3869162
51
285.8630541
0
ARC
8
back_labelLayer
10
13.6279792
20
90.0723034
40
0.9255443
50
286.0163011
51
326.8497021
0
ARC
8
back_labelLayer
10
13.1679378
20
90.3770637
40
1.4773674
50
326.7104945
51
343.6661874
0
ARC
8
back_labelLayer
10
12.3067804
20
90.6402072
40
2.3777952
50
343.4171049
51
353.6369615
0
ARC
8
back_labelLayer
10
11.0060369
20
90.7945504
40
3.6876427
50
353.4934945
51
0.2205454
0
ARC
8
back_labelLayer
10
10.891381
20
90.824134
40
3.8023025
50
359.7681062
51
6.3095322
0
ARC
8
back_labelLayer
10
12.3236346
20
90.9884933
40
2.3606691
50
6.1648897
51
16.0396559
0
ARC
8
back_labelLayer
10
13.2462691
20
91.2603943
40
1.3988399
50
15.777931
51
32.0151405
0
ARC
8
back_labelLayer
10
13.5340479
20
91.4252037
40
1.0675344
50
32.7032655
51
35.5243281
0
ARC
8
back_labelLayer
10
13.6392025
20
91.499945
40
0.938524
50
35.5408305
51
79.8011162
0
ARC
8
back_labelLayer
10
13.5131693
20
90.9641579
40
1.4884471
50
78.6780934
51
90.3749899
0
LINE
8
back_labelLayer
10
19.5747363
20
88.6725438
11
19.0978711
21
88.6725438
0
LINE
8
back_labelLayer
10
19.0978711
20
88.6725438
11
18.9699316
21
89.2773485
0
LINE
8
back_labelLayer
10
18.9699316
20
89.2773485
11
18.938916
21
89.2773485
0
LINE
8
back_labelLayer
10
18.2255566
20
91.1964403
11
18.9466699
21
91.219702
0
LINE
8
back_labelLayer
10
18.9466699
20
91.219702
11
18.9466699
21
91.4833348
0
LINE
8
back_labelLayer
10
16.8414844
20
92.1346629
11
16.6437598
21
92.627036
0
LINE
8
back_labelLayer
10
19.5747363
20
91.5725047
11
19.5747363
21
88.6725438
0
LINE
8
back_labelLayer
10
18.9311621
20
90.3784032
11
18.9311621
21
90.7622215
0
LINE
8
back_labelLayer
10
18.9311621
20
90.7622215
11
18.2875879
21
90.7350829
0
ARC
8
back_labelLayer
10
16.8449765
20
90.9306164
40
2.6679351
50
314.7445049
51
321.7071777
0
ARC
8
back_labelLayer
10
17.5004502
20
90.2646035
40
1.7334821
50
304.848551
51
314.8530959
0
ARC
8
back_labelLayer
10
17.8153306
20
89.8163998
40
1.1857335
50
294.3931992
51
304.7372339
0
ARC
8
back_labelLayer
10
17.7077472
20
90.0951508
40
1.4841317
50
281.2979491
51
293.7313526
0
ARC
8
back_labelLayer
10
17.5655395
20
90.7843607
40
2.1878505
50
272.9335169
51
281.4139128
0
ARC
8
back_labelLayer
10
17.5184003
20
91.4913154
40
2.8963117
50
269.9539838
51
273.1490947
0
ARC
8
back_labelLayer
10
17.5021225
20
90.5699961
40
1.9750406
50
258.6719594
51
270.4047422
0
ARC
8
back_labelLayer
10
17.3649345
20
89.9137434
40
1.3046375
50
238.3273317
51
258.9183447
0
ARC
8
back_labelLayer
10
17.2704081
20
89.7412826
40
1.1082762
50
227.7690448
51
237.8048925
0
ARC
8
back_labelLayer
10
17.2408226
20
89.6999827
40
1.0578272
50
192.0827782
51
227.4520687
0
ARC
8
back_labelLayer
10
17.7861997
20
89.8344225
40
1.6193561
50
179.5457586
51
192.6949145
0
ARC
8
back_labelLayer
10
17.279548
20
89.8930544
40
1.1135954
50
115.490465
51
182.3568084
0
ARC
8
back_labelLayer
10
17.8372506
20
88.8701106
40
2.2778525
50
101.3568386
51
117.0798409
0
ARC
8
back_labelLayer
10
18.2851347
20
86.7771023
40
4.4181583
50
92.469635
51
101.7064871
0
ARC
8
back_labelLayer
10
18.4138064
20
84.9140078
40
6.2852522
50
91.7163244
51
92.9096787
0
ARC
8
back_labelLayer
10
17.0981719
20
91.4932274
40
1.8485245
50
359.6933748
51
8.0035067
0
ARC
8
back_labelLayer
10
17.7974422
20
91.5950942
40
1.1418875
50
7.8272575
51
20.6040992
0
ARC
8
back_labelLayer
10
18.1931446
20
91.7464693
40
0.7182302
50
20.4093509
51
41.4479762
0
ARC
8
back_labelLayer
10
18.2516054
20
91.7786025
40
0.6533036
50
42.7295671
51
71.0379816
0
ARC
8
back_labelLayer
10
18.1139618
20
91.4043444
40
1.0520132
50
70.5716464
51
83.9928441
0
ARC
8
back_labelLayer
10
18.0482034
20
90.870163
40
1.5901714
50
83.6507701
51
90.1752404
0
ARC
8
back_labelLayer
10
18.0597411
20
90.3650459
40
2.0953453
50
90.4484859
51
103.7665241
0
ARC
8
back_labelLayer
10
18.3061486
20
89.3259489
40
3.1632393
50
103.6226944
51
112.4319756
0
ARC
8
back_labelLayer
10
18.7284915
20
88.2595605
40
4.3101294
50
112.2121892
51
115.9640778
0
ARC
8
back_labelLayer
10
18.0521231
20
90.0152427
40
2.9673138
50
106.3568433
51
118.3349798
0
ARC
8
back_labelLayer
10
18.1785064
20
89.6248627
40
3.3775047
50
104.5162581
51
106.5490417
0
ARC
8
back_labelLayer
10
18.0858266
20
90.0109983
40
2.9804736
50
90.0714597
51
104.6520853
0
ARC
8
back_labelLayer
10
18.0975226
20
90.2734111
40
2.7181022
50
81.5679693
51
90.324902
0
ARC
8
back_labelLayer
10
18.2546802
20
91.2972433
40
1.6823006
50
68.2273499
51
81.7494346
0
ARC
8
back_labelLayer
10
18.4735734
20
91.8418686
40
1.095335
50
47.8683297
51
68.2934223
0
ARC
8
back_labelLayer
10
18.5090998
20
91.912805
40
1.0191172
50
19.2330821
51
46.6740961
0
ARC
8
back_labelLayer
10
17.9172773
20
91.6926455
40
1.6504817
50
6.3379361
51
19.6815405
0
ARC
8
back_labelLayer
10
17.042446
20
91.5812274
40
2.5323054
50
359.8026411
51
6.6583742
0
ARC
8
back_labelLayer
10
17.6570273
20
90.8980415
40
1.771942
50
269.5792006
51
282.0413905
0
ARC
8
back_labelLayer
10
17.7862777
20
90.3247443
40
1.1843146
50
281.712109
51
306.4593765
0
ARC
8
back_labelLayer
10
17.8435827
20
90.2304999
40
1.0745079
50
306.9881218
51
313.8558616
0
ARC
8
back_labelLayer
10
17.8367723
20
90.2285377
40
1.0778298
50
314.1891901
51
347.4269846
0
ARC
8
back_labelLayer
10
17.29685
20
90.3638385
40
1.6343216
50
346.9177963
51
0.2824199
0
ARC
8
back_labelLayer
10
16.8968857
20
90.3783992
40
2.0342765
50
359.816789
51
0.0001122
0
ARC
8
back_labelLayer
10
18.4406701
20
86.0121298
40
4.7254333
50
91.8564439
51
96.4478736
0
ARC
8
back_labelLayer
10
18.2275678
20
87.8561366
40
2.8691635
50
96.3545398
51
102.9953414
0
ARC
8
back_labelLayer
10
17.938293
20
89.0851776
40
1.6065599
50
102.7995743
51
113.2433343
0
ARC
8
back_labelLayer
10
17.699819
20
89.6555146
40
0.9884206
50
113.5886603
51
121.6805304
0
ARC
8
back_labelLayer
10
17.5341367
20
89.9078434
40
0.6867302
50
120.9734058
51
172.4179876
0
ARC
8
back_labelLayer
10
17.8579912
20
89.843157
40
1.0165134
50
171.212258
51
180.2057481
0
ARC
8
back_labelLayer
10
17.7611945
20
89.8319066
40
0.9197415
50
179.5265435
51
192.7786798
0
ARC
8
back_labelLayer
10
17.4500639
20
89.7564884
40
0.5996541
50
192.3264836
51
222.0579342
0
ARC
8
back_labelLayer
10
17.426907
20
89.7426336
40
0.5732037
50
222.5802781
51
229.2546822
0
ARC
8
back_labelLayer
10
17.5051236
20
89.8433342
40
0.7005778
50
229.7837243
51
254.2724029
0
ARC
8
back_labelLayer
10
17.6092807
20
90.1904275
40
1.0629276
50
253.9396495
51
266.4533255
0
ARC
8
back_labelLayer
10
17.6425254
20
90.5736614
40
1.447515
50
266.078339
51
270.0589074
0
LINE
8
back_labelLayer
10
23.734707
20
92.7782372
11
23.5369824
21
92.2315868
0
LINE
8
back_labelLayer
10
23.6726758
20
89.3859032
11
23.6726758
21
88.8159911
0
ARC
8
back_labelLayer
10
22.5782331
20
91.0002143
40
2.4052972
50
256.4243695
51
270.4889643
0
ARC
8
back_labelLayer
10
22.3860274
20
90.2500509
40
1.631012
50
221.7976478
51
256.8020355
0
ARC
8
back_labelLayer
10
22.5721533
20
90.3875717
40
1.8615519
50
196.0166413
51
221.1349412
0
ARC
8
back_labelLayer
10
23.5076326
20
90.6735016
40
2.8396594
50
183.5913807
51
196.3539277
0
ARC
8
back_labelLayer
10
24.5555876
20
90.7658223
40
3.8914296
50
179.938851
51
183.9814869
0
ARC
8
back_labelLayer
10
24.2150818
20
90.7928369
40
3.5509953
50
169.8978411
51
180.3688756
0
ARC
8
back_labelLayer
10
22.9788936
20
91.0215142
40
2.2938764
50
153.0875138
51
170.105153
0
ARC
8
back_labelLayer
10
22.5098605
20
91.2456307
40
1.7742421
50
138.654982
51
152.6853478
0
ARC
8
back_labelLayer
10
22.4223223
20
91.3094235
40
1.666412
50
101.4912952
51
138.3133897
0
ARC
8
back_labelLayer
10
22.6232929
20
90.472999
40
2.5262893
50
89.5891891
51
102.1787473
0
ARC
8
back_labelLayer
10
22.6387479
20
90.0949675
40
2.9042572
50
77.7702197
51
89.9475559
0
ARC
8
back_labelLayer
10
22.5837758
20
89.7916823
40
3.2123218
50
74.6797354
51
77.9578777
0
ARC
8
back_labelLayer
10
22.8807194
20
90.8674625
40
2.0963148
50
70.0945111
51
74.7386363
0
ARC
8
back_labelLayer
10
23.1631388
20
91.6414302
40
1.2724338
50
63.5035429
51
70.1860954
0
ARC
8
back_labelLayer
10
23.3076177
20
91.9427187
40
0.9383477
50
62.9253892
51
63.1912517
0
ARC
8
back_labelLayer
10
22.4797589
20
89.570925
40
2.8630128
50
68.3294233
51
74.8831383
0
ARC
8
back_labelLayer
10
22.3287259
20
89.0353877
40
3.4194116
50
74.780179
51
77.4497762
0
ARC
8
back_labelLayer
10
22.4872894
20
89.7796755
40
2.6584619
50
77.2998698
51
81.7344818
0
ARC
8
back_labelLayer
10
22.6029552
20
90.5856387
40
1.8442428
50
81.6909404
51
87.5078544
0
ARC
8
back_labelLayer
10
22.6252719
20
91.0028152
40
1.4264964
50
87.6747742
51
89.9748362
0
ARC
8
back_labelLayer
10
22.593995
20
91.0021252
40
1.4275427
50
88.7194174
51
112.5667708
0
ARC
8
back_labelLayer
10
22.4925576
20
91.3375015
40
1.0794863
50
114.4265593
51
161.6632901
0
ARC
8
back_labelLayer
10
23.5002288
20
90.9430888
40
2.1608363
50
160.1418596
51
175.136836
0
ARC
8
back_labelLayer
10
24.8871429
20
90.7873465
40
3.5561599
50
174.5309585
51
180.1549486
0
ARC
8
back_labelLayer
10
24.4477816
20
90.7616359
40
3.1168271
50
179.7041568
51
188.0743375
0
ARC
8
back_labelLayer
10
23.3251314
20
90.5973822
40
1.9822415
50
187.9315372
51
200.3885173
0
ARC
8
back_labelLayer
10
22.7180989
20
90.372507
40
1.3348957
50
200.4182774
51
216.6393154
0
ARC
8
back_labelLayer
10
22.4636297
20
90.1905923
40
1.0221621
50
216.969537
51
261.3103096
0
ARC
8
back_labelLayer
10
22.5759367
20
90.7141834
40
1.5570378
50
260.1359241
51
270.2691855
0
ARC
8
back_labelLayer
10
22.5707526
20
91.8512108
40
2.6940768
50
270.2658279
51
286.2891425
0
ARC
8
back_labelLayer
10
22.406976
20
92.4619957
40
3.3263106
50
286.0460365
51
292.3653777
0
ARC
8
back_labelLayer
10
22.8431428
20
90.447879
40
1.8306237
50
282.0344031
51
296.9454678
0
ARC
8
back_labelLayer
10
22.654873
20
91.2963308
40
2.6996925
50
272.5980445
51
282.1878636
0
ARC
8
back_labelLayer
10
22.6008806
20
92.124475
40
3.529471
50
269.9655717
51
272.8642436
0
LINE
8
back_labelLayer
10
25.2854883
20
90.8475145
11
25.3165039
21
90.8475145
0
LINE
8
back_labelLayer
10
25.8243848
20
91.467827
11
27.1968262
21
92.9216844
0
LINE
8
back_labelLayer
10
27.1968262
20
92.9216844
11
27.9605859
21
92.9216844
0
LINE
8
back_labelLayer
10
27.9605859
20
92.9216844
11
26.2392188
21
91.1111473
0
LINE
8
back_labelLayer
10
26.2392188
20
91.1111473
11
28.0807715
21
88.6725438
0
LINE
8
back_labelLayer
10
28.0807715
20
88.6725438
11
27.3015039
21
88.6725438
0
LINE
8
back_labelLayer
10
27.3015039
20
88.6725438
11
25.801123
21
90.6808055
0
LINE
8
back_labelLayer
10
25.801123
20
90.6808055
11
25.3165039
21
90.2620946
0
LINE
8
back_labelLayer
10
25.3165039
20
90.2620946
11
25.3165039
21
88.6725438
0
LINE
8
back_labelLayer
10
25.3165039
20
88.6725438
11
24.6806836
21
88.6725438
0
LINE
8
back_labelLayer
10
24.6806836
20
88.6725438
11
24.6806836
21
94.7050829
0
LINE
8
back_labelLayer
10
24.6806836
20
94.7050829
11
25.3165039
21
94.7050829
0
LINE
8
back_labelLayer
10
25.3165039
20
94.7050829
11
25.3165039
21
91.5065965
0
ARC
8
back_labelLayer
10
28.4262534
20
88.6463003
40
3.8099719
50
142.3234084
51
144.707501
0
ARC
8
back_labelLayer
10
30.4546042
20
87.0818007
40
6.3715855
50
140.4330644
51
142.3366804
0
ARC
8
back_labelLayer
10
33.09901
20
84.904983
40
9.7966973
50
139.279854
51
140.4702857
0
ARC
8
back_labelLayer
10
36.1573787
20
82.2749811
40
13.8303715
50
138.3418065
51
139.2876461
0
ARC
8
back_labelLayer
10
21.0276624
20
91.5146224
40
4.288849
50
358.2739831
51
359.8927804
0
ARC
8
back_labelLayer
10
17.6914366
20
91.6075927
40
7.6263651
50
357.5041996
51
358.3307759
0
ARC
8
back_labelLayer
10
12.6971227
20
91.8282014
40
12.6255484
50
356.6324942
51
357.4909655
0
ARC
8
back_labelLayer
10
4.3968014
20
92.3123073
40
20.9399746
50
356.0328968
51
356.6442401
0
ARC
8
back_labelLayer
10
-2.3283097
20
92.7680582
40
27.6805046
50
356.0214769
51
356.0548567
0
LINE
8
right_outsideCutPath
10
44.7
20
120.2
11
44.7
21
105.9
0
LINE
8
right_outsideCutPath
10
44.7
20
105.9
11
42.7
21
105.9
0
LINE
8
right_outsideCutPath
10
42.7
20
105.9
11
42.7
21
96.4
0
LINE
8
right_outsideCutPath
10
42.7
20
96.4
11
44.7
21
96.4
0
LINE
8
right_outsideCutPath
10
44.7
20
96.4
11
44.7
21
86.9
0
LINE
8
right_outsideCutPath
10
44.7
20
86.9
11
42.7
21
86.9
0
LINE
8
right_outsideCutPath
10
42.7
20
86.9
11
42.7
21
77.4
0
LINE
8
right_outsideCutPath
10
42.7
20
77.4
11
44.7
21
77.4
0
LINE
8
right_outsideCutPath
10
44.7
20
77.4
11
44.7
21
67.9
0
LINE
8
right_outsideCutPath
10
44.7
20
67.9
11
44.7
21
63.1
0
LINE
8
right_outsideCutPath
10
44.7
20
63.1
11
57.61
21
63.1
0
LINE
8
right_outsideCutPath
10
57.61
20
63.1
11
57.61
21
65.1
0
LINE
8
right_outsideCutPath
10
57.61
20
65.1
11
67.11
21
65.1
0
LINE
8
right_outsideCutPath
10
67.11
20
65.1
11
67.11
21
63.1
0
LINE
8
right_outsideCutPath
10
67.11
20
63.1
11
76.61
21
63.1
0
LINE
8
right_outsideCutPath
10
76.61
20
63.1
11
80.02
21
63.1
0
LINE
8
right_outsideCutPath
10
80.02
20
63.1
11
80.02
21
77.4
0
LINE
8
right_outsideCutPath
10
80.02
20
77.4
11
82.02
21
77.4
0
LINE
8
right_outsideCutPath
10
82.02
20
77.4
11
82.02
21
86.9
0
LINE
8
right_outsideCutPath
10
82.02
20
86.9
11
80.02
21
86.9
0
LINE
8
right_outsideCutPath
10
80.02
20
86.9
11
80.02
21
96.4
0
LINE
8
right_outsideCutPath
10
80.02
20
96.4
11
82.02
21
96.4
0
LINE
8
right_outsideCutPath
10
82.02
20
96.4
11
82.02
21
105.9
0
LINE
8
right_outsideCutPath
10
82.02
20
105.9
11
80.02
21
105.9
0
LINE
8
right_outsideCutPath
10
80.02
20
105.9
11
80.02
21
115.4
0
LINE
8
right_outsideCutPath
10
80.02
20
115.4
11
80.02
21
120.2
0
LINE
8
right_outsideCutPath
10
80.02
20
120.2
11
67.11
21
120.2
0
LINE
8
right_outsideCutPath
10
67.11
20
120.2
11
67.11
21
118.2
0
LINE
8
right_outsideCutPath
10
67.11
20
118.2
11
57.61
21
118.2
0
LINE
8
right_outsideCutPath
10
57.61
20
118.2
11
57.61
21
120.2
0
LINE
8
right_outsideCutPath
10
57.61
20
120.2
11
48.11
21
120.2
0
LINE
8
right_outsideCutPath
10
48.11
20
120.2
11
44.7
21
120.2
0
LINE
8
right_labelLayer
10
56.6482324
20
93.8464138
11
56.559916
21
93.2550779
0
LINE
8
right_labelLayer
10
54.8627051
20
91.8650544
11
54.8627051
21
89.6072263
0
LINE
8
right_labelLayer
10
54.8627051
20
89.6072263
11
54.225291
21
89.6072263
0
LINE
8
right_labelLayer
10
54.225291
20
89.6072263
11
54.225291
21
93.815695
0
LINE
8
right_labelLayer
10
54.225291
20
93.815695
11
54.7513496
21
93.815695
0
LINE
8
right_labelLayer
10
54.7513496
20
93.815695
11
54.8243066
21
93.0362068
0
LINE
8
right_labelLayer
10
54.8243066
20
93.0362068
11
54.8550254
21
93.0362068
0
ARC
8
right_labelLayer
10
56.1517555
20
90.9662448
40
2.9262545
50
84.9922697
51
90.1281043
0
ARC
8
right_labelLayer
10
56.2220226
20
91.7535341
40
2.1358371
50
78.4892586
51
85.026507
0
ARC
8
right_labelLayer
10
55.9492765
20
90.513039
40
2.8092094
50
77.4453572
51
81.6360789
0
ARC
8
right_labelLayer
10
56.0716594
20
91.3566113
40
1.9568081
50
81.5885053
51
87.1916078
0
ARC
8
right_labelLayer
10
56.0982427
20
91.8174512
40
1.4952245
50
87.3438107
51
89.9658153
0
ARC
8
right_labelLayer
10
56.0920708
20
92.2082478
40
1.1044504
50
89.6335391
51
137.0880624
0
ARC
8
right_labelLayer
10
56.3631942
20
91.9033764
40
1.5110954
50
135.6210042
51
138.8376142
0
ARC
8
right_labelLayer
10
56.3234046
20
91.9422112
40
1.4555822
50
138.9575661
51
174.5422362
0
ARC
8
right_labelLayer
10
56.7974671
20
91.8680353
40
1.9347642
50
173.6907881
51
180.0882743
0
ARC
8
right_labelLayer
10
56.7304379
20
91.9796068
40
2.1525741
50
139.4139366
51
150.6032623
0
ARC
8
right_labelLayer
10
56.3444794
20
92.3103321
40
1.6442995
50
124.2321752
51
139.4160971
0
ARC
8
right_labelLayer
10
56.1381089
20
92.6218459
40
1.2706659
50
89.679673
51
124.4405694
0
LINE
8
right_labelLayer
10
58.0728145
20
93.815695
11
58.0728145
21
89.6072263
0
LINE
8
right_labelLayer
10
58.0728145
20
89.6072263
11
57.4354004
21
89.6072263
0
LINE
8
right_labelLayer
10
57.4354004
20
89.6072263
11
57.4354004
21
93.815695
0
LINE
8
right_labelLayer
10
57.4354004
20
93.815695
11
58.0728145
21
93.815695
0
ARC
8
right_labelLayer
10
58.0879647
20
94.9604975
40
0.7063356
50
170.8451622
51
180.3543913
0
ARC
8
right_labelLayer
10
57.8235386
20
95.0047102
40
0.4382464
50
155.9677979
51
171.0515338
0
ARC
8
right_labelLayer
10
57.6954658
20
95.0615293
40
0.298136
50
133.7879339
51
155.9171009
0
ARC
8
right_labelLayer
10
57.7427504
20
95.0092549
40
0.3685995
50
92.6445768
51
133.4710728
0
ARC
8
right_labelLayer
10
57.757686
20
94.8919532
40
0.4865584
50
89.9692384
51
93.7642192
0
ARC
8
right_labelLayer
10
57.7637668
20
95.0029997
40
0.3755568
50
46.3708583
51
90.8878822
0
ARC
8
right_labelLayer
10
57.8011448
20
95.0415872
40
0.3218364
50
17.7251901
51
46.4474159
0
ARC
8
right_labelLayer
10
57.6268383
20
94.9815642
40
0.5061588
50
4.9428706
51
18.1899476
0
ARC
8
right_labelLayer
10
57.405114
20
94.957597
40
0.7291393
50
359.8846163
51
5.3179948
0
ARC
8
right_labelLayer
10
57.4747645
20
94.9516502
40
0.6595026
50
349.8345122
51
0.3890761
0
ARC
8
right_labelLayer
10
57.7148652
20
94.9068603
40
0.4152695
50
332.6321168
51
350.0705783
0
ARC
8
right_labelLayer
10
57.8083141
20
94.8607155
40
0.3110736
50
313.6152371
51
332.2676764
0
ARC
8
right_labelLayer
10
57.7632763
20
94.9017231
40
0.3718554
50
269.1788622
51
314.2807573
0
ARC
8
right_labelLayer
10
57.7537231
20
94.9347837
40
0.4048998
50
250.5001011
51
270.5977594
0
ARC
8
right_labelLayer
10
57.7414681
20
94.8889596
40
0.3576329
50
225.1300559
51
249.9002285
0
ARC
8
right_labelLayer
10
57.722285
20
94.8677686
40
0.3290836
50
197.7933818
51
224.8941458
0
ARC
8
right_labelLayer
10
57.9018507
20
94.9293028
40
0.5188771
50
184.9926234
51
198.2039371
0
ARC
8
right_labelLayer
10
58.1342306
20
94.9545617
40
0.7525898
50
179.8807099
51
185.3686899
0
LINE
8
right_labelLayer
10
61.4134785
20
93.815695
11
62.8687793
21
93.815695
0
LINE
8
right_labelLayer
10
62.8687793
20
93.815695
11
62.8687793
21
93.4125115
0
LINE
8
right_labelLayer
10
62.8687793
20
93.4125115
11
62.089291
21
93.3203552
0
LINE
8
right_labelLayer
10
60.6531895
20
90.2753591
11
61.3981191
21
90.2753591
0
LINE
8
right_labelLayer
10
61.1946074
20
89.7032224
11
60.4304785
21
89.7032224
0
ARC
8
right_labelLayer
10
61.2769971
20
92.6775155
40
1.0358882
50
29.4585073
51
38.3576718
0
ARC
8
right_labelLayer
10
60.8537332
20
92.4358908
40
1.5232601
50
23.1844961
51
29.5422806
0
ARC
8
right_labelLayer
10
60.4501832
20
92.2569145
40
1.96469
50
21.2505199
51
23.349198
0
ARC
8
right_labelLayer
10
61.1363429
20
92.5298016
40
1.2262919
50
6.8504434
51
20.987198
0
ARC
8
right_labelLayer
10
60.7909761
20
92.4829745
40
1.5747875
50
359.8710178
51
7.0432043
0
ARC
8
right_labelLayer
10
60.9045982
20
92.4642357
40
1.4612406
50
342.5649615
51
0.5957636
0
ARC
8
right_labelLayer
10
61.1740935
20
92.389818
40
1.1818696
50
310.6097782
51
342.0923508
0
ARC
8
right_labelLayer
10
61.0229702
20
92.5656021
40
1.4136847
50
284.9315737
51
310.6222716
0
ARC
8
right_labelLayer
10
60.8338564
20
93.2282853
40
2.1027541
50
272.5334754
51
285.2579456
0
ARC
8
right_labelLayer
10
60.7852365
20
93.8922577
40
2.7682935
50
269.9691122
51
272.9313347
0
ARC
8
right_labelLayer
10
60.7792
20
93.1725481
40
2.0485885
50
263.4837586
51
270.1270912
0
ARC
8
right_labelLayer
10
60.7458218
20
92.8554971
40
1.7298001
50
259.4962182
51
263.3904218
0
ARC
8
right_labelLayer
10
60.952357
20
90.147603
40
1.1342697
50
117.3936143
51
128.409475
0
ARC
8
right_labelLayer
10
60.660347
20
90.5098651
40
0.668996
50
128.0882121
51
147.1400173
0
ARC
8
right_labelLayer
10
60.5030324
20
90.6154352
40
0.4795823
50
147.5368754
51
180.2592309
0
ARC
8
right_labelLayer
10
60.3537956
20
90.6091826
40
0.3303657
50
179.2918952
51
198.3579803
0
ARC
8
right_labelLayer
10
60.2919398
20
90.5929269
40
0.266569
50
199.2292231
51
239.5690779
0
ARC
8
right_labelLayer
10
60.3434705
20
90.664194
40
0.3542168
50
238.220726
51
239.8443183
0
ARC
8
right_labelLayer
10
60.3841442
20
90.7479684
40
0.4471393
50
240.7304417
51
254.5025781
0
ARC
8
right_labelLayer
10
60.5061719
20
91.1684715
40
0.8849747
50
254.1636667
51
262.2124252
0
ARC
8
right_labelLayer
10
60.6028435
20
91.843672
40
1.567053
50
262.0555751
51
267.2082422
0
ARC
8
right_labelLayer
10
60.6495399
20
92.7003045
40
2.4249481
50
267.0920466
51
270.08623
0
ARC
8
right_labelLayer
10
61.4120515
20
87.6661654
40
2.6092309
50
81.5744797
51
90.3059402
0
ARC
8
right_labelLayer
10
61.5551752
20
88.5996001
40
1.6649065
50
68.3671583
51
81.7399654
0
ARC
8
right_labelLayer
10
61.7420995
20
89.0773142
40
1.1519312
50
52.1880303
51
68.2500529
0
ARC
8
right_labelLayer
10
61.8729018
20
89.2535638
40
0.9325099
50
8.6201489
51
51.8982396
0
ARC
8
right_labelLayer
10
61.4144703
20
89.1565645
40
1.4005653
50
359.7431068
51
9.7326384
0
ARC
8
right_labelLayer
10
61.4350082
20
89.1329384
40
1.3801223
50
340.5268728
51
0.7201595
0
ARC
8
right_labelLayer
10
61.6377811
20
89.0824502
40
1.1722881
50
302.9903644
51
339.5494598
0
ARC
8
right_labelLayer
10
61.4245605
20
89.3534896
40
1.5160461
50
303.1870221
51
304.1718892
0
ARC
8
right_labelLayer
10
61.2265424
20
89.6964103
40
1.9115488
50
286.2542161
51
302.5279882
0
ARC
8
right_labelLayer
10
60.8655259
20
90.8872113
40
3.1558292
50
276.4940059
51
286.4953526
0
ARC
8
right_labelLayer
10
60.6402759
20
92.7702016
40
5.0522248
50
269.7545296
51
276.6169381
0
ARC
8
right_labelLayer
10
60.601807
20
91.2892489
40
3.5712653
50
262.5635009
51
270.2699149
0
ARC
8
right_labelLayer
10
60.4268903
20
89.9927729
40
2.2630619
50
251.2101533
51
262.7064493
0
ARC
8
right_labelLayer
10
60.1747845
20
89.252811
40
1.4813326
50
235.9668131
51
251.2229151
0
ARC
8
right_labelLayer
10
59.907571
20
88.8716024
40
1.0158998
50
208.9036336
51
236.4231569
0
ARC
8
right_labelLayer
10
59.9321047
20
88.8613196
40
1.0326181
50
182.2080143
51
207.7461215
0
ARC
8
right_labelLayer
10
60.2443769
20
88.8925126
40
1.3459963
50
179.9785993
51
183.0227309
0
ARC
8
right_labelLayer
10
59.8728685
20
88.9101143
40
0.9746377
50
138.3916257
51
181.0052402
0
ARC
8
right_labelLayer
10
59.975793
20
88.8176149
40
1.1130177
50
113.8121896
51
138.3496001
0
ARC
8
right_labelLayer
10
60.171024
20
88.3960242
40
1.5775647
50
102.2870655
51
114.1172267
0
ARC
8
right_labelLayer
10
60.1096768
20
90.5394246
40
0.6615521
50
216.5861293
51
245.4968735
0
ARC
8
right_labelLayer
10
60.204627
20
90.6199552
40
0.7858336
50
215.4655876
51
217.1745077
0
ARC
8
right_labelLayer
10
60.0466382
20
90.5058351
40
0.5909446
50
182.1767752
51
215.3415418
0
ARC
8
right_labelLayer
10
60.1869596
20
90.5208969
40
0.7318014
50
179.9833827
51
182.9379036
0
ARC
8
right_labelLayer
10
60.1840524
20
90.5272702
40
0.7289202
50
161.7225794
51
180.4842935
0
ARC
8
right_labelLayer
10
60.1039121
20
90.5491376
40
0.6459799
50
144.4964385
51
161.3350352
0
ARC
8
right_labelLayer
10
60.3175395
20
90.3899231
40
0.9123708
50
132.725862
51
144.1480048
0
ARC
8
right_labelLayer
10
60.6599456
20
90.024274
40
1.4133034
50
125.2212492
51
132.8655112
0
ARC
8
right_labelLayer
10
61.0041761
20
89.5462712
40
2.0023364
50
121.2352801
51
125.3795301
0
ARC
8
right_labelLayer
10
60.3939371
20
92.2905492
40
1.1174384
50
215.1640736
51
247.4747749
0
ARC
8
right_labelLayer
10
60.6024431
20
92.4588346
40
1.3849228
50
212.4713413
51
215.8877403
0
ARC
8
right_labelLayer
10
60.5476736
20
92.4196462
40
1.3176815
50
183.0160843
51
212.312319
0
ARC
8
right_labelLayer
10
60.836774
20
92.4518722
40
1.6081667
50
179.9758326
51
183.6207015
0
ARC
8
right_labelLayer
10
61.0701434
20
92.4681041
40
1.8416017
50
166.8195853
51
180.483909
0
ARC
8
right_labelLayer
10
60.4592083
20
92.622352
40
1.2116381
50
132.3287943
51
167.3340951
0
ARC
8
right_labelLayer
10
60.5409426
20
92.5048651
40
1.3536627
50
106.21891
51
131.5377636
0
ARC
8
right_labelLayer
10
60.7477457
20
91.8352519
40
2.0544205
50
93.6329831
51
106.5408716
0
ARC
8
right_labelLayer
10
60.8152578
20
91.0772525
40
2.815241
50
89.9380293
51
94.0267104
0
ARC
8
right_labelLayer
10
60.826191
20
91.4492715
40
2.4432332
50
82.5852209
51
90.1849872
0
ARC
8
right_labelLayer
10
60.9008428
20
92.0268737
40
1.860827
50
74.0088955
51
82.5694299
0
ARC
8
right_labelLayer
10
60.1528694
20
88.8919881
40
0.6401728
50
179.2206958
51
200.9356236
0
ARC
8
right_labelLayer
10
60.0767437
20
88.8743607
40
0.5628766
50
202.0286708
51
236.1457541
0
ARC
8
right_labelLayer
10
60.1914654
20
89.0200263
40
0.7478884
50
235.063665
51
238.5044429
0
ARC
8
right_labelLayer
10
60.3248639
20
89.2582844
40
1.0207947
50
239.1065703
51
254.4863438
0
ARC
8
right_labelLayer
10
60.5027112
20
89.8714974
40
1.6592512
50
254.2324416
51
263.4937311
0
ARC
8
right_labelLayer
10
60.6144239
20
90.8176811
40
2.6120022
50
263.4108294
51
270.1457143
0
ARC
8
right_labelLayer
10
60.6261886
20
91.327007
40
3.1213236
50
269.9059805
51
270.0022377
0
ARC
8
right_labelLayer
10
60.6415849
20
92.4906717
40
4.2850156
50
269.7957638
51
275.3991428
0
ARC
8
right_labelLayer
10
60.801965
20
90.8442512
40
2.6308134
50
275.2956654
51
283.3516458
0
ARC
8
right_labelLayer
10
61.0632478
20
89.7680878
40
1.523411
50
283.1370602
51
295.8573456
0
ARC
8
right_labelLayer
10
61.256848
20
89.3454357
40
1.0586869
50
296.4047524
51
301.8008298
0
ARC
8
right_labelLayer
10
61.3327558
20
89.2408049
40
0.929809
50
301.2230729
51
318.6237726
0
ARC
8
right_labelLayer
10
61.5039605
20
89.0826553
40
0.6968241
50
319.0765644
51
1.1406709
0
ARC
8
right_labelLayer
10
61.3382713
20
89.103359
40
0.8624022
50
359.546103
51
10.9904965
0
ARC
8
right_labelLayer
10
61.6713897
20
89.1711158
40
0.5224848
50
10.660813
51
30.9362383
0
ARC
8
right_labelLayer
10
61.777009
20
89.2297324
40
0.401777
50
31.5094362
51
58.0778795
0
ARC
8
right_labelLayer
10
61.6780182
20
89.0524887
40
0.6046366
50
58.9971263
51
73.858719
0
ARC
8
right_labelLayer
10
61.4779324
20
88.3974725
40
1.2894962
50
73.4099742
51
81.590746
0
ARC
8
right_labelLayer
10
61.3084066
20
87.3004325
40
2.3995446
50
81.4171796
51
86.5757391
0
ARC
8
right_labelLayer
10
61.204509
20
85.6473613
40
4.0558733
50
86.5054492
51
90.1398762
0
ARC
8
right_labelLayer
10
60.4213622
20
88.238026
40
1.4652247
50
89.643514
51
100.0209425
0
ARC
8
right_labelLayer
10
60.32927
20
88.7389949
40
0.9558802
50
99.8102795
51
116.8229358
0
ARC
8
right_labelLayer
10
60.2395567
20
88.9281855
40
0.7465826
50
117.2303544
51
130.5024303
0
ARC
8
right_labelLayer
10
60.1935028
20
88.9873739
40
0.6716747
50
130.7944491
51
169.0413341
0
ARC
8
right_labelLayer
10
60.5326782
20
88.9074957
40
1.0199451
50
168.2579977
51
180.3820342
0
ARC
8
right_labelLayer
10
61.1025192
20
92.4583934
40
1.2442138
50
179.5617621
51
191.652929
0
ARC
8
right_labelLayer
10
60.6699237
20
92.3649286
40
0.8016671
50
191.3555017
51
213.3659816
0
ARC
8
right_labelLayer
10
60.5660291
20
92.3049389
40
0.6819397
50
213.9573668
51
227.797221
0
ARC
8
right_labelLayer
10
60.6564178
20
92.4145643
40
0.8238935
50
228.2620572
51
254.7341665
0
ARC
8
right_labelLayer
10
60.7718906
20
92.8104037
40
1.2361901
50
254.401629
51
267.4349198
0
ARC
8
right_labelLayer
10
60.8020144
20
93.2143233
40
1.6410972
50
267.0153826
51
270.0324329
0
ARC
8
right_labelLayer
10
60.8217095
20
92.9617384
40
1.3886389
50
269.2256796
51
284.3773134
0
ARC
8
right_labelLayer
10
61.0109787
20
92.3023221
40
0.7031511
50
282.7796624
51
346.4828405
0
ARC
8
right_labelLayer
10
60.4451159
20
92.4626065
40
1.291019
50
345.436218
51
0.7466261
0
ARC
8
right_labelLayer
10
60.3655666
20
92.4990285
40
1.3705989
50
359.1806625
51
15.0431475
0
ARC
8
right_labelLayer
10
60.9866119
20
92.6801932
40
0.7239467
50
13.9535727
51
77.6673772
0
ARC
8
right_labelLayer
10
60.8084286
20
92.0416574
40
1.3863178
50
76.1095262
51
90.7028159
0
ARC
8
right_labelLayer
10
60.7817582
20
92.0904366
40
1.3374691
50
89.585931
51
101.3334529
0
ARC
8
right_labelLayer
10
60.6861786
20
92.5463075
40
0.8717144
50
101.0620835
51
121.9739347
0
ARC
8
right_labelLayer
10
60.6190102
20
92.6671414
40
0.7336781
50
122.5211756
51
134.9966304
0
ARC
8
right_labelLayer
10
60.6466627
20
92.6505768
40
0.764984
50
135.5840015
51
163.0015919
0
ARC
8
right_labelLayer
10
61.0506345
20
92.5181701
40
1.1900465
50
162.5912419
51
175.734327
0
ARC
8
right_labelLayer
10
61.5351214
20
92.4704407
40
1.6767815
50
175.3393034
51
180.0864797
0
LINE
8
right_labelLayer
10
67.250041
20
89.6072263
11
66.612627
21
89.6072263
0
LINE
8
right_labelLayer
10
66.612627
20
89.6072263
11
66.612627
21
92.3296755
0
LINE
8
right_labelLayer
10
64.3701582
20
91.8074568
11
64.3701582
21
89.6072263
0
LINE
8
right_labelLayer
10
64.3701582
20
89.6072263
11
63.7327441
21
89.6072263
0
LINE
8
right_labelLayer
10
63.7327441
20
89.6072263
11
63.7327441
21
95.5820232
0
LINE
8
right_labelLayer
10
63.7327441
20
95.5820232
11
64.3701582
21
95.5820232
0
LINE
8
right_labelLayer
10
64.3701582
20
95.5820232
11
64.3701582
21
93.7734568
0
LINE
8
right_labelLayer
10
64.3394395
20
93.2320388
11
64.3778379
21
93.2320388
0
LINE
8
right_labelLayer
10
67.250041
20
92.3527146
11
67.250041
21
89.6072263
0
ARC
8
right_labelLayer
10
64.8108279
20
92.3400076
40
1.8018286
50
359.6714521
51
8.6876673
0
ARC
8
right_labelLayer
10
65.4786439
20
92.4459158
40
1.1256841
50
8.4931969
51
22.6579787
0
ARC
8
right_labelLayer
10
65.8179386
20
92.5869164
40
0.7582587
50
22.7024007
51
42.3419366
0
ARC
8
right_labelLayer
10
65.8560757
20
92.6040706
40
0.7186334
50
43.3791184
51
71.5386008
0
ARC
8
right_labelLayer
10
65.7134597
20
92.2055633
40
1.1418302
50
71.0828176
51
84.3691
0
ARC
8
right_labelLayer
10
65.6494399
20
91.6612177
40
1.6898621
50
84.0198737
51
90.1510002
0
ARC
8
right_labelLayer
10
65.6312481
20
91.4222237
40
1.9288992
50
89.5919183
51
100.359534
0
ARC
8
right_labelLayer
10
65.4946655
20
92.1399834
40
1.1982906
50
100.1068135
51
118.0847487
0
ARC
8
right_labelLayer
10
65.3557495
20
92.412571
40
0.8924199
50
118.4551422
51
139.6705666
0
ARC
8
right_labelLayer
10
65.495211
20
92.317248
40
1.0605735
50
140.620814
51
160.5049072
0
ARC
8
right_labelLayer
10
66.2303444
20
92.045104
40
1.8444174
50
160.1567085
51
171.5312576
0
ARC
8
right_labelLayer
10
67.4197934
20
91.8566516
40
3.048671
50
171.3202498
51
178.3406923
0
ARC
8
right_labelLayer
10
68.4842009
20
91.8091053
40
4.1140429
50
178.1080421
51
180.0229588
0
ARC
8
right_labelLayer
10
58.6365224
20
93.7666169
40
5.7336399
50
357.8673297
51
0.0683506
0
ARC
8
right_labelLayer
10
60.5839777
20
93.6923114
40
3.7847688
50
354.9828908
51
357.894311
0
ARC
8
right_labelLayer
10
61.8706097
20
93.5802731
40
2.4932685
50
351.9712603
51
354.9619546
0
ARC
8
right_labelLayer
10
65.45751
20
92.5566664
40
1.2735069
50
119.8316116
51
147.9725924
0
ARC
8
right_labelLayer
10
65.6117648
20
92.3196889
40
1.5558986
50
116.6659556
51
120.4182276
0
ARC
8
right_labelLayer
10
65.6405103
20
92.244142
40
1.6363314
50
96.6652366
51
116.3782556
0
ARC
8
right_labelLayer
10
65.7025507
20
91.8161205
40
2.0686955
50
89.8927264
51
96.9959735
0
ARC
8
right_labelLayer
10
65.722388
20
91.2987776
40
2.5860839
50
80.686295
51
90.3536944
0
ARC
8
right_labelLayer
10
65.883415
20
92.2459147
40
1.6253822
50
65.6022636
51
80.8843918
0
ARC
8
right_labelLayer
10
66.0767785
20
92.6814105
40
1.1489101
50
46.7400994
51
65.413088
0
ARC
8
right_labelLayer
10
66.0899218
20
92.7229065
40
1.1098436
50
19.2204147
51
45.766096
0
ARC
8
right_labelLayer
10
65.449977
20
92.4856736
40
1.7922647
50
6.4733658
51
19.6467988
0
ARC
8
right_labelLayer
10
64.4937335
20
92.3625979
40
2.7563254
50
359.7945545
51
6.7744214
0
LINE
8
right_labelLayer
10
70.494709
20
90.1332849
11
70.494709
21
89.6456247
0
LINE
8
right_labelLayer
10
68.6055059
20
90.8167771
11
68.6055059
21
93.3203552
0
LINE
8
right_labelLayer
10
68.6055059
20
93.3203552
11
68.0026504
21
93.3203552
0
LINE
8
right_labelLayer
10
68.0026504
20
93.3203552
11
68.0026504
21
93.6275427
0
LINE
8
right_labelLayer
10
68.0026504
20
93.6275427
11
68.6055059
21
93.8924919
0
LINE
8
right_labelLayer
10
68.6055059
20
93.8924919
11
68.8742949
21
94.7910154
0
LINE
8
right_labelLayer
10
68.8742949
20
94.7910154
11
69.2429199
21
94.7910154
0
LINE
8
right_labelLayer
10
69.2429199
20
94.7910154
11
69.2429199
21
93.815695
0
LINE
8
right_labelLayer
10
69.2429199
20
93.815695
11
70.4639902
21
93.815695
0
LINE
8
right_labelLayer
10
70.4639902
20
93.815695
11
70.4639902
21
93.3203552
0
LINE
8
right_labelLayer
10
70.4639902
20
93.3203552
11
69.2429199
21
93.3203552
0
LINE
8
right_labelLayer
10
69.2429199
20
93.3203552
11
69.2429199
21
90.843656
0
ARC
8
right_labelLayer
10
69.9231023
20
92.149861
40
2.0933775
50
269.8803951
51
278.3027819
0
ARC
8
right_labelLayer
10
69.9433983
20
91.9846076
40
1.926929
50
278.4151796
51
279.0085117
0
ARC
8
right_labelLayer
10
69.708201
20
93.4871945
40
3.4478105
50
278.9589786
51
280.5105774
0
ARC
8
right_labelLayer
10
69.932039
20
92.2862281
40
2.2261632
50
280.484697
51
282.6269672
0
ARC
8
right_labelLayer
10
70.1283654
20
91.4140566
40
1.332169
50
282.5874349
51
285.5797363
0
ARC
8
right_labelLayer
10
70.2266435
20
91.0525692
40
0.9575712
50
285.724586
51
286.2568074
0
ARC
8
right_labelLayer
10
70.2267281
20
90.2124151
40
0.626949
50
287.9888109
51
295.3049834
0
ARC
8
right_labelLayer
10
70.0755012
20
90.6699472
40
1.1088219
50
283.3069648
51
288.1197593
0
ARC
8
right_labelLayer
10
69.9157565
20
91.3362979
40
1.794051
50
280.0069933
51
283.3734914
0
ARC
8
right_labelLayer
10
69.8089783
20
91.9157497
40
2.3832463
50
279.1860417
51
280.1142971
0
ARC
8
right_labelLayer
10
69.7432665
20
92.2895165
40
2.7627147
50
275.5259837
51
279.2938977
0
ARC
8
right_labelLayer
10
69.8172011
20
91.5172135
40
1.9868816
50
270.893178
51
275.5484664
0
ARC
8
right_labelLayer
10
69.8264863
20
91.1635314
40
1.6331021
50
270.0031538
51
270.760883
0
ARC
8
right_labelLayer
10
69.8008539
20
91.1950567
40
1.664826
50
253.7847569
51
270.8852794
0
ARC
8
right_labelLayer
10
69.6036162
20
90.5224051
40
0.9638562
50
190.3817634
51
253.8772424
0
ARC
8
right_labelLayer
10
70.6089313
20
90.794226
40
2.0035524
50
179.3550921
51
192.8477951
0
ARC
8
right_labelLayer
10
70.5264434
20
90.8356295
40
1.2835486
50
179.6417067
51
189.7505766
0
ARC
8
right_labelLayer
10
70.0733214
20
90.7548095
40
0.8232899
50
189.5479198
51
205.7873196
0
ARC
8
right_labelLayer
10
69.8871066
20
90.66894
40
0.6182742
50
206.1293842
51
221.4084358
0
ARC
8
right_labelLayer
10
69.86623
20
90.6530983
40
0.5921415
50
221.5948719
51
262.3505528
0
ARC
8
right_labelLayer
10
69.9158877
20
90.908452
40
0.8519688
50
261.3265848
51
270.1913079
0
LINE
8
bottom_outsideCutPath
10
87.02
20
82.64
11
87.02
21
69.73
0
LINE
8
bottom_outsideCutPath
10
87.02
20
69.73
11
85.02
21
69.73
0
LINE
8
bottom_outsideCutPath
10
85.02
20
69.73
11
85.02
21
60.23
0
LINE
8
bottom_outsideCutPath
10
85.02
20
60.23
11
87.02
21
60.23
0
LINE
8
bottom_outsideCutPath
10
87.02
20
60.23
11
87.02
21
50.73
0
LINE
8
bottom_outsideCutPath
10
87.02
20
50.73
11
87.02
21
47.32
0
LINE
8
bottom_outsideCutPath
10
87.02
20
47.32
11
90.62
21
47.32
0
LINE
8
bottom_outsideCutPath
10
90.62
20
47.32
11
90.62
21
45.32
0
LINE
8
bottom_outsideCutPath
10
90.62
20
45.32
11
100.12
21
45.32
0
LINE
8
bottom_outsideCutPath
10
100.12
20
45.32
11
100.12
21
47.32
0
LINE
8
bottom_outsideCutPath
10
100.12
20
47.32
11
109.62
21
47.32
0
LINE
8
bottom_outsideCutPath
10
109.62
20
47.32
11
109.62
21
45.32
0
LINE
8
bottom_outsideCutPath
10
109.62
20
45.32
11
119.12
21
45.32
0
LINE
8
bottom_outsideCutPath
10
119.12
20
45.32
11
119.12
21
47.32
0
LINE
8
bottom_outsideCutPath
10
119.12
20
47.32
11
122.72
21
47.32
0
LINE
8
bottom_outsideCutPath
10
122.72
20
47.32
11
122.72
21
60.23
0
LINE
8
bottom_outsideCutPath
10
122.72
20
60.23
11
124.72
21
60.23
0
LINE
8
bottom_outsideCutPath
10
124.72
20
60.23
11
124.72
21
69.73
0
LINE
8
bottom_outsideCutPath
10
124.72
20
69.73
11
122.72
21
69.73
0
LINE
8
bottom_outsideCutPath
10
122.72
20
69.73
11
122.72
21
79.23
0
LINE
8
bottom_outsideCutPath
10
122.72
20
79.23
11
122.72
21
82.64
0
LINE
8
bottom_outsideCutPath
10
122.72
20
82.64
11
119.12
21
82.64
0
LINE
8
bottom_outsideCutPath
10
119.12
20
82.64
11
119.12
21
84.64
0
LINE
8
bottom_outsideCutPath
10
119.12
20
84.64
11
109.62
21
84.64
0
LINE
8
bottom_outsideCutPath
10
109.62
20
84.64
11
109.62
21
82.64
0
LINE
8
bottom_outsideCutPath
10
109.62
20
82.64
11
100.12
21
82.64
0
LINE
8
bottom_outsideCutPath
10
100.12
20
82.64
11
100.12
21
84.64
0
LINE
8
bottom_outsideCutPath
10
100.12
20
84.64
11
90.62
21
84.64
0
LINE
8
bottom_outsideCutPath
10
90.62
20
84.64
11
90.62
21
82.64
0
LINE
8
bottom_outsideCutPath
10
90.62
20
82.64
11
87.02
21
82.64
0
LINE
8
bottom_labelLayer
10
92.5709618
20
62.5725173
11
92.5248837
21
62.5725173
0
LINE
8
bottom_labelLayer
10
92.5248837
20
62.5725173
11
92.3904892
21
62.0310994
0
LINE
8
bottom_labelLayer
10
92.3904892
20
62.0310994
11
91.9335478
21
62.0310994
0
LINE
8
bottom_labelLayer
10
91.9335478
20
62.0310994
11
91.9335478
21
68.0058962
0
LINE
8
bottom_labelLayer
10
91.9335478
20
68.0058962
11
92.5709618
21
68.0058962
0
LINE
8
bottom_labelLayer
10
92.5709618
20
68.0058962
11
92.5709618
21
66.5544353
0
LINE
8
bottom_labelLayer
10
92.5402431
20
65.6789509
11
92.5709618
21
65.6789509
0
ARC
8
bottom_labelLayer
10
93.910989
20
64.3606159
40
1.9481632
50
74.2393502
51
90.5623577
0
ARC
8
bottom_labelLayer
10
94.0398089
20
64.8331987
40
1.458364
50
38.5631172
51
74.0670438
0
ARC
8
bottom_labelLayer
10
93.7082994
20
64.5754308
40
1.8782719
50
16.4709227
51
38.4075203
0
ARC
8
bottom_labelLayer
10
92.7532805
20
64.2759632
40
2.8790548
50
5.1338369
51
16.7973639
0
ARC
8
bottom_labelLayer
10
91.5476868
20
64.1478923
40
4.0913196
50
359.8779007
51
5.409407
0
ARC
8
bottom_labelLayer
10
91.9017628
20
64.1171233
40
3.7372992
50
350.6562792
51
0.3380508
0
ARC
8
bottom_labelLayer
10
93.2046434
20
63.8955176
40
2.4157364
50
335.8305776
51
350.8254793
0
ARC
8
bottom_labelLayer
10
93.7777527
20
63.6481555
40
1.7916101
50
321.3161715
51
335.5435985
0
ARC
8
bottom_labelLayer
10
93.9968631
20
63.4696155
40
1.5089815
50
274.064023
51
321.4080841
0
ARC
8
bottom_labelLayer
10
93.8947915
20
64.1161627
40
2.1618621
50
269.9225191
51
275.5481792
0
ARC
8
bottom_labelLayer
10
93.8811181
20
63.8876861
40
1.9334135
50
255.7755533
51
270.318572
0
ARC
8
bottom_labelLayer
10
93.8259428
20
63.6425493
40
1.6822481
50
245.9801534
51
255.545598
0
ARC
8
bottom_labelLayer
10
93.7190789
20
63.3940353
40
1.4117594
50
215.5850468
51
245.8361432
0
ARC
8
bottom_labelLayer
10
79.2813642
20
66.5432003
40
13.2896024
50
358.1123233
51
0.0484378
0
ARC
8
bottom_labelLayer
10
82.9803079
20
66.4190143
40
9.5885755
50
355.7238248
51
358.125915
0
ARC
8
bottom_labelLayer
10
84.6265506
20
66.3057499
40
7.9384763
50
355.4713783
51
355.6530831
0
ARC
8
bottom_labelLayer
10
93.7597112
20
64.850004
40
1.4492336
50
95.1835107
51
145.1109002
0
ARC
8
bottom_labelLayer
10
93.8870934
20
64.1316889
40
2.1770017
50
89.8743361
51
96.8145503
0
ARC
8
bottom_labelLayer
10
93.7863672
20
63.9838036
40
1.7911931
50
89.5731355
51
100.7323889
0
ARC
8
bottom_labelLayer
10
93.6537693
20
64.6537396
40
1.1082968
50
100.4469341
51
119.6700661
0
ARC
8
bottom_labelLayer
10
93.5308093
20
64.8836265
40
0.8477131
50
120.1402463
51
142.4249274
0
ARC
8
bottom_labelLayer
10
93.7342327
20
64.7490544
40
1.091138
50
143.3382117
51
161.2560214
0
ARC
8
bottom_labelLayer
10
94.5849237
20
64.4470306
40
1.9938041
50
160.8926531
51
171.2334095
0
ARC
8
bottom_labelLayer
10
96.0050303
20
64.217934
40
3.4322512
50
171.0667702
51
177.8456785
0
ARC
8
bottom_labelLayer
10
97.481939
20
64.1428194
40
4.9109785
50
177.6176749
51
180.0425358
0
ARC
8
bottom_labelLayer
10
96.7854826
20
64.1227183
40
4.2145529
50
179.7762935
51
185.7075188
0
ARC
8
bottom_labelLayer
10
95.1238452
20
63.9515127
40
2.5441318
50
185.5925176
51
194.2050184
0
ARC
8
bottom_labelLayer
10
94.0593852
20
63.6752505
40
1.4444413
50
193.9430248
51
208.0218882
0
ARC
8
bottom_labelLayer
10
93.6287362
20
63.4561677
40
0.9613926
50
208.553703
51
217.5604101
0
ARC
8
bottom_labelLayer
10
93.5936329
20
63.4415651
40
0.9247161
50
218.1690692
51
253.8046944
0
ARC
8
bottom_labelLayer
10
93.7651496
20
63.9703682
40
1.4804728
50
253.1382299
51
266.8482922
0
ARC
8
bottom_labelLayer
10
93.8132481
20
64.5375715
40
2.0495318
50
266.3774866
51
270.0509644
0
ARC
8
bottom_labelLayer
10
93.8286682
20
63.7586459
40
1.2706779
50
269.3868877
51
285.8630727
0
ARC
8
bottom_labelLayer
10
93.9230719
20
63.4174595
40
0.9166837
50
286.0162755
51
326.8497422
0
ARC
8
bottom_labelLayer
10
93.4674351
20
63.7193033
40
1.4632243
50
326.7104722
51
343.6661895
0
ARC
8
bottom_labelLayer
10
92.6145017
20
63.9799326
40
2.3550526
50
343.4171306
51
353.6369125
0
ARC
8
bottom_labelLayer
10
91.3262681
20
64.1327929
40
3.6523029
50
353.4934436
51
0.220573
0
ARC
8
bottom_labelLayer
10
91.2126903
20
64.1620984
40
3.7658844
50
359.7680537
51
6.3095203
0
ARC
8
bottom_labelLayer
10
92.6312046
20
64.3248809
40
2.3380801
50
6.1648746
51
16.0396124
0
ARC
8
bottom_labelLayer
10
93.5450086
20
64.5941767
40
1.3854571
50
15.7779753
51
32.0151077
0
ARC
8
bottom_labelLayer
10
93.8300654
20
64.7574292
40
1.0572843
50
32.7032293
51
35.5243769
0
ARC
8
bottom_labelLayer
10
93.9341871
20
64.8314372
40
0.9295406
50
35.5408373
51
79.8011215
0
ARC
8
bottom_labelLayer
10
93.8093594
20
64.3007695
40
1.474209
50
78.6781367
51
90.3749611
0
ARC
8
bottom_labelLayer
10
97.0926186
20
64.116976
40
3.2925001
50
349.1761948
51
0.3862826
0
ARC
8
bottom_labelLayer
10
98.2011211
20
63.8959938
40
2.1622386
50
330.2507254
51
349.4116545
0
ARC
8
bottom_labelLayer
10
98.5422735
20
63.7186753
40
1.7781279
50
318.1439419
51
329.7566546
0
ARC
8
bottom_labelLayer
10
98.603837
20
63.6693381
40
1.6993587
50
278.895911
51
317.9979013
0
ARC
8
bottom_labelLayer
10
98.4451907
20
64.4294332
40
2.4751541
50
269.7502861
51
279.8032925
0
ARC
8
bottom_labelLayer
10
98.4194613
20
64.0011635
40
2.0469155
50
253.5436954
51
270.4182464
0
ARC
8
bottom_labelLayer
10
98.3513193
20
63.7375804
40
1.7748507
50
238.8115225
51
253.2428845
0
ARC
8
bottom_labelLayer
10
98.3293334
20
63.693367
40
1.7256468
50
207.7947026
51
238.6757933
0
ARC
8
bottom_labelLayer
10
98.6450173
20
63.8866932
40
2.0951928
50
205.6560939
51
208.4459981
0
ARC
8
bottom_labelLayer
10
98.8879271
20
63.9878938
40
2.3580118
50
188.9102434
51
205.3171528
0
ARC
8
bottom_labelLayer
10
99.7070323
20
64.1266233
40
3.1887359
50
179.7744931
51
189.0932767
0
ARC
8
bottom_labelLayer
10
99.8278574
20
64.1615892
40
3.3096121
50
169.2443078
51
180.3880609
0
ARC
8
bottom_labelLayer
10
98.7039374
20
64.3837458
40
2.1639948
50
150.7111582
51
169.469518
0
ARC
8
bottom_labelLayer
10
98.3451405
20
64.5680016
40
1.7609872
50
138.17592
51
150.2287528
0
ARC
8
bottom_labelLayer
10
98.285463
20
64.6137973
40
1.6859866
50
99.1759319
51
137.9832695
0
ARC
8
bottom_labelLayer
10
98.4497298
20
63.8407399
40
2.475652
50
89.7326351
51
100.0759806
0
ARC
8
bottom_labelLayer
10
98.482561
20
64.1745969
40
2.1418738
50
73.5222819
51
90.5692263
0
ARC
8
bottom_labelLayer
10
98.6081699
20
64.6309664
40
1.6686435
50
41.14456
51
73.2134002
0
ARC
8
bottom_labelLayer
10
98.3683929
20
64.424881
40
1.9848058
50
13.5014448
51
41.0703442
0
ARC
8
bottom_labelLayer
10
97.4420224
20
64.1824617
40
2.9422369
50
1.1277344
51
13.8800174
0
ARC
8
bottom_labelLayer
10
96.6445118
20
64.1397097
40
3.7405321
50
359.9917878
51
1.5420409
0
ARC
8
bottom_labelLayer
10
100.4065629
20
64.1226073
40
3.2278311
50
179.7059384
51
187.916108
0
ARC
8
bottom_labelLayer
10
99.222718
20
63.9525482
40
2.0318534
50
187.7639495
51
200.0976513
0
ARC
8
bottom_labelLayer
10
98.5705185
20
63.7135832
40
1.337254
50
200.0846095
51
216.9131444
0
ARC
8
bottom_labelLayer
10
98.332358
20
63.543526
40
1.0447205
50
217.3009584
51
261.7099215
0
ARC
8
bottom_labelLayer
10
98.4429182
20
64.0711095
40
1.5830834
50
260.5033425
51
270.2477173
0
ARC
8
bottom_labelLayer
10
98.464022
20
63.968523
40
1.4805509
50
269.4481672
51
284.7255549
0
ARC
8
bottom_labelLayer
10
98.5812281
20
63.5338409
40
1.0303575
50
284.5662468
51
322.633392
0
ARC
8
bottom_labelLayer
10
98.3071872
20
63.7318221
40
1.3683435
50
323.0089777
51
342.6389916
0
ARC
8
bottom_labelLayer
10
97.5233839
20
63.9879889
40
2.1929032
50
342.3616003
51
353.7537206
0
ARC
8
bottom_labelLayer
10
96.3670263
20
64.127372
40
3.3575853
50
353.5362961
51
0.2013896
0
ARC
8
bottom_labelLayer
10
96.5441938
20
64.1554063
40
3.1804383
50
359.7075656
51
7.8972407
0
ARC
8
bottom_labelLayer
10
97.7089723
20
64.3223863
40
2.003771
50
7.7439904
51
20.0690519
0
ARC
8
bottom_labelLayer
10
98.3580204
20
64.5605638
40
1.3124026
50
20.0257053
51
37.435093
0
ARC
8
bottom_labelLayer
10
98.5733672
20
64.7133715
40
1.0485659
50
37.9577738
51
80.4006157
0
ARC
8
bottom_labelLayer
10
98.4509899
20
64.1673295
40
1.6076422
50
79.3453825
51
90.3174446
0
ARC
8
bottom_labelLayer
10
98.4283313
20
64.2580371
40
1.5169722
50
89.4805976
51
103.8804987
0
ARC
8
bottom_labelLayer
10
98.3008659
20
64.7434241
40
1.015207
50
103.4684986
51
142.3119014
0
ARC
8
bottom_labelLayer
10
98.5486689
20
64.5691517
40
1.3179196
50
142.9025961
51
162.3749746
0
ARC
8
bottom_labelLayer
10
99.3295043
20
64.3089418
40
2.1409208
50
162.0653575
51
173.1674631
0
ARC
8
bottom_labelLayer
10
100.5470109
20
64.1536577
40
3.3682676
50
173.0086343
51
180.2463829
0
LINE
8
bottom_labelLayer
10
103.4377196
20
62.557158
11
103.4377196
21
62.0694978
0
LINE
8
bottom_labelLayer
10
101.5485165
20
63.2406501
11
101.5485165
21
65.7442283
0
LINE
8
bottom_labelLayer
10
101.5485165
20
65.7442283
11
100.945661
21
65.7442283
0
LINE
8
bottom_labelLayer
10
100.945661
20
65.7442283
11
100.945661
21
66.0514158
0
LINE
8
bottom_labelLayer
10
100.945661
20
66.0514158
11
101.5485165
21
66.316365
0
LINE
8
bottom_labelLayer
10
101.5485165
20
66.316365
11
101.8173056
21
67.2148884
0
LINE
8
bottom_labelLayer
10
101.8173056
20
67.2148884
11
102.1859306
21
67.2148884
0
LINE
8
bottom_labelLayer
10
102.1859306
20
67.2148884
11
102.1859306
21
66.2395681
0
LINE
8
bottom_labelLayer
10
102.1859306
20
66.2395681
11
103.4070009
21
66.2395681
0
LINE
8
bottom_labelLayer
10
103.4070009
20
66.2395681
11
103.4070009
21
65.7442283
0
LINE
8
bottom_labelLayer
10
103.4070009
20
65.7442283
11
102.1859306
21
65.7442283
0
LINE
8
bottom_labelLayer
10
102.1859306
20
65.7442283
11
102.1859306
21
63.267529
0
ARC
8
bottom_labelLayer
10
102.866113
20
64.573734
40
2.0933775
50
269.8803951
51
278.3027819
0
ARC
8
bottom_labelLayer
10
102.8864089
20
64.4084806
40
1.926929
50
278.4151796
51
279.0085117
0
ARC
8
bottom_labelLayer
10
102.6512116
20
65.9110676
40
3.4478105
50
278.9589786
51
280.5105774
0
ARC
8
bottom_labelLayer
10
102.8750497
20
64.7101011
40
2.2261632
50
280.484697
51
282.6269672
0
ARC
8
bottom_labelLayer
10
103.0713761
20
63.8379296
40
1.332169
50
282.5874349
51
285.5797363
0
ARC
8
bottom_labelLayer
10
103.1696542
20
63.4764423
40
0.9575712
50
285.724586
51
286.2568074
0
ARC
8
bottom_labelLayer
10
103.1697387
20
62.6362882
40
0.626949
50
287.9888109
51
295.3049834
0
ARC
8
bottom_labelLayer
10
103.0185119
20
63.0938203
40
1.1088219
50
283.3069648
51
288.1197593
0
ARC
8
bottom_labelLayer
10
102.8587672
20
63.760171
40
1.794051
50
280.0069933
51
283.3734914
0
ARC
8
bottom_labelLayer
10
102.7519889
20
64.3396228
40
2.3832463
50
279.1860417
51
280.1142971
0
ARC
8
bottom_labelLayer
10
102.6862772
20
64.7133895
40
2.7627147
50
275.5259837
51
279.2938977
0
ARC
8
bottom_labelLayer
10
102.7602117
20
63.9410866
40
1.9868816
50
270.893178
51
275.5484664
0
ARC
8
bottom_labelLayer
10
102.7694969
20
63.5874045
40
1.6331021
50
270.0031538
51
270.760883
0
ARC
8
bottom_labelLayer
10
102.7438645
20
63.6189298
40
1.664826
50
253.7847569
51
270.8852794
0
ARC
8
bottom_labelLayer
10
102.5466268
20
62.9462782
40
0.9638562
50
190.3817634
51
253.8772424
0
ARC
8
bottom_labelLayer
10
103.5519419
20
63.2180991
40
2.0035524
50
179.3550921
51
192.8477951
0
ARC
8
bottom_labelLayer
10
103.469454
20
63.2595026
40
1.2835486
50
179.6417067
51
189.7505766
0
ARC
8
bottom_labelLayer
10
103.0163321
20
63.1786826
40
0.8232899
50
189.5479198
51
205.7873196
0
ARC
8
bottom_labelLayer
10
102.8301173
20
63.0928131
40
0.6182742
50
206.1293842
51
221.4084358
0
ARC
8
bottom_labelLayer
10
102.8092407
20
63.0769714
40
0.5921415
50
221.5948719
51
262.3505528
0
ARC
8
bottom_labelLayer
10
102.8588984
20
63.3323251
40
0.8519688
50
261.3265848
51
270.1913079
0
LINE
8
bottom_labelLayer
10
106.2139267
20
62.557158
11
106.2139267
21
62.0694978
0
LINE
8
bottom_labelLayer
10
104.3247235
20
63.2406501
11
104.3247235
21
65.7442283
0
LINE
8
bottom_labelLayer
10
104.3247235
20
65.7442283
11
103.7218681
21
65.7442283
0
LINE
8
bottom_labelLayer
10
103.7218681
20
65.7442283
11
103.7218681
21
66.0514158
0
LINE
8
bottom_labelLayer
10
103.7218681
20
66.0514158
11
104.3247235
21
66.316365
0
LINE
8
bottom_labelLayer
10
104.3247235
20
66.316365
11
104.5935126
21
67.2148884
0
LINE
8
bottom_labelLayer
10
104.5935126
20
67.2148884
11
104.9621376
21
67.2148884
0
LINE
8
bottom_labelLayer
10
104.9621376
20
67.2148884
11
104.9621376
21
66.2395681
0
LINE
8
bottom_labelLayer
10
104.9621376
20
66.2395681
11
106.1832079
21
66.2395681
0
LINE
8
bottom_labelLayer
10
106.1832079
20
66.2395681
11
106.1832079
21
65.7442283
0
LINE
8
bottom_labelLayer
10
106.1832079
20
65.7442283
11
104.9621376
21
65.7442283
0
LINE
8
bottom_labelLayer
10
104.9621376
20
65.7442283
11
104.9621376
21
63.267529
0
ARC
8
bottom_labelLayer
10
105.64232
20
64.573734
40
2.0933775
50
269.8803951
51
278.3027819
0
ARC
8
bottom_labelLayer
10
105.662616
20
64.4084806
40
1.926929
50
278.4151796
51
279.0085117
0
ARC
8
bottom_labelLayer
10
105.4274187
20
65.9110676
40
3.4478105
50
278.9589786
51
280.5105774
0
ARC
8
bottom_labelLayer
10
105.6512567
20
64.7101011
40
2.2261632
50
280.484697
51
282.6269672
0
ARC
8
bottom_labelLayer
10
105.8475831
20
63.8379296
40
1.332169
50
282.5874349
51
285.5797363
0
ARC
8
bottom_labelLayer
10
105.9458612
20
63.4764423
40
0.9575712
50
285.724586
51
286.2568074
0
ARC
8
bottom_labelLayer
10
105.9459458
20
62.6362882
40
0.626949
50
287.9888109
51
295.3049834
0
ARC
8
bottom_labelLayer
10
105.7947189
20
63.0938203
40
1.1088219
50
283.3069648
51
288.1197593
0
ARC
8
bottom_labelLayer
10
105.6349742
20
63.760171
40
1.794051
50
280.0069933
51
283.3734914
0
ARC
8
bottom_labelLayer
10
105.528196
20
64.3396228
40
2.3832463
50
279.1860417
51
280.1142971
0
ARC
8
bottom_labelLayer
10
105.4624842
20
64.7133895
40
2.7627147
50
275.5259837
51
279.2938977
0
ARC
8
bottom_labelLayer
10
105.5364187
20
63.9410866
40
1.9868816
50
270.893178
51
275.5484664
0
ARC
8
bottom_labelLayer
10
105.545704
20
63.5874045
40
1.6331021
50
270.0031538
51
270.760883
0
ARC
8
bottom_labelLayer
10
105.5200716
20
63.6189298
40
1.664826
50
253.7847569
51
270.8852794
0
ARC
8
bottom_labelLayer
10
105.3228339
20
62.9462782
40
0.9638562
50
190.3817634
51
253.8772424
0
ARC
8
bottom_labelLayer
10
106.3281489
20
63.2180991
40
2.0035524
50
179.3550921
51
192.8477951
0
ARC
8
bottom_labelLayer
10
106.2456611
20
63.2595026
40
1.2835486
50
179.6417067
51
189.7505766
0
ARC
8
bottom_labelLayer
10
105.7925391
20
63.1786826
40
0.8232899
50
189.5479198
51
205.7873196
0
ARC
8
bottom_labelLayer
10
105.6063243
20
63.0928131
40
0.6182742
50
206.1293842
51
221.4084358
0
ARC
8
bottom_labelLayer
10
105.5854477
20
63.0769714
40
0.5921415
50
221.5948719
51
262.3505528
0
ARC
8
bottom_labelLayer
10
105.6351054
20
63.3323251
40
0.8519688
50
261.3265848
51
270.1913079
0
ARC
8
bottom_labelLayer
10
107.3949193
20
64.116976
40
3.2925001
50
349.1761948
51
0.3862826
0
ARC
8
bottom_labelLayer
10
108.5034219
20
63.8959938
40
2.1622386
50
330.2507254
51
349.4116545
0
ARC
8
bottom_labelLayer
10
108.8445743
20
63.7186753
40
1.7781279
50
318.1439419
51
329.7566546
0
ARC
8
bottom_labelLayer
10
108.9061378
20
63.6693381
40
1.6993587
50
278.895911
51
317.9979013
0
ARC
8
bottom_labelLayer
10
108.7474915
20
64.4294332
40
2.4751541
50
269.7502861
51
279.8032925
0
ARC
8
bottom_labelLayer
10
108.7217621
20
64.0011635
40
2.0469155
50
253.5436954
51
270.4182464
0
ARC
8
bottom_labelLayer
10
108.65362
20
63.7375804
40
1.7748507
50
238.8115225
51
253.2428845
0
ARC
8
bottom_labelLayer
10
108.6316342
20
63.693367
40
1.7256468
50
207.7947026
51
238.6757933
0
ARC
8
bottom_labelLayer
10
108.9473181
20
63.8866932
40
2.0951928
50
205.6560939
51
208.4459981
0
ARC
8
bottom_labelLayer
10
109.1902278
20
63.9878938
40
2.3580118
50
188.9102434
51
205.3171528
0
ARC
8
bottom_labelLayer
10
110.0093331
20
64.1266233
40
3.1887359
50
179.7744931
51
189.0932767
0
ARC
8
bottom_labelLayer
10
110.1301582
20
64.1615892
40
3.3096121
50
169.2443078
51
180.3880609
0
ARC
8
bottom_labelLayer
10
109.0062381
20
64.3837458
40
2.1639948
50
150.7111582
51
169.469518
0
ARC
8
bottom_labelLayer
10
108.6474413
20
64.5680016
40
1.7609872
50
138.17592
51
150.2287528
0
ARC
8
bottom_labelLayer
10
108.5877638
20
64.6137973
40
1.6859866
50
99.1759319
51
137.9832695
0
ARC
8
bottom_labelLayer
10
108.7520306
20
63.8407399
40
2.475652
50
89.7326351
51
100.0759806
0
ARC
8
bottom_labelLayer
10
108.7848618
20
64.1745969
40
2.1418738
50
73.5222819
51
90.5692263
0
ARC
8
bottom_labelLayer
10
108.9104707
20
64.6309664
40
1.6686435
50
41.14456
51
73.2134002
0
ARC
8
bottom_labelLayer
10
108.6706937
20
64.424881
40
1.9848058
50
13.5014448
51
41.0703442
0
ARC
8
bottom_labelLayer
10
107.7443232
20
64.1824617
40
2.9422369
50
1.1277344
51
13.8800174
0
ARC
8
bottom_labelLayer
10
106.9468126
20
64.1397097
40
3.7405321
50
359.9917878
51
1.5420409
0
ARC
8
bottom_labelLayer
10
110.7088637
20
64.1226073
40
3.2278311
50
179.7059384
51
187.916108
0
ARC
8
bottom_labelLayer
10
109.5250188
20
63.9525482
40
2.0318534
50
187.7639495
51
200.0976513
0
ARC
8
bottom_labelLayer
10
108.8728193
20
63.7135832
40
1.337254
50
200.0846095
51
216.9131444
0
ARC
8
bottom_labelLayer
10
108.6346588
20
63.543526
40
1.0447205
50
217.3009584
51
261.7099215
0
ARC
8
bottom_labelLayer
10
108.745219
20
64.0711095
40
1.5830834
50
260.5033425
51
270.2477173
0
ARC
8
bottom_labelLayer
10
108.7663228
20
63.968523
40
1.4805509
50
269.4481672
51
284.7255549
0
ARC
8
bottom_labelLayer
10
108.8835289
20
63.5338409
40
1.0303575
50
284.5662468
51
322.633392
0
ARC
8
bottom_labelLayer
10
108.609488
20
63.7318221
40
1.3683435
50
323.0089777
51
342.6389916
0
ARC
8
bottom_labelLayer
10
107.8256847
20
63.9879889
40
2.1929032
50
342.3616003
51
353.7537206
0
ARC
8
bottom_labelLayer
10
106.6693271
20
64.127372
40
3.3575853
50
353.5362961
51
0.2013896
0
ARC
8
bottom_labelLayer
10
106.8464946
20
64.1554063
40
3.1804383
50
359.7075656
51
7.8972407
0
ARC
8
bottom_labelLayer
10
108.0112731
20
64.3223863
40
2.003771
50
7.7439904
51
20.0690519
0
ARC
8
bottom_labelLayer
10
108.6603212
20
64.5605638
40
1.3124026
50
20.0257053
51
37.435093
0
ARC
8
bottom_labelLayer
10
108.875668
20
64.7133715
40
1.0485659
50
37.9577738
51
80.4006157
0
ARC
8
bottom_labelLayer
10
108.7532907
20
64.1673295
40
1.6076422
50
79.3453825
51
90.3174446
0
ARC
8
bottom_labelLayer
10
108.7306321
20
64.2580371
40
1.5169722
50
89.4805976
51
103.8804987
0
ARC
8
bottom_labelLayer
10
108.6031666
20
64.7434241
40
1.015207
50
103.4684986
51
142.3119014
0
ARC
8
bottom_labelLayer
10
108.8509697
20
64.5691517
40
1.3179196
50
142.9025961
51
162.3749746
0
ARC
8
bottom_labelLayer
10
109.631805
20
64.3089418
40
2.1409208
50
162.0653575
51
173.1674631
0
ARC
8
bottom_labelLayer
10
110.8493116
20
64.1536577
40
3.3682676
50
173.0086343
51
180.2463829
0
LINE
8
bottom_labelLayer
10
117.8064149
20
62.0310994
11
117.1690009
21
62.0310994
0
LINE
8
bottom_labelLayer
10
117.1690009
20
62.0310994
11
117.1690009
21
64.768908
0
LINE
8
bottom_labelLayer
10
115.1223642
20
64.3810837
11
115.1223642
21
62.0310994
0
LINE
8
bottom_labelLayer
10
115.1223642
20
62.0310994
11
114.4849501
21
62.0310994
0
LINE
8
bottom_labelLayer
10
114.4849501
20
62.0310994
11
114.4849501
21
64.768908
0
LINE
8
bottom_labelLayer
10
112.4421532
20
64.2390095
11
112.4421532
21
62.0310994
0
LINE
8
bottom_labelLayer
10
112.4421532
20
62.0310994
11
111.8047392
21
62.0310994
0
LINE
8
bottom_labelLayer
10
111.8047392
20
62.0310994
11
111.8047392
21
66.2395681
0
LINE
8
bottom_labelLayer
10
111.8047392
20
66.2395681
11
112.3231181
21
66.2395681
0
LINE
8
bottom_labelLayer
10
112.3231181
20
66.2395681
11
112.4267939
21
65.6635915
0
LINE
8
bottom_labelLayer
10
112.4267939
20
65.6635915
11
112.4575126
21
65.6635915
0
LINE
8
bottom_labelLayer
10
114.9918095
20
65.602154
11
115.0225282
21
65.602154
0
LINE
8
bottom_labelLayer
10
117.8064149
20
64.7765876
11
117.8064149
21
62.0310994
0
ARC
8
bottom_labelLayer
10
115.2885962
20
64.7789222
40
1.8804313
50
359.6948702
51
8.1471452
0
ARC
8
bottom_labelLayer
10
115.981229
20
64.8814246
40
1.1802675
50
7.9864204
51
20.7949747
0
ARC
8
bottom_labelLayer
10
116.364086
20
65.0280842
40
0.7702841
50
20.7070585
51
40.0217627
0
ARC
8
bottom_labelLayer
10
116.4480761
20
65.0830384
40
0.6707305
50
41.0407604
51
73.1793163
0
ARC
8
bottom_labelLayer
10
116.3265407
20
64.715455
40
1.0578035
50
72.639548
51
86.2568015
0
ARC
8
bottom_labelLayer
10
116.2876039
20
64.2953235
40
1.4796247
50
85.8143619
51
90.0684272
0
ARC
8
bottom_labelLayer
10
116.2733015
20
64.1348378
40
1.6401571
50
89.5620982
51
101.2962027
0
ARC
8
bottom_labelLayer
10
116.1497713
20
64.7262167
40
1.0360509
50
101.0032605
51
121.7840236
0
ARC
8
bottom_labelLayer
10
116.0558562
20
64.8938825
40
0.8441041
50
122.3597094
51
140.2883522
0
ARC
8
bottom_labelLayer
10
116.2248165
20
64.7699961
40
1.05331
50
140.9765223
51
161.169987
0
ARC
8
bottom_labelLayer
10
116.8613373
20
64.5434706
40
1.7289014
50
160.8731352
51
172.5272309
0
ARC
8
bottom_labelLayer
10
117.9249418
20
64.3965786
40
2.8025858
50
172.3776346
51
180.1829791
0
ARC
8
bottom_labelLayer
10
118.6873943
20
64.3809787
40
3.5650303
50
179.8931306
51
179.9983126
0
ARC
8
bottom_labelLayer
10
112.6045455
20
64.7789222
40
1.8804313
50
359.6948702
51
8.1471452
0
ARC
8
bottom_labelLayer
10
113.2971783
20
64.8814246
40
1.1802675
50
7.9864204
51
20.7949747
0
ARC
8
bottom_labelLayer
10
113.6800352
20
65.0280842
40
0.7702841
50
20.7070585
51
40.0217627
0
ARC
8
bottom_labelLayer
10
113.7657698
20
65.0842429
40
0.6686239
50
41.061066
51
72.8993134
0
ARC
8
bottom_labelLayer
10
113.6419349
20
64.7155726
40
1.0574557
50
72.3600858
51
85.9562139
0
ARC
8
bottom_labelLayer
10
113.6000134
20
64.282281
40
1.4926673
50
85.5239192
51
90.0793477
0
ARC
8
bottom_labelLayer
10
113.5857137
20
64.1918482
40
1.5831461
50
89.5572899
51
101.483238
0
ARC
8
bottom_labelLayer
10
113.4642031
20
64.7611512
40
1.0010648
50
101.1546639
51
123.0655383
0
ARC
8
bottom_labelLayer
10
113.3816041
20
64.9050353
40
0.8354688
50
123.702038
51
142.302206
0
ARC
8
bottom_labelLayer
10
113.5750842
20
64.773776
40
1.0689217
50
143.0769794
51
161.3913928
0
ARC
8
bottom_labelLayer
10
114.3549715
20
64.4983358
40
1.8959694
50
161.0234038
51
171.4469717
0
ARC
8
bottom_labelLayer
10
115.6461235
20
64.2960799
40
3.2028525
50
171.3042117
51
178.3501409
0
ARC
8
bottom_labelLayer
10
116.8800405
20
64.2409706
40
4.4378878
50
178.0976062
51
180.0253184
0
ARC
8
bottom_labelLayer
10
113.5373784
20
65.0285767
40
1.2527386
50
117.1209531
51
149.5423545
0
ARC
8
bottom_labelLayer
10
113.6652303
20
64.8013364
40
1.5133114
50
93.8343114
51
117.5072133
0
ARC
8
bottom_labelLayer
10
113.7005463
20
64.4885253
40
1.8278402
50
89.9662815
51
94.283155
0
ARC
8
bottom_labelLayer
10
113.7217026
20
64.2295672
40
2.0868944
50
77.5572256
51
90.5513218
0
ARC
8
bottom_labelLayer
10
113.9153423
20
65.0624495
40
1.2318902
50
52.7027141
51
78.0053589
0
ARC
8
bottom_labelLayer
10
113.9843334
20
65.1908097
40
1.0882152
50
22.2097993
51
51.4970525
0
ARC
8
bottom_labelLayer
10
116.1772338
20
64.9403888
40
1.3308938
50
119.4042141
51
150.1828502
0
ARC
8
bottom_labelLayer
10
116.3253288
20
64.7150453
40
1.6000235
50
118.2589495
51
120.0624234
0
ARC
8
bottom_labelLayer
10
116.3244134
20
64.6995227
40
1.6132832
50
95.8635115
51
117.9693059
0
ARC
8
bottom_labelLayer
10
116.3790116
20
64.3047384
40
2.0116285
50
89.9196417
51
96.2617452
0
ARC
8
bottom_labelLayer
10
116.3965412
20
64.1007251
40
2.2156887
50
79.9360873
51
90.3803453
0
ARC
8
bottom_labelLayer
10
116.5441743
20
64.9002926
40
1.4026369
50
62.9723621
51
80.1664677
0
ARC
8
bottom_labelLayer
10
116.698506
20
65.2169252
40
1.0504727
50
44.2290601
51
62.6228761
0
ARC
8
bottom_labelLayer
10
116.6526083
20
65.1966526
40
1.097641
50
19.5611858
51
43.3161395
0
ARC
8
bottom_labelLayer
10
115.9859618
20
64.9462582
40
1.8096918
50
7.5042039
51
19.9645635
0
ARC
8
bottom_labelLayer
10
114.882868
20
64.7913491
40
2.9235843
50
359.7107062
51
7.6907645
0
ENDSEC
0
EOF