0
SECTION
2
HEADER
9
$INSUNITS
70
4
9
$ACADVER
1
AC1014
9
$HANDSEED
5
FFFF
0
ENDSEC
0
SECTION
2
TABLES
0
TABLE
2
VPORT
5
8
100
AcDbSymbolTable
0
ENDTAB
0
TABLE
2
LTYPE
5
5
100
AcDbSymbolTable
0
LTYPE
5
14
100
AcDbSymbolTableRecord
100
AcDbLinetypeTableRecord
2
BYBLOCK
70
0
0
LTYPE
5
15
100
AcDbSymbolTableRecord
100
AcDbLinetypeTableRecord
2
BYLAYER
70
0
0
LTYPE
5
16
100
AcDbSymbolTableRecord
100
AcDbLinetypeTableRecord
2
DASHED
70
0
3
Dashed __ __ __ __ __ __ __ __ __ __ __ __ __ _
72
65
73
2
40
0.75
49
0.5
74
0
49
-0.25
74
0
0
ENDTAB
0
TABLE
2
LAYER
5
2
100
AcDbSymbolTable
70
2
0
LAYER
5
50
100
AcDbSymbolTableRecord
100
AcDbLayerTableRecord
2
0
70
0
62
7
6
CONTINUOUS
0
ENDTAB
0
TABLE
2
STYLE
5
3
100
AcDbSymbolTable
70
1
0
STYLE
5
11
100
AcDbSymbolTableRecord
100
AcDbTextStyleTableRecord
2
STANDARD
70
0
0
ENDTAB
0
TABLE
2
VIEW
5
6
100
AcDbSymbolTable
70
0
0
ENDTAB
0
TABLE
2
UCS
5
7
100
AcDbSymbolTable
70
0
0
ENDTAB
0
TABLE
2
APPID
5
9
100
AcDbSymbolTable
70
2
0
APPID
5
12
100
AcDbSymbolTableRecord
100
AcDbRegAppTableRecord
2
ACAD
70
0
0
ENDTAB
0
TABLE
2
DIMSTYLE
5
A
100
AcDbSymbolTable
70
1
0
ENDTAB
0
TABLE
2
BLOCK_RECORD
5
1
100
AcDbSymbolTable
70
1
0
BLOCK_RECORD
5
1F
100
AcDbSymbolTableRecord
100
AcDbBlockTableRecord
2
*MODEL_SPACE
0
BLOCK_RECORD
5
1B
100
AcDbSymbolTableRecord
100
AcDbBlockTableRecord
2
*PAPER_SPACE
0
ENDTAB
0
ENDSEC
0
SECTION
2
BLOCKS
0
BLOCK
5
20
100
AcDbEntity
100
AcDbBlockBegin
2
*MODEL_SPACE
0
ENDBLK
5
21
100
AcDbEntity
100
AcDbBlockEnd
0
BLOCK
5
1C
100
AcDbEntity
100
AcDbBlockBegin
2
*PAPER_SPACE
0
ENDBLK
5
1D
100
AcDbEntity
100
AcDbBlockEnd
0
ENDSEC
0
SECTION
2
ENTITIES
0
POINT
5
100
100
AcDbEntity
8
0
100
AcDbPoint
10
17
20
92.730000000000018
30
0
0
POINT
5
101
100
AcDbEntity
8
0
100
AcDbPoint
10
25.725000000000001
20
78.5
30
0
0
POINT
5
102
100
AcDbEntity
8
0
100
AcDbPoint
10
25.975000000000001
20
67.5
30
0
0
POINT
5
103
100
AcDbEntity
8
0
100
AcDbPoint
10
26
20
56.5
30
0
0
POINT
5
104
100
AcDbEntity
8
0
100
AcDbPoint
10
78.674999999999997
20
96.5
30
0
0
POINT
5
105
100
AcDbEntity
8
0
100
AcDbPoint
10
78.75
20
90.5
30
0
0
LWPOLYLINE
5
106
100
AcDbEntity
8
0
100
AcDbPolyline
90
8
70
1
43
0.0
10
63.25
20
94
10
21.25
20
94
10
15.250000000000002
20
100
10
0
20
100
10
0
20
0
10
100
20
0
10
100
20
100
10
69.25
20
100
0
CIRCLE
5
107
100
AcDbEntity
8
0
100
AcDbCircle
10
21
20
11
30
0
40
1.6000000000000003
210
0
220
0
230
1
0
LWPOLYLINE
5
108
100
AcDbEntity
8
0
100
AcDbPolyline
90
4
70
1
43
0.0
10
31.980000000000004
20
2.3999999999999999
10
19.48
20
2.3999999999999999
10
19.48
20
3.6000000000000005
10
31.980000000000004
20
3.6000000000000005
0
CIRCLE
5
109
100
AcDbEntity
8
0
100
AcDbCircle
10
33.143066000000005
20
9.5
30
0
40
1.5500000000000003
210
0
220
-0
230
1
0
CIRCLE
5
110
100
AcDbEntity
8
0
100
AcDbCircle
10
2.25
20
26
30
0
40
0.37500000000000006
210
0
220
0
230
1
0
CIRCLE
5
111
100
AcDbEntity
8
0
100
AcDbCircle
10
2.25
20
28.000000000000004
30
0
40
0.37500000000000006
210
0
220
0
230
1
0
CIRCLE
5
112
100
AcDbEntity
8
0
100
AcDbCircle
10
2.25
20
30
30
0
40
0.37500000000000006
210
0
220
0
230
1
0
CIRCLE
5
113
100
AcDbEntity
8
0
100
AcDbCircle
10
3.0000000000000004
20
36
30
0
40
0.47499999999999998
210
0
220
0
230
1
0
CIRCLE
5
114
100
AcDbEntity
8
0
100
AcDbCircle
10
19.899999999999999
20
36.25
30
0
40
1.5000000000000002
210
0
220
-0
230
1
0
CIRCLE
5
115
100
AcDbEntity
8
0
100
AcDbCircle
10
3.0000000000000004
20
38.5
30
0
40
0.47499999999999998
210
0
220
0
230
1
0
CIRCLE
5
116
100
AcDbEntity
8
0
100
AcDbCircle
10
3.0000000000000004
20
41.000000000000007
30
0
40
0.47499999999999998
210
0
220
0
230
1
0
CIRCLE
5
117
100
AcDbEntity
8
0
100
AcDbCircle
10
3.0000000000000004
20
43.500000000000007
30
0
40
0.47499999999999998
210
0
220
0
230
1
0
CIRCLE
5
118
100
AcDbEntity
8
0
100
AcDbCircle
10
3.0000000000000004
20
46.000000000000007
30
0
40
0.47499999999999998
210
0
220
0
230
1
0
CIRCLE
5
119
100
AcDbEntity
8
0
100
AcDbCircle
10
2
20
49.5
30
0
40
1.6000000000000003
210
0
220
0
230
1
0
CIRCLE
5
120
100
AcDbEntity
8
0
100
AcDbCircle
10
19.899999999999999
20
41.000000000000007
30
0
40
1.5000000000000002
210
0
220
-0
230
1
0
CIRCLE
5
121
100
AcDbEntity
8
0
100
AcDbCircle
10
41.143065999999997
20
27
30
0
40
2.5
210
0
220
-0
230
1
0
LWPOLYLINE
5
122
100
AcDbEntity
8
0
100
AcDbPolyline
90
4
70
1
43
0.0
10
50.243217999999999
20
30.623800000000003
10
45.243217999999999
20
30.623800000000003
10
45.243217999999999
20
35.623800000000003
10
50.243217999999999
20
35.623800000000003
0
CIRCLE
5
123
100
AcDbEntity
8
0
100
AcDbCircle
10
33.143066000000005
20
44.5
30
0
40
1.5500000000000003
210
0
220
-0
230
1
0
CIRCLE
5
124
100
AcDbEntity
8
0
100
AcDbCircle
10
75.75
20
4.25
30
0
40
0.65000000000000002
210
0
220
0
230
1
0
CIRCLE
5
125
100
AcDbEntity
8
0
100
AcDbCircle
10
90.990000000000009
20
4.25
30
0
40
0.65000000000000002
210
0
220
-0
230
1
0
CIRCLE
5
126
100
AcDbEntity
8
0
100
AcDbCircle
10
96.5
20
3.5000000000000004
30
0
40
1.6000000000000003
210
0
220
0
230
1
0
LWPOLYLINE
5
127
100
AcDbEntity
8
0
100
AcDbPolyline
90
6
70
1
43
0.0
10
89
20
16.000000000000178
42
0.96035148654830649
10
88.875919000000039
20
13.00256200000036
10
89
20
13
10
96.5
20
12.999999999999821
42
0.96035148654830438
10
96.624081000000004
20
15.997438000000002
10
96.5
20
16
0
CIRCLE
5
128
100
AcDbEntity
8
0
100
AcDbCircle
10
57.428711000000007
20
34.666666999999997
30
0
40
1.5500000000000003
210
0
220
-0
230
1
0
CIRCLE
5
129
100
AcDbEntity
8
0
100
AcDbCircle
10
49.721061000000006
20
42.824601000000008
30
0
40
1.5500000000000003
210
0
220
-0
230
1
0
LWPOLYLINE
5
130
100
AcDbEntity
8
0
100
AcDbPolyline
90
4
70
1
43
0.0
10
66
20
39
10
61.000000000000007
20
39
10
61.000000000000007
20
44
10
66
20
44
0
CIRCLE
5
131
100
AcDbEntity
8
0
100
AcDbCircle
10
73.714355000000012
20
42.33333300000001
30
0
40
1.5500000000000003
210
0
220
-0
230
1
0
CIRCLE
5
132
100
AcDbEntity
8
0
100
AcDbCircle
10
90
20
39.485377999999997
30
0
40
1.25
210
0
220
-0
230
1
0
CIRCLE
5
133
100
AcDbEntity
8
0
100
AcDbCircle
10
3.0000000000000004
20
53.000000000000007
30
0
40
0.47499999999999998
210
0
220
0
230
1
0
CIRCLE
5
134
100
AcDbEntity
8
0
100
AcDbCircle
10
3.0000000000000004
20
55.500000000000007
30
0
40
0.47499999999999998
210
0
220
0
230
1
0
CIRCLE
5
135
100
AcDbEntity
8
0
100
AcDbCircle
10
3.0000000000000004
20
58.000000000000007
30
0
40
0.47499999999999998
210
0
220
0
230
1
0
CIRCLE
5
136
100
AcDbEntity
8
0
100
AcDbCircle
10
3.0000000000000004
20
60.500000000000007
30
0
40
0.47499999999999998
210
0
220
0
230
1
0
CIRCLE
5
137
100
AcDbEntity
8
0
100
AcDbCircle
10
3.0000000000000004
20
63.000000000000007
30
0
40
0.47499999999999998
210
0
220
0
230
1
0
CIRCLE
5
138
100
AcDbEntity
8
0
100
AcDbCircle
10
2
20
66.5
30
0
40
1.6000000000000003
210
0
220
0
230
1
0
CIRCLE
5
139
100
AcDbEntity
8
0
100
AcDbCircle
10
3.0000000000000004
20
70
30
0
40
0.47499999999999998
210
0
220
0
230
1
0
CIRCLE
5
140
100
AcDbEntity
8
0
100
AcDbCircle
10
3.0000000000000004
20
72.5
30
0
40
0.47499999999999998
210
0
220
0
230
1
0
CIRCLE
5
141
100
AcDbEntity
8
0
100
AcDbCircle
10
3.0000000000000004
20
75
30
0
40
0.47499999999999998
210
0
220
0
230
1
0
CIRCLE
5
142
100
AcDbEntity
8
0
100
AcDbCircle
10
3.0000000000000004
20
77.5
30
0
40
0.47499999999999998
210
0
220
0
230
1
0
CIRCLE
5
143
100
AcDbEntity
8
0
100
AcDbCircle
10
3.0000000000000004
20
80
30
0
40
0.47499999999999998
210
0
220
0
230
1
0
CIRCLE
5
144
100
AcDbEntity
8
0
100
AcDbCircle
10
3.0000000000000004
20
87.000000000000014
30
0
40
0.47499999999999998
210
0
220
0
230
1
0
CIRCLE
5
145
100
AcDbEntity
8
0
100
AcDbCircle
10
3.0000000000000004
20
89.500000000000014
30
0
40
0.47499999999999998
210
0
220
0
230
1
0
CIRCLE
5
146
100
AcDbEntity
8
0
100
AcDbCircle
10
3.0000000000000004
20
92.000000000000014
30
0
40
0.47499999999999998
210
0
220
0
230
1
0
CIRCLE
5
147
100
AcDbEntity
8
0
100
AcDbCircle
10
3.0000000000000004
20
94.500000000000014
30
0
40
0.47499999999999998
210
0
220
0
230
1
0
CIRCLE
5
148
100
AcDbEntity
8
0
100
AcDbCircle
10
3.0000000000000004
20
97.000000000000014
30
0
40
0.47499999999999998
210
0
220
0
230
1
0
CIRCLE
5
149
100
AcDbEntity
8
0
100
AcDbCircle
10
13
20
96.75
30
0
40
1.6000000000000003
210
0
220
0
230
1
0
CIRCLE
5
150
100
AcDbEntity
8
0
100
AcDbCircle
10
66.006704999999997
20
50.491267999999998
30
0
40
1.5500000000000003
210
0
220
-0
230
1
0
CIRCLE
5
151
100
AcDbEntity
8
0
100
AcDbCircle
10
84
20
50
30
0
40
1.5500000000000003
210
0
220
-0
230
1
0
CIRCLE
5
152
100
AcDbEntity
8
0
100
AcDbCircle
10
90
20
50
30
0
40
3.0499999999999998
210
0
220
-0
230
1
0
CIRCLE
5
153
100
AcDbEntity
8
0
100
AcDbCircle
10
61.000000000000007
20
84.129999999999995
30
0
40
0.5
210
0
220
0
230
1
0
CIRCLE
5
154
100
AcDbEntity
8
0
100
AcDbCircle
10
61.000000000000007
20
86.670000000000002
30
0
40
0.5
210
0
220
0
230
1
0
CIRCLE
5
155
100
AcDbEntity
8
0
100
AcDbCircle
10
61.000000000000007
20
89.209999999999994
30
0
40
0.5
210
0
220
0
230
1
0
CIRCLE
5
156
100
AcDbEntity
8
0
100
AcDbCircle
10
61.000000000000007
20
91.75
30
0
40
0.5
210
0
220
0
230
1
0
CIRCLE
5
157
100
AcDbEntity
8
0
100
AcDbCircle
10
71.924999999999997
20
96.5
30
0
40
1.5500000000000003
210
0
220
-0
230
1
0
CIRCLE
5
158
100
AcDbEntity
8
0
100
AcDbCircle
10
78.75
20
90.5
30
0
40
1.5000000000000002
210
0
220
-0
230
1
0
CIRCLE
5
159
100
AcDbEntity
8
0
100
AcDbCircle
10
78.674999999999997
20
96.5
30
0
40
1.5500000000000003
210
0
220
-0
230
1
0
CIRCLE
5
160
100
AcDbEntity
8
0
100
AcDbCircle
10
85.425000000000011
20
96.5
30
0
40
1.5500000000000003
210
0
220
-0
230
1
0
CIRCLE
5
161
100
AcDbEntity
8
0
100
AcDbCircle
10
91.5
20
96.5
30
0
40
1
210
0
220
-0
230
1
0
CIRCLE
5
162
100
AcDbEntity
8
0
100
AcDbCircle
10
96.5
20
96.5
30
0
40
1.6000000000000003
210
0
220
0
230
1
0
CIRCLE
5
163
100
AcDbEntity
8
0
100
AcDbCircle
10
25.725000000000001
20
80.5
30
0
40
0.37500000000000006
210
0
220
0
230
1
0
CIRCLE
5
164
100
AcDbEntity
8
0
100
AcDbCircle
10
25.725000000000001
20
80.5
30
0
40
0.37500000000000006
210
0
220
0
230
1
0
CIRCLE
5
165
100
AcDbEntity
8
0
100
AcDbCircle
10
25.725000000000001
20
78.5
30
0
40
0.37500000000000006
210
0
220
0
230
1
0
CIRCLE
5
166
100
AcDbEntity
8
0
100
AcDbCircle
10
25.725000000000001
20
78.5
30
0
40
0.37500000000000006
210
0
220
0
230
1
0
CIRCLE
5
167
100
AcDbEntity
8
0
100
AcDbCircle
10
25.725000000000001
20
76.5
30
0
40
0.37500000000000006
210
0
220
0
230
1
0
CIRCLE
5
168
100
AcDbEntity
8
0
100
AcDbCircle
10
25.725000000000001
20
76.5
30
0
40
0.37500000000000006
210
0
220
0
230
1
0
CIRCLE
5
169
100
AcDbEntity
8
0
100
AcDbCircle
10
17
20
94
30
0
40
0.37500000000000006
210
0
220
0
230
1
0
CIRCLE
5
170
100
AcDbEntity
8
0
100
AcDbCircle
10
17
20
94
30
0
40
0.37500000000000006
210
0
220
0
230
1
0
CIRCLE
5
171
100
AcDbEntity
8
0
100
AcDbCircle
10
17
20
92.730000000000018
30
0
40
0.37500000000000006
210
0
220
0
230
1
0
CIRCLE
5
172
100
AcDbEntity
8
0
100
AcDbCircle
10
17
20
92.730000000000018
30
0
40
0.37500000000000006
210
0
220
0
230
1
0
CIRCLE
5
173
100
AcDbEntity
8
0
100
AcDbCircle
10
17
20
91.459999999999994
30
0
40
0.37500000000000006
210
0
220
0
230
1
0
CIRCLE
5
174
100
AcDbEntity
8
0
100
AcDbCircle
10
17
20
91.459999999999994
30
0
40
0.37500000000000006
210
0
220
0
230
1
0
CIRCLE
5
175
100
AcDbEntity
8
0
100
AcDbCircle
10
25.975000000000001
20
69.5
30
0
40
0.37500000000000006
210
0
220
0
230
1
0
CIRCLE
5
176
100
AcDbEntity
8
0
100
AcDbCircle
10
25.975000000000001
20
67.5
30
0
40
0.37500000000000006
210
0
220
0
230
1
0
CIRCLE
5
177
100
AcDbEntity
8
0
100
AcDbCircle
10
26
20
58.500000000000007
30
0
40
0.37500000000000006
210
0
220
0
230
1
0
CIRCLE
5
178
100
AcDbEntity
8
0
100
AcDbCircle
10
26
20
58.500000000000007
30
0
40
0.37500000000000006
210
0
220
0
230
1
0
CIRCLE
5
179
100
AcDbEntity
8
0
100
AcDbCircle
10
26
20
56.5
30
0
40
0.37500000000000006
210
0
220
0
230
1
0
CIRCLE
5
180
100
AcDbEntity
8
0
100
AcDbCircle
10
26
20
56.5
30
0
40
0.37500000000000006
210
0
220
0
230
1
0
CIRCLE
5
181
100
AcDbEntity
8
0
100
AcDbCircle
10
26
20
54.5
30
0
40
0.37500000000000006
210
0
220
0
230
1
0
CIRCLE
5
182
100
AcDbEntity
8
0
100
AcDbCircle
10
26
20
54.5
30
0
40
0.37500000000000006
210
0
220
0
230
1
0
CIRCLE
5
183
100
AcDbEntity
8
0
100
AcDbCircle
10
25.975000000000001
20
65.5
30
0
40
0.37500000000000006
210
0
220
0
230
1
0
LWPOLYLINE
5
184
100
AcDbEntity
8
0
100
AcDbPolyline
90
4
70
1
43
0.0
10
45.615288222313964
20
17.500040610916223
10
94.472222222313974
20
40.500040610916216
42
0.99999999999999989
10
85.527777777686026
20
59.499959389083784
10
36.670843777686038
20
36.499959389083791
42
0.99999999999999989
0
LINE
5
185
100
AcDbEntity
8
0
100
AcDbLine
10
41.143065999999997
20
27
30
0
11
90
21
50
31
0
6
DASHED
0
LWPOLYLINE
5
186
100
AcDbEntity
8
0
100
AcDbPolyline
90
4
70
1
43
0.0
10
0
20
25
10
5
20
25
10
5
20
100
10
0
20
100
0
LWPOLYLINE
5
187
100
AcDbEntity
8
0
100
AcDbPolyline
90
4
70
1
43
0.0
10
0
20
0
10
16
20
0
10
16
20
13
10
-5.3926038442842604e-32
20
13
0
LWPOLYLINE
5
188
100
AcDbEntity
8
0
100
AcDbPolyline
90
4
70
1
43
0.0
10
16
20
6.0000000000000009
10
34
20
6.0000000000000009
10
34
20
0
10
16
20
0
0
LWPOLYLINE
5
189
100
AcDbEntity
8
0
100
AcDbPolyline
90
4
70
1
43
0.0
10
16
20
95.230000000000018
10
18.000000000000004
20
95.230000000000018
10
18.000000000000004
20
90.230000000000018
10
16
20
90.230000000000018
0
LINE
5
190
100
AcDbEntity
8
0
100
AcDbLine
10
16
20
95.230000000000018
30
0
11
18.000000000000004
21
90.230000000000018
31
0
6
DASHED
0
LINE
5
191
100
AcDbEntity
8
0
100
AcDbLine
10
18.000000000000004
20
95.230000000000018
30
0
11
16
21
90.230000000000018
31
0
6
DASHED
0
LWPOLYLINE
5
192
100
AcDbEntity
8
0
100
AcDbPolyline
90
4
70
1
43
0.0
10
26.725000000000001
20
81.000000000000014
10
24.725000000000001
20
81.000000000000014
10
24.725000000000001
20
76
10
26.725000000000001
20
76
0
LINE
5
193
100
AcDbEntity
8
0
100
AcDbLine
10
26.725000000000001
20
81.000000000000014
30
0
11
24.725000000000001
21
76
31
0
6
DASHED
0
LINE
5
194
100
AcDbEntity
8
0
100
AcDbLine
10
24.725000000000001
20
81.000000000000014
30
0
11
26.725000000000001
21
76
31
0
6
DASHED
0
LWPOLYLINE
5
195
100
AcDbEntity
8
0
100
AcDbPolyline
90
4
70
1
43
0.0
10
24.975000000000001
20
70
10
26.975000000000001
20
70
10
26.975000000000001
20
65
10
24.975000000000001
20
65
0
LINE
5
196
100
AcDbEntity
8
0
100
AcDbLine
10
24.975000000000001
20
70
30
0
11
26.975000000000001
21
65
31
0
6
DASHED
0
LINE
5
197
100
AcDbEntity
8
0
100
AcDbLine
10
26.975000000000001
20
70
30
0
11
24.975000000000001
21
65
31
0
6
DASHED
0
LWPOLYLINE
5
198
100
AcDbEntity
8
0
100
AcDbPolyline
90
4
70
1
43
0.0
10
27
20
59
10
25
20
59
10
25
20
54
10
27
20
54
0
LINE
5
199
100
AcDbEntity
8
0
100
AcDbLine
10
27
20
59
30
0
11
25
21
54
31
0
6
DASHED
0
LINE
5
200
100
AcDbEntity
8
0
100
AcDbLine
10
25
20
59
30
0
11
27
21
54
31
0
6
DASHED
0
LWPOLYLINE
5
201
100
AcDbEntity
8
0
100
AcDbPolyline
90
4
70
1
43
0.0
10
60.000000000000014
20
92.939999999999998
10
62.000000000000021
20
92.939999999999998
10
62.000000000000021
20
82.939999999999998
10
60.000000000000014
20
82.939999999999998
0
LINE
5
202
100
AcDbEntity
8
0
100
AcDbLine
10
61.000000000000014
20
82.939999999999998
30
0
11
61.000000000000007
21
84.129999999999995
31
0
6
DASHED
0
LINE
5
203
100
AcDbEntity
8
0
100
AcDbLine
10
61.000000000000007
20
89.209999999999994
30
0
11
61.000000000000007
21
86.670000000000002
31
0
6
DASHED
0
LINE
5
204
100
AcDbEntity
8
0
100
AcDbLine
10
61.000000000000007
20
87.939999999999998
30
0
11
62.000000000000021
21
87.939999999999998
31
0
6
DASHED
0
LWPOLYLINE
5
205
100
AcDbEntity
8
0
100
AcDbPolyline
90
4
70
1
43
0.0
10
81.75
20
93.500000000000014
10
75.75
20
93.500000000000014
10
75.75
20
87.5
10
81.75
20
87.5
0
LINE
5
206
100
AcDbEntity
8
0
100
AcDbLine
10
81.75
20
93.500000000000014
30
0
11
75.75
21
87.5
31
0
6
DASHED
0
LINE
5
207
100
AcDbEntity
8
0
100
AcDbLine
10
75.75
20
93.500000000000014
30
0
11
81.75
21
87.5
31
0
6
DASHED
0
CIRCLE
5
208
100
AcDbEntity
8
0
100
AcDbCircle
10
75.75
20
4.25
30
0
40
2.0000000000000009
210
0
220
0
230
1
0
CIRCLE
5
209
100
AcDbEntity
8
0
100
AcDbCircle
10
90.990000000000009
20
4.25
30
0
40
1.9999999999999973
210
0
220
0
230
1
0
LINE
5
210
100
AcDbEntity
8
0
100
AcDbLine
10
63.25
20
94
30
0
11
88.462500000000006
21
94
31
0
0
LINE
5
211
100
AcDbEntity
8
0
100
AcDbLine
10
85.425000000000011
20
96.5
30
0
11
91.5
21
96.5
31
0
6
DASHED
0
LINE
5
212
100
AcDbEntity
8
0
100
AcDbLine
10
88.462500000000006
20
94
30
0
11
88.462500000000006
21
96.5
31
0
0
LINE
5
213
100
AcDbEntity
8
0
100
AcDbLine
10
88.462500000000006
20
96.5
30
0
11
88.462500000000006
21
100
31
0
0
ENDSEC
0
SECTION
2
OBJECTS
0
DICTIONARY
5
C
100
AcDbDictionary
3
ACAD_GROUP
350
D
3
ACAD_MLINESTYLE
350
17
0
DICTIONARY
5
D
100
AcDbDictionary
0
DICTIONARY
5
1A
330
C
100
AcDbDictionary
0
DICTIONARY
5
17
100
AcDbDictionary
0
ENDSEC
0
EOF
