  0
SECTION
  2
HEADER
  9
$ACADVER
  1
AC1009
  0
ENDSEC
  0
SECTION
  2
TABLES
  0
TABLE
  2
LAYER
  70
1
  0
LAYER
  2
Layer_0
  70
0
  62
7
  6
CONTINUOUS
  0
ENDTAB
  0
ENDSEC
  0
SECTION
  2
ENTITIES
  0
POLYLINE
  5
90
  8
Layer_0
  62
7
  70
1
  66
1
  10
0
  20
0
  30
0
  0
VERTEX
  5
90
  8
Layer_0
  10
878
  20
603.59581
  0
VERTEX
  5
91
  8
Layer_0
  10
878
  20
601.59581
  0
VERTEX
  5
92
  8
Layer_0
  10
879.7
  20
601.59581
  0
VERTEX
  5
93
  8
Layer_0
  10
879.7
  20
600.09581
  0
VERTEX
  5
94
  8
Layer_0
  10
920.3
  20
600.09581
  0
VERTEX
  5
95
  8
Layer_0
  10
920.3
  20
601.59581
  0
VERTEX
  5
96
  8
Layer_0
  10
922
  20
601.59581
  0
VERTEX
  5
97
  8
Layer_0
  10
922
  20
603.59581
  0
VERTEX
  5
98
  8
Layer_0
  10
920.3
  20
603.59581
  0
VERTEX
  5
99
  8
Layer_0
  10
920.3
  20
614.46854
  0
VERTEX
  5
9a
  8
Layer_0
  10
922
  20
614.46854
  0
VERTEX
  5
9b
  8
Layer_0
  10
922
  20
633.59581
  42
0.41421356
  0
VERTEX
  5
9c
  8
Layer_0
  10
918
  20
637.59581
  0
VERTEX
  5
9d
  8
Layer_0
  10
882
  20
637.59581
  42
0.41421359
  0
VERTEX
  5
9e
  8
Layer_0
  10
878
  20
633.59581
  0
VERTEX
  5
9f
  8
Layer_0
  10
878
  20
614.46854
  0
VERTEX
  5
a0
  8
Layer_0
  10
879.7
  20
614.46854
  0
VERTEX
  5
a1
  8
Layer_0
  10
879.7
  20
603.59581
  0
SEQEND
  0
POLYLINE
  5
a3
  8
Layer_0
  62
7
  70
1
  66
1
  10
0
  20
0
  30
0
  0
VERTEX
  5
a3
  8
Layer_0
  10
922.00002
  20
596.40422
  0
VERTEX
  5
a4
  8
Layer_0
  10
922.00002
  20
598.40422
  0
VERTEX
  5
a5
  8
Layer_0
  10
920.30002
  20
598.40422
  0
VERTEX
  5
a6
  8
Layer_0
  10
920.30002
  20
599.90422
  0
VERTEX
  5
a7
  8
Layer_0
  10
879.70002
  20
599.9042
  0
VERTEX
  5
a8
  8
Layer_0
  10
879.70002
  20
598.4042
  0
VERTEX
  5
a9
  8
Layer_0
  10
878.00002
  20
598.4042
  0
VERTEX
  5
aa
  8
Layer_0
  10
878.00002
  20
596.4042
  0
VERTEX
  5
ab
  8
Layer_0
  10
879.70002
  20
596.4042
  0
VERTEX
  5
ac
  8
Layer_0
  10
879.70002
  20
585.53147
  0
VERTEX
  5
ad
  8
Layer_0
  10
878.00002
  20
585.53147
  0
VERTEX
  5
ae
  8
Layer_0
  10
878.00003
  20
566.40421
  42
0.41421356
  0
VERTEX
  5
af
  8
Layer_0
  10
882.00003
  20
562.40421
  0
VERTEX
  5
b0
  8
Layer_0
  10
918.00003
  20
562.40422
  42
0.41421359
  0
VERTEX
  5
b1
  8
Layer_0
  10
922.00003
  20
566.40422
  0
VERTEX
  5
b2
  8
Layer_0
  10
922.00002
  20
585.53149
  0
VERTEX
  5
b3
  8
Layer_0
  10
920.30002
  20
585.53149
  0
VERTEX
  5
b4
  8
Layer_0
  10
920.30002
  20
596.40422
  0
SEQEND
  0
ENDSEC
  0
EOF
