  0
SECTION
  2
HEADER
  9
$ACADVER
  1
AC1009
  0
ENDSEC
  0
SECTION
  2
TABLES
  0
TABLE
  2
LAYER
  70
1
  0
LAYER
  2
Layer_0
  70
0
  62
7
  6
CONTINUOUS
  0
ENDTAB
  0
ENDSEC
  0
SECTION
  2
ENTITIES
  0
POLYLINE
  5
90
  8
Layer_0
  62
7
  70
1
  66
1
  10
0
  20
0
  30
0
  0
VERTEX
  5
90
  8
Layer_0
  10
854.10303
  20
604.65534
  0
VERTEX
  5
91
  8
Layer_0
  10
858.3667
  20
604.65534
  0
VERTEX
  5
92
  8
Layer_0
  10
858.37061
  20
607.4947
  42
-0.40839658
  0
VERTEX
  5
93
  8
Layer_0
  10
860.3667
  20
609.44147
  42
-0.4079208
  0
VERTEX
  5
94
  8
Layer_0
  10
862.36377
  20
607.4947
  0
VERTEX
  5
95
  8
Layer_0
  10
907.60156
  20
607.4947
  0
VERTEX
  5
96
  8
Layer_0
  10
907.5752
  20
607.19245
  42
0.10085924
  0
VERTEX
  5
97
  8
Layer_0
  10
908.9502
  20
595.62165
  42
0.068724904
  0
VERTEX
  5
98
  8
Layer_0
  10
910.93628
  20
591.77912
  42
0.094547895
  0
VERTEX
  5
99
  8
Layer_0
  10
913.0354
  20
589.83747
  42
0.31191515
  0
VERTEX
  5
9a
  8
Layer_0
  10
917.65186
  20
590.23249
  42
0.11200469
  0
VERTEX
  5
9b
  8
Layer_0
  10
920.19727
  20
593.4593
  42
0.077057518
  0
VERTEX
  5
9c
  8
Layer_0
  10
922.10669
  20
599.25056
  42
0.067663833
  0
VERTEX
  5
9d
  8
Layer_0
  10
922.50098
  20
607.4947
  0
VERTEX
  5
9e
  8
Layer_0
  10
941.89209
  20
607.4947
  0
VERTEX
  5
9f
  8
Layer_0
  10
941.90723
  20
607.59431
  42
-0.36089634
  0
VERTEX
  5
a0
  8
Layer_0
  10
943.89697
  20
609.19001
  0
VERTEX
  5
a1
  8
Layer_0
  10
943.89697
  20
610.69147
  0
VERTEX
  5
a2
  8
Layer_0
  10
854.10303
  20
610.69147
  0
SEQEND
  0
ENDSEC
  0
EOF
