0
SECTION
2
HEADER
9
$INSUNITS
70
4
0
ENDSEC
0
SECTION
2
TABLES
0
TABLE
2
LTYPE
0
LTYPE
72
65
70
64
2
CONTINUOUS
3
______
73
0
40
0
0
ENDTAB
0
TABLE
2
LAYER
0
ENDTAB
0
ENDSEC
0
SECTION
2
ENTITIES
0
LINE
8
front_outsideCutPath
10
0
20
83.9
11
0
21
75.325
0
LINE
8
front_outsideCutPath
10
0
20
75.325
11
2
21
75.325
0
LINE
8
front_outsideCutPath
10
2
20
75.325
11
2
21
62.575
0
LINE
8
front_outsideCutPath
10
2
20
62.575
11
0
21
62.575
0
LINE
8
front_outsideCutPath
10
0
20
62.575
11
0
21
49.825
0
LINE
8
front_outsideCutPath
10
0
20
49.825
11
2
21
49.825
0
LINE
8
front_outsideCutPath
10
2
20
49.825
11
2
21
37.075
0
LINE
8
front_outsideCutPath
10
2
20
37.075
11
0
21
37.075
0
LINE
8
front_outsideCutPath
10
0
20
37.075
11
0
21
24.325
0
LINE
8
front_outsideCutPath
10
0
20
24.325
11
2
21
24.325
0
LINE
8
front_outsideCutPath
10
2
20
24.325
11
2
21
11.575
0
LINE
8
front_outsideCutPath
10
2
20
11.575
11
0
21
11.575
0
LINE
8
front_outsideCutPath
10
0
20
11.575
11
0
21
3
0
LINE
8
front_outsideCutPath
10
0
20
3
11
13.825
21
3
0
LINE
8
front_outsideCutPath
10
13.825
20
3
11
13.825
21
5
0
LINE
8
front_outsideCutPath
10
13.825
20
5
11
26.575
21
5
0
LINE
8
front_outsideCutPath
10
26.575
20
5
11
26.575
21
3
0
LINE
8
front_outsideCutPath
10
26.575
20
3
11
39.325
21
3
0
LINE
8
front_outsideCutPath
10
39.325
20
3
11
40.4
21
3
0
LINE
8
front_outsideCutPath
10
40.4
20
3
11
40.4
21
11.575
0
LINE
8
front_outsideCutPath
10
40.4
20
11.575
11
38.4
21
11.575
0
LINE
8
front_outsideCutPath
10
38.4
20
11.575
11
38.4
21
24.325
0
LINE
8
front_outsideCutPath
10
38.4
20
24.325
11
40.4
21
24.325
0
LINE
8
front_outsideCutPath
10
40.4
20
24.325
11
40.4
21
37.075
0
LINE
8
front_outsideCutPath
10
40.4
20
37.075
11
38.4
21
37.075
0
LINE
8
front_outsideCutPath
10
38.4
20
37.075
11
38.4
21
49.825
0
LINE
8
front_outsideCutPath
10
38.4
20
49.825
11
40.4
21
49.825
0
LINE
8
front_outsideCutPath
10
40.4
20
49.825
11
40.4
21
62.575
0
LINE
8
front_outsideCutPath
10
40.4
20
62.575
11
38.4
21
62.575
0
LINE
8
front_outsideCutPath
10
38.4
20
62.575
11
38.4
21
75.325
0
LINE
8
front_outsideCutPath
10
38.4
20
75.325
11
40.4
21
75.325
0
LINE
8
front_outsideCutPath
10
40.4
20
75.325
11
40.4
21
83.9
0
LINE
8
front_outsideCutPath
10
40.4
20
83.9
11
26.575
21
83.9
0
LINE
8
front_outsideCutPath
10
26.575
20
83.9
11
26.575
21
81.9
0
LINE
8
front_outsideCutPath
10
26.575
20
81.9
11
13.825
21
81.9
0
LINE
8
front_outsideCutPath
10
13.825
20
81.9
11
13.825
21
83.9
0
LINE
8
front_outsideCutPath
10
13.825
20
83.9
11
1.075
21
83.9
0
LINE
8
front_outsideCutPath
10
1.075
20
83.9
11
0
21
83.9
0
LINE
8
left_outsideCutPath
10
45.4
20
83.9
11
45.4
21
75.325
0
LINE
8
left_outsideCutPath
10
45.4
20
75.325
11
43.4
21
75.325
0
LINE
8
left_outsideCutPath
10
43.4
20
75.325
11
43.4
21
62.575
0
LINE
8
left_outsideCutPath
10
43.4
20
62.575
11
45.4
21
62.575
0
LINE
8
left_outsideCutPath
10
45.4
20
62.575
11
45.4
21
49.825
0
LINE
8
left_outsideCutPath
10
45.4
20
49.825
11
43.4
21
49.825
0
LINE
8
left_outsideCutPath
10
43.4
20
49.825
11
43.4
21
37.075
0
LINE
8
left_outsideCutPath
10
43.4
20
37.075
11
45.4
21
37.075
0
LINE
8
left_outsideCutPath
10
45.4
20
37.075
11
45.4
21
24.325
0
LINE
8
left_outsideCutPath
10
45.4
20
24.325
11
43.4
21
24.325
0
LINE
8
left_outsideCutPath
10
43.4
20
24.325
11
43.4
21
11.575
0
LINE
8
left_outsideCutPath
10
43.4
20
11.575
11
45.4
21
11.575
0
LINE
8
left_outsideCutPath
10
45.4
20
11.575
11
45.4
21
3
0
LINE
8
left_outsideCutPath
10
45.4
20
3
11
59.815
21
3
0
LINE
8
left_outsideCutPath
10
59.815
20
3
11
59.815
21
5
0
LINE
8
left_outsideCutPath
10
59.815
20
5
11
72.565
21
5
0
LINE
8
left_outsideCutPath
10
72.565
20
5
11
72.565
21
3
0
LINE
8
left_outsideCutPath
10
72.565
20
3
11
85.315
21
3
0
LINE
8
left_outsideCutPath
10
85.315
20
3
11
86.98
21
3
0
LINE
8
left_outsideCutPath
10
86.98
20
3
11
86.98
21
11.575
0
LINE
8
left_outsideCutPath
10
86.98
20
11.575
11
88.98
21
11.575
0
LINE
8
left_outsideCutPath
10
88.98
20
11.575
11
88.98
21
24.325
0
LINE
8
left_outsideCutPath
10
88.98
20
24.325
11
86.98
21
24.325
0
LINE
8
left_outsideCutPath
10
86.98
20
24.325
11
86.98
21
37.075
0
LINE
8
left_outsideCutPath
10
86.98
20
37.075
11
88.98
21
37.075
0
LINE
8
left_outsideCutPath
10
88.98
20
37.075
11
88.98
21
49.825
0
LINE
8
left_outsideCutPath
10
88.98
20
49.825
11
86.98
21
49.825
0
LINE
8
left_outsideCutPath
10
86.98
20
49.825
11
86.98
21
62.575
0
LINE
8
left_outsideCutPath
10
86.98
20
62.575
11
88.98
21
62.575
0
LINE
8
left_outsideCutPath
10
88.98
20
62.575
11
88.98
21
75.325
0
LINE
8
left_outsideCutPath
10
88.98
20
75.325
11
86.98
21
75.325
0
LINE
8
left_outsideCutPath
10
86.98
20
75.325
11
86.98
21
83.9
0
LINE
8
left_outsideCutPath
10
86.98
20
83.9
11
72.565
21
83.9
0
LINE
8
left_outsideCutPath
10
72.565
20
83.9
11
72.565
21
81.9
0
LINE
8
left_outsideCutPath
10
72.565
20
81.9
11
59.815
21
81.9
0
LINE
8
left_outsideCutPath
10
59.815
20
81.9
11
59.815
21
83.9
0
LINE
8
left_outsideCutPath
10
59.815
20
83.9
11
47.065
21
83.9
0
LINE
8
left_outsideCutPath
10
47.065
20
83.9
11
45.4
21
83.9
0
LINE
8
top_outsideCutPath
10
93.98
20
46.58
11
93.98
21
32.165
0
LINE
8
top_outsideCutPath
10
93.98
20
32.165
11
91.98
21
32.165
0
LINE
8
top_outsideCutPath
10
91.98
20
32.165
11
91.98
21
19.415
0
LINE
8
top_outsideCutPath
10
91.98
20
19.415
11
93.98
21
19.415
0
LINE
8
top_outsideCutPath
10
93.98
20
19.415
11
93.98
21
6.665
0
LINE
8
top_outsideCutPath
10
93.98
20
6.665
11
93.98
21
5
0
LINE
8
top_outsideCutPath
10
93.98
20
5
11
105.805
21
5
0
LINE
8
top_outsideCutPath
10
105.805
20
5
11
105.805
21
3
0
LINE
8
top_outsideCutPath
10
105.805
20
3
11
118.555
21
3
0
LINE
8
top_outsideCutPath
10
118.555
20
3
11
118.555
21
5
0
LINE
8
top_outsideCutPath
10
118.555
20
5
11
130.38
21
5
0
LINE
8
top_outsideCutPath
10
130.38
20
5
11
130.38
21
19.415
0
LINE
8
top_outsideCutPath
10
130.38
20
19.415
11
132.38
21
19.415
0
LINE
8
top_outsideCutPath
10
132.38
20
19.415
11
132.38
21
32.165
0
LINE
8
top_outsideCutPath
10
132.38
20
32.165
11
130.38
21
32.165
0
LINE
8
top_outsideCutPath
10
130.38
20
32.165
11
130.38
21
44.915
0
LINE
8
top_outsideCutPath
10
130.38
20
44.915
11
130.38
21
46.58
0
LINE
8
top_outsideCutPath
10
130.38
20
46.58
11
118.555
21
46.58
0
LINE
8
top_outsideCutPath
10
118.555
20
46.58
11
118.555
21
48.58
0
LINE
8
top_outsideCutPath
10
118.555
20
48.58
11
105.805
21
48.58
0
LINE
8
top_outsideCutPath
10
105.805
20
48.58
11
105.805
21
46.58
0
LINE
8
top_outsideCutPath
10
105.805
20
46.58
11
93.98
21
46.58
0
LINE
8
back_outsideCutPath
10
0
20
167.8
11
0
21
159.225
0
LINE
8
back_outsideCutPath
10
0
20
159.225
11
2
21
159.225
0
LINE
8
back_outsideCutPath
10
2
20
159.225
11
2
21
146.475
0
LINE
8
back_outsideCutPath
10
2
20
146.475
11
0
21
146.475
0
LINE
8
back_outsideCutPath
10
0
20
146.475
11
0
21
133.725
0
LINE
8
back_outsideCutPath
10
0
20
133.725
11
2
21
133.725
0
LINE
8
back_outsideCutPath
10
2
20
133.725
11
2
21
120.975
0
LINE
8
back_outsideCutPath
10
2
20
120.975
11
0
21
120.975
0
LINE
8
back_outsideCutPath
10
0
20
120.975
11
0
21
108.225
0
LINE
8
back_outsideCutPath
10
0
20
108.225
11
2
21
108.225
0
LINE
8
back_outsideCutPath
10
2
20
108.225
11
2
21
95.475
0
LINE
8
back_outsideCutPath
10
2
20
95.475
11
0
21
95.475
0
LINE
8
back_outsideCutPath
10
0
20
95.475
11
0
21
86.9
0
LINE
8
back_outsideCutPath
10
0
20
86.9
11
13.825
21
86.9
0
LINE
8
back_outsideCutPath
10
13.825
20
86.9
11
13.825
21
88.9
0
LINE
8
back_outsideCutPath
10
13.825
20
88.9
11
26.575
21
88.9
0
LINE
8
back_outsideCutPath
10
26.575
20
88.9
11
26.575
21
86.9
0
LINE
8
back_outsideCutPath
10
26.575
20
86.9
11
39.325
21
86.9
0
LINE
8
back_outsideCutPath
10
39.325
20
86.9
11
40.4
21
86.9
0
LINE
8
back_outsideCutPath
10
40.4
20
86.9
11
40.4
21
95.475
0
LINE
8
back_outsideCutPath
10
40.4
20
95.475
11
38.4
21
95.475
0
LINE
8
back_outsideCutPath
10
38.4
20
95.475
11
38.4
21
108.225
0
LINE
8
back_outsideCutPath
10
38.4
20
108.225
11
40.4
21
108.225
0
LINE
8
back_outsideCutPath
10
40.4
20
108.225
11
40.4
21
120.975
0
LINE
8
back_outsideCutPath
10
40.4
20
120.975
11
38.4
21
120.975
0
LINE
8
back_outsideCutPath
10
38.4
20
120.975
11
38.4
21
133.725
0
LINE
8
back_outsideCutPath
10
38.4
20
133.725
11
40.4
21
133.725
0
LINE
8
back_outsideCutPath
10
40.4
20
133.725
11
40.4
21
146.475
0
LINE
8
back_outsideCutPath
10
40.4
20
146.475
11
38.4
21
146.475
0
LINE
8
back_outsideCutPath
10
38.4
20
146.475
11
38.4
21
159.225
0
LINE
8
back_outsideCutPath
10
38.4
20
159.225
11
40.4
21
159.225
0
LINE
8
back_outsideCutPath
10
40.4
20
159.225
11
40.4
21
167.8
0
LINE
8
back_outsideCutPath
10
40.4
20
167.8
11
26.575
21
167.8
0
LINE
8
back_outsideCutPath
10
26.575
20
167.8
11
26.575
21
165.8
0
LINE
8
back_outsideCutPath
10
26.575
20
165.8
11
13.825
21
165.8
0
LINE
8
back_outsideCutPath
10
13.825
20
165.8
11
13.825
21
167.8
0
LINE
8
back_outsideCutPath
10
13.825
20
167.8
11
1.075
21
167.8
0
LINE
8
back_outsideCutPath
10
1.075
20
167.8
11
0
21
167.8
0
LINE
8
right_outsideCutPath
10
45.4
20
167.8
11
45.4
21
159.225
0
LINE
8
right_outsideCutPath
10
45.4
20
159.225
11
43.4
21
159.225
0
LINE
8
right_outsideCutPath
10
43.4
20
159.225
11
43.4
21
146.475
0
LINE
8
right_outsideCutPath
10
43.4
20
146.475
11
45.4
21
146.475
0
LINE
8
right_outsideCutPath
10
45.4
20
146.475
11
45.4
21
133.725
0
LINE
8
right_outsideCutPath
10
45.4
20
133.725
11
43.4
21
133.725
0
LINE
8
right_outsideCutPath
10
43.4
20
133.725
11
43.4
21
120.975
0
LINE
8
right_outsideCutPath
10
43.4
20
120.975
11
45.4
21
120.975
0
LINE
8
right_outsideCutPath
10
45.4
20
120.975
11
45.4
21
108.225
0
LINE
8
right_outsideCutPath
10
45.4
20
108.225
11
43.4
21
108.225
0
LINE
8
right_outsideCutPath
10
43.4
20
108.225
11
43.4
21
95.475
0
LINE
8
right_outsideCutPath
10
43.4
20
95.475
11
45.4
21
95.475
0
LINE
8
right_outsideCutPath
10
45.4
20
95.475
11
45.4
21
86.9
0
LINE
8
right_outsideCutPath
10
45.4
20
86.9
11
59.815
21
86.9
0
LINE
8
right_outsideCutPath
10
59.815
20
86.9
11
59.815
21
88.9
0
LINE
8
right_outsideCutPath
10
59.815
20
88.9
11
72.565
21
88.9
0
LINE
8
right_outsideCutPath
10
72.565
20
88.9
11
72.565
21
86.9
0
LINE
8
right_outsideCutPath
10
72.565
20
86.9
11
85.315
21
86.9
0
LINE
8
right_outsideCutPath
10
85.315
20
86.9
11
86.98
21
86.9
0
LINE
8
right_outsideCutPath
10
86.98
20
86.9
11
86.98
21
95.475
0
LINE
8
right_outsideCutPath
10
86.98
20
95.475
11
88.98
21
95.475
0
LINE
8
right_outsideCutPath
10
88.98
20
95.475
11
88.98
21
108.225
0
LINE
8
right_outsideCutPath
10
88.98
20
108.225
11
86.98
21
108.225
0
LINE
8
right_outsideCutPath
10
86.98
20
108.225
11
86.98
21
120.975
0
LINE
8
right_outsideCutPath
10
86.98
20
120.975
11
88.98
21
120.975
0
LINE
8
right_outsideCutPath
10
88.98
20
120.975
11
88.98
21
133.725
0
LINE
8
right_outsideCutPath
10
88.98
20
133.725
11
86.98
21
133.725
0
LINE
8
right_outsideCutPath
10
86.98
20
133.725
11
86.98
21
146.475
0
LINE
8
right_outsideCutPath
10
86.98
20
146.475
11
88.98
21
146.475
0
LINE
8
right_outsideCutPath
10
88.98
20
146.475
11
88.98
21
159.225
0
LINE
8
right_outsideCutPath
10
88.98
20
159.225
11
86.98
21
159.225
0
LINE
8
right_outsideCutPath
10
86.98
20
159.225
11
86.98
21
167.8
0
LINE
8
right_outsideCutPath
10
86.98
20
167.8
11
72.565
21
167.8
0
LINE
8
right_outsideCutPath
10
72.565
20
167.8
11
72.565
21
165.8
0
LINE
8
right_outsideCutPath
10
72.565
20
165.8
11
59.815
21
165.8
0
LINE
8
right_outsideCutPath
10
59.815
20
165.8
11
59.815
21
167.8
0
LINE
8
right_outsideCutPath
10
59.815
20
167.8
11
47.065
21
167.8
0
LINE
8
right_outsideCutPath
10
47.065
20
167.8
11
45.4
21
167.8
0
LINE
8
bottom_outsideCutPath
10
93.98
20
95.16
11
93.98
21
80.745
0
LINE
8
bottom_outsideCutPath
10
93.98
20
80.745
11
91.98
21
80.745
0
LINE
8
bottom_outsideCutPath
10
91.98
20
80.745
11
91.98
21
67.995
0
LINE
8
bottom_outsideCutPath
10
91.98
20
67.995
11
93.98
21
67.995
0
LINE
8
bottom_outsideCutPath
10
93.98
20
67.995
11
93.98
21
55.245
0
LINE
8
bottom_outsideCutPath
10
93.98
20
55.245
11
93.98
21
53.58
0
LINE
8
bottom_outsideCutPath
10
93.98
20
53.58
11
105.805
21
53.58
0
LINE
8
bottom_outsideCutPath
10
105.805
20
53.58
11
105.805
21
51.58
0
LINE
8
bottom_outsideCutPath
10
105.805
20
51.58
11
118.555
21
51.58
0
LINE
8
bottom_outsideCutPath
10
118.555
20
51.58
11
118.555
21
53.58
0
LINE
8
bottom_outsideCutPath
10
118.555
20
53.58
11
130.38
21
53.58
0
LINE
8
bottom_outsideCutPath
10
130.38
20
53.58
11
130.38
21
67.995
0
LINE
8
bottom_outsideCutPath
10
130.38
20
67.995
11
132.38
21
67.995
0
LINE
8
bottom_outsideCutPath
10
132.38
20
67.995
11
132.38
21
80.745
0
LINE
8
bottom_outsideCutPath
10
132.38
20
80.745
11
130.38
21
80.745
0
LINE
8
bottom_outsideCutPath
10
130.38
20
80.745
11
130.38
21
93.495
0
LINE
8
bottom_outsideCutPath
10
130.38
20
93.495
11
130.38
21
95.16
0
LINE
8
bottom_outsideCutPath
10
130.38
20
95.16
11
118.555
21
95.16
0
LINE
8
bottom_outsideCutPath
10
118.555
20
95.16
11
118.555
21
97.16
0
LINE
8
bottom_outsideCutPath
10
118.555
20
97.16
11
105.805
21
97.16
0
LINE
8
bottom_outsideCutPath
10
105.805
20
97.16
11
105.805
21
95.16
0
LINE
8
bottom_outsideCutPath
10
105.805
20
95.16
11
93.98
21
95.16
0
ENDSEC
0
EOF