0
SECTION
2
HEADER
9
$INSUNITS
70
4
9
$ACADVER
1
AC1014
9
$HANDSEED
5
FFFF
0
ENDSEC
0
SECTION
2
TABLES
0
TABLE
2
VPORT
5
8
100
AcDbSymbolTable
0
ENDTAB
0
TABLE
2
LTYPE
5
5
100
AcDbSymbolTable
0
LTYPE
5
14
100
AcDbSymbolTableRecord
100
AcDbLinetypeTableRecord
2
BYBLOCK
70
0
0
LTYPE
5
15
100
AcDbSymbolTableRecord
100
AcDbLinetypeTableRecord
2
BYLAYER
70
0
0
LTYPE
5
16
100
AcDbSymbolTableRecord
100
AcDbLinetypeTableRecord
2
DASHED
70
0
3
Dashed __ __ __ __ __ __ __ __ __ __ __ __ __ _
72
65
73
2
40
0.75
49
0.5
74
0
49
-0.25
74
0
0
ENDTAB
0
TABLE
2
LAYER
5
2
100
AcDbSymbolTable
70
3
0
LAYER
5
50
100
AcDbSymbolTableRecord
100
AcDbLayerTableRecord
2
1
70
0
62
7
6
DASHED
0
LAYER
5
51
100
AcDbSymbolTableRecord
100
AcDbLayerTableRecord
2
0
70
0
62
7
6
CONTINUOUS
0
ENDTAB
0
TABLE
2
STYLE
5
3
100
AcDbSymbolTable
70
1
0
STYLE
5
11
100
AcDbSymbolTableRecord
100
AcDbTextStyleTableRecord
2
STANDARD
70
0
0
ENDTAB
0
TABLE
2
VIEW
5
6
100
AcDbSymbolTable
70
0
0
ENDTAB
0
TABLE
2
UCS
5
7
100
AcDbSymbolTable
70
0
0
ENDTAB
0
TABLE
2
APPID
5
9
100
AcDbSymbolTable
70
2
0
APPID
5
12
100
AcDbSymbolTableRecord
100
AcDbRegAppTableRecord
2
ACAD
70
0
0
ENDTAB
0
TABLE
2
DIMSTYLE
5
A
100
AcDbSymbolTable
70
1
0
ENDTAB
0
TABLE
2
BLOCK_RECORD
5
1
100
AcDbSymbolTable
70
1
0
BLOCK_RECORD
5
1F
100
AcDbSymbolTableRecord
100
AcDbBlockTableRecord
2
*MODEL_SPACE
0
BLOCK_RECORD
5
1B
100
AcDbSymbolTableRecord
100
AcDbBlockTableRecord
2
*PAPER_SPACE
0
ENDTAB
0
ENDSEC
0
SECTION
2
BLOCKS
0
BLOCK
5
20
100
AcDbEntity
100
AcDbBlockBegin
2
*MODEL_SPACE
0
ENDBLK
5
21
100
AcDbEntity
100
AcDbBlockEnd
0
BLOCK
5
1C
100
AcDbEntity
100
AcDbBlockBegin
2
*PAPER_SPACE
0
ENDBLK
5
1D
100
AcDbEntity
100
AcDbBlockEnd
0
ENDSEC
0
SECTION
2
ENTITIES
0
POINT
5
100
100
AcDbEntity
8
0
100
AcDbPoint
10
0
20
0
30
0
0
POINT
5
101
100
AcDbEntity
8
0
100
AcDbPoint
10
0
20
0
30
0
0
LWPOLYLINE
5
102
100
AcDbEntity
8
0
100
AcDbPolyline
90
4
70
1
43
0.0
10
-77.06679580572667
20
50.000000000000007
10
9.5105651629512149
20
50
10
9.5105651629512931
20
-50
10
-77.06679580572667
20
-49.999999999999993
0
CIRCLE
5
103
100
AcDbEntity
8
1
100
AcDbCircle
10
0
20
2.0470940490485256e-27
30
0
40
9
210
0
220
0
230
1
0
CIRCLE
5
104
100
AcDbEntity
8
1
100
AcDbCircle
10
-47.328638264641526
20
-26.000000000000902
30
0
40
9
210
0
220
0
230
1
0
LINE
5
105
100
AcDbEntity
8
1
100
AcDbLine
10
-47.328638264641526
20
-26.000000000000902
30
0
11
0
21
2.0431497445224206e-27
31
0
0
CIRCLE
5
106
100
AcDbEntity
8
0
100
AcDbCircle
10
-47.328638264641505
20
-26.000000000000917
30
0
40
2.5000000000000009
210
0
220
0
230
1
0
LINE
5
107
100
AcDbEntity
8
1
100
AcDbLine
10
-47.328638264641526
20
-26.000000000000902
30
0
11
-55.328638264641512
21
-26.000000000000021
31
0
0
LINE
5
108
100
AcDbEntity
8
1
100
AcDbLine
10
-55.328638264646237
20
-43.50000000000005
30
0
11
-55.328638264636766
21
-8.5000000000000213
31
0
0
CIRCLE
5
109
100
AcDbEntity
8
0
100
AcDbCircle
10
-55.328638264636766
20
-8.5000000000000213
30
0
40
1.499999999999998
210
0
220
0
230
1
0
CIRCLE
5
110
100
AcDbEntity
8
0
100
AcDbCircle
10
-55.328638264646237
20
-43.50000000000005
30
0
40
1.499999999999998
210
0
220
0
230
1
0
CIRCLE
5
111
100
AcDbEntity
8
1
100
AcDbCircle
10
-55.328638264641512
20
-26.000000000000021
30
0
40
14.25
210
0
220
0
230
1
0
CIRCLE
5
112
100
AcDbEntity
8
1
100
AcDbCircle
10
0
20
0
30
0
40
45.883118783680231
210
0
220
0
230
1
0
CIRCLE
5
113
100
AcDbEntity
8
0
100
AcDbCircle
10
0
20
2.0470940490485256e-27
30
0
40
11.900000000000023
210
0
220
0
230
1
0
LINE
5
114
100
AcDbEntity
8
1
100
AcDbLine
10
-67.566795805720076
20
-18.70000000001772
30
0
11
-67.566795805698959
21
-33.300000000017725
31
0
0
LINE
5
115
100
AcDbEntity
8
1
100
AcDbLine
10
-67.566795805698959
20
-33.300000000017725
30
0
11
-72.066795805725874
21
-33.300000000017697
31
0
0
LINE
5
116
100
AcDbEntity
8
1
100
AcDbLine
10
-72.066795805725874
20
-33.300000000017697
30
0
11
-72.066795805720076
21
-18.700000000017681
31
0
0
LINE
5
117
100
AcDbEntity
8
1
100
AcDbLine
10
-72.066795805720076
20
-18.700000000017681
30
0
11
-67.566795805720076
21
-18.70000000001772
31
0
0
CIRCLE
5
118
100
AcDbEntity
8
0
100
AcDbCircle
10
9.5105651629512522
20
3.0901699437488923
30
0
40
1
210
0
220
0
230
1
0
LINE
5
119
100
AcDbEntity
8
1
100
AcDbLine
10
0
20
2.0431497445224206e-27
30
0
11
9.5105651629512487
21
3.0901699437488919
31
0
0
CIRCLE
5
120
100
AcDbEntity
8
0
100
AcDbCircle
10
5.8778525229247194
20
8.0901699437490642
30
0
40
1
210
0
220
0
230
1
0
CIRCLE
5
121
100
AcDbEntity
8
0
100
AcDbCircle
10
1.2581816783886774e-13
20
10
30
0
40
1
210
0
220
0
230
1
0
CIRCLE
5
122
100
AcDbEntity
8
0
100
AcDbCircle
10
-5.8778525229246705
20
8.0901699437496912
30
0
40
1
210
0
220
0
230
1
0
CIRCLE
5
123
100
AcDbEntity
8
0
100
AcDbCircle
10
-9.5105651629517176
20
3.0901699437499133
30
0
40
1
210
0
220
0
230
1
0
CIRCLE
5
124
100
AcDbEntity
8
0
100
AcDbCircle
10
-9.5105651629520462
20
-3.0901699437489984
30
0
40
1
210
0
220
0
230
1
0
CIRCLE
5
125
100
AcDbEntity
8
0
100
AcDbCircle
10
-5.8778525229255312
20
-8.0901699437491601
30
0
40
1
210
0
220
0
230
1
0
CIRCLE
5
126
100
AcDbEntity
8
0
100
AcDbCircle
10
-1.0337814968667815e-12
20
-10.000000000000025
30
0
40
1
210
0
220
0
230
1
0
CIRCLE
5
127
100
AcDbEntity
8
0
100
AcDbCircle
10
5.8778525229238614
20
-8.0901699437497872
30
0
40
1
210
0
220
0
230
1
0
CIRCLE
5
128
100
AcDbEntity
8
0
100
AcDbCircle
10
9.5105651629509076
20
-3.0901699437500096
30
0
40
1
210
0
220
0
230
1
0
LINE
5
129
100
AcDbEntity
8
0
100
AcDbLine
10
9.5105651629512451
20
3.0901699437488919
30
0
11
-11.291822603034561
21
44.471961184761199
31
0
0
LINE
5
130
100
AcDbEntity
8
1
100
AcDbLine
10
9.510565162951254
20
-1.0267300435295688e-15
30
0
11
0
21
2.0470940490485256e-27
31
0
0
CIRCLE
5
131
100
AcDbEntity
8
1
100
AcDbCircle
10
-23.664319132281118
20
-12.999999999978673
30
0
40
18
210
0
220
0
230
1
0
CIRCLE
5
132
100
AcDbEntity
8
0
100
AcDbCircle
10
-23.664319132281108
20
-12.999999999978677
30
0
40
1.5499999999999998
210
0
220
0
230
1
0
LINE
5
133
100
AcDbEntity
8
1
100
AcDbLine
10
0
20
0
30
0
11
0
21
50
31
0
0
ARC
5
134
100
AcDbEntity
8
1
100
AcDbCircle
10
-1.6573632423138144e-15
20
-27.066795805724411
30
0
40
77.066795805724411
210
0
220
-0
230
1
100
AcDbArc
50
90
51
180
0
CIRCLE
5
135
100
AcDbEntity
8
1
100
AcDbCircle
10
-31.552425509741198
20
-17.333333333323047
30
0
40
9
210
0
220
0
230
1
0
CIRCLE
5
136
100
AcDbEntity
8
1
100
AcDbCircle
10
-15.776212754821026
20
-8.666666666634292
30
0
40
9
210
0
220
0
230
1
0
CIRCLE
5
137
100
AcDbEntity
8
0
100
AcDbCircle
10
-31.552425509741198
20
-17.333333333323047
30
0
40
1.5499999999999998
210
0
220
0
230
1
0
CIRCLE
5
138
100
AcDbEntity
8
0
100
AcDbCircle
10
-15.776212754821026
20
-8.666666666634292
30
0
40
1.5499999999999998
210
0
220
0
230
1
0
CIRCLE
5
139
100
AcDbEntity
8
0
100
AcDbCircle
10
-1.0337814968667815e-12
20
-10.000000000000025
30
0
40
1.5
210
0
220
0
230
1
0
ENDSEC
0
SECTION
2
OBJECTS
0
DICTIONARY
5
C
100
AcDbDictionary
3
ACAD_GROUP
350
D
3
ACAD_MLINESTYLE
350
17
0
DICTIONARY
5
D
100
AcDbDictionary
0
DICTIONARY
5
1A
330
C
100
AcDbDictionary
0
DICTIONARY
5
17
100
AcDbDictionary
0
ENDSEC
0
EOF
